%TF.GenerationSoftware,KiCad,Pcbnew,5.0.2-bee76a0~70~ubuntu18.10.1*%
%TF.CreationDate,2019-11-15T11:24:18+01:00*%
%TF.ProjectId,Busmaster_001,4275736d-6173-4746-9572-5f3030312e6b,rev?*%
%TF.SameCoordinates,Original*%
%TF.FileFunction,Copper,L1,Top*%
%TF.FilePolarity,Positive*%
%FSLAX46Y46*%
G04 Gerber Fmt 4.6, Leading zero omitted, Abs format (unit mm)*
G04 Created by KiCad (PCBNEW 5.0.2-bee76a0~70~ubuntu18.10.1) date Fr 15 Nov 2019 11:24:18 CET*
%MOMM*%
%LPD*%
G01*
G04 APERTURE LIST*
%ADD10O,1.700000X1.700000*%
%ADD11R,1.700000X1.700000*%
%ADD12C,1.524000*%
%ADD13C,5.000000*%
%ADD14C,4.500000*%
%ADD15C,0.100000*%
%ADD16C,0.875000*%
%ADD17R,1.000000X3.150000*%
%ADD18C,2.100000*%
%ADD19R,2.100000X2.100000*%
%ADD20R,0.550000X1.600000*%
%ADD21R,1.600000X0.550000*%
%ADD22R,1.550000X0.600000*%
%ADD23R,2.000000X4.500000*%
%ADD24C,0.600000*%
%ADD25C,1.200000*%
%ADD26C,0.400000*%
%ADD27C,0.250000*%
G04 APERTURE END LIST*
D10*
X79740000Y-138160000D03*
X77200000Y-138160000D03*
X79740000Y-135620000D03*
X77200000Y-135620000D03*
X79740000Y-133080000D03*
X77200000Y-133080000D03*
X79740000Y-130540000D03*
X77200000Y-130540000D03*
X79740000Y-128000000D03*
X77200000Y-128000000D03*
X79740000Y-125460000D03*
X77200000Y-125460000D03*
X79740000Y-122920000D03*
X77200000Y-122920000D03*
X79740000Y-120380000D03*
X77200000Y-120380000D03*
X79740000Y-117840000D03*
X77200000Y-117840000D03*
X79740000Y-115300000D03*
X77200000Y-115300000D03*
X79740000Y-112760000D03*
X77200000Y-112760000D03*
X79740000Y-110220000D03*
X77200000Y-110220000D03*
X79740000Y-107680000D03*
X77200000Y-107680000D03*
X79740000Y-105140000D03*
X77200000Y-105140000D03*
X79740000Y-102600000D03*
X77200000Y-102600000D03*
X79740000Y-100060000D03*
X77200000Y-100060000D03*
X79740000Y-97520000D03*
X77200000Y-97520000D03*
X79740000Y-94980000D03*
X77200000Y-94980000D03*
X79740000Y-92440000D03*
X77200000Y-92440000D03*
X79740000Y-89900000D03*
D11*
X77200000Y-89900000D03*
D12*
X46550000Y-94700000D03*
X29050000Y-94700000D03*
X29050000Y-134700000D03*
X46550000Y-134700000D03*
D13*
X29400000Y-143000000D03*
D14*
X78400000Y-143000000D03*
X29400000Y-85000000D03*
X78400000Y-85000000D03*
D15*
G36*
X55332691Y-92871053D02*
X55353926Y-92874203D01*
X55374750Y-92879419D01*
X55394962Y-92886651D01*
X55414368Y-92895830D01*
X55432781Y-92906866D01*
X55450024Y-92919654D01*
X55465930Y-92934070D01*
X55480346Y-92949976D01*
X55493134Y-92967219D01*
X55504170Y-92985632D01*
X55513349Y-93005038D01*
X55520581Y-93025250D01*
X55525797Y-93046074D01*
X55528947Y-93067309D01*
X55530000Y-93088750D01*
X55530000Y-93601250D01*
X55528947Y-93622691D01*
X55525797Y-93643926D01*
X55520581Y-93664750D01*
X55513349Y-93684962D01*
X55504170Y-93704368D01*
X55493134Y-93722781D01*
X55480346Y-93740024D01*
X55465930Y-93755930D01*
X55450024Y-93770346D01*
X55432781Y-93783134D01*
X55414368Y-93794170D01*
X55394962Y-93803349D01*
X55374750Y-93810581D01*
X55353926Y-93815797D01*
X55332691Y-93818947D01*
X55311250Y-93820000D01*
X54873750Y-93820000D01*
X54852309Y-93818947D01*
X54831074Y-93815797D01*
X54810250Y-93810581D01*
X54790038Y-93803349D01*
X54770632Y-93794170D01*
X54752219Y-93783134D01*
X54734976Y-93770346D01*
X54719070Y-93755930D01*
X54704654Y-93740024D01*
X54691866Y-93722781D01*
X54680830Y-93704368D01*
X54671651Y-93684962D01*
X54664419Y-93664750D01*
X54659203Y-93643926D01*
X54656053Y-93622691D01*
X54655000Y-93601250D01*
X54655000Y-93088750D01*
X54656053Y-93067309D01*
X54659203Y-93046074D01*
X54664419Y-93025250D01*
X54671651Y-93005038D01*
X54680830Y-92985632D01*
X54691866Y-92967219D01*
X54704654Y-92949976D01*
X54719070Y-92934070D01*
X54734976Y-92919654D01*
X54752219Y-92906866D01*
X54770632Y-92895830D01*
X54790038Y-92886651D01*
X54810250Y-92879419D01*
X54831074Y-92874203D01*
X54852309Y-92871053D01*
X54873750Y-92870000D01*
X55311250Y-92870000D01*
X55332691Y-92871053D01*
X55332691Y-92871053D01*
G37*
D16*
X55092500Y-93345000D03*
D15*
G36*
X56907691Y-92871053D02*
X56928926Y-92874203D01*
X56949750Y-92879419D01*
X56969962Y-92886651D01*
X56989368Y-92895830D01*
X57007781Y-92906866D01*
X57025024Y-92919654D01*
X57040930Y-92934070D01*
X57055346Y-92949976D01*
X57068134Y-92967219D01*
X57079170Y-92985632D01*
X57088349Y-93005038D01*
X57095581Y-93025250D01*
X57100797Y-93046074D01*
X57103947Y-93067309D01*
X57105000Y-93088750D01*
X57105000Y-93601250D01*
X57103947Y-93622691D01*
X57100797Y-93643926D01*
X57095581Y-93664750D01*
X57088349Y-93684962D01*
X57079170Y-93704368D01*
X57068134Y-93722781D01*
X57055346Y-93740024D01*
X57040930Y-93755930D01*
X57025024Y-93770346D01*
X57007781Y-93783134D01*
X56989368Y-93794170D01*
X56969962Y-93803349D01*
X56949750Y-93810581D01*
X56928926Y-93815797D01*
X56907691Y-93818947D01*
X56886250Y-93820000D01*
X56448750Y-93820000D01*
X56427309Y-93818947D01*
X56406074Y-93815797D01*
X56385250Y-93810581D01*
X56365038Y-93803349D01*
X56345632Y-93794170D01*
X56327219Y-93783134D01*
X56309976Y-93770346D01*
X56294070Y-93755930D01*
X56279654Y-93740024D01*
X56266866Y-93722781D01*
X56255830Y-93704368D01*
X56246651Y-93684962D01*
X56239419Y-93664750D01*
X56234203Y-93643926D01*
X56231053Y-93622691D01*
X56230000Y-93601250D01*
X56230000Y-93088750D01*
X56231053Y-93067309D01*
X56234203Y-93046074D01*
X56239419Y-93025250D01*
X56246651Y-93005038D01*
X56255830Y-92985632D01*
X56266866Y-92967219D01*
X56279654Y-92949976D01*
X56294070Y-92934070D01*
X56309976Y-92919654D01*
X56327219Y-92906866D01*
X56345632Y-92895830D01*
X56365038Y-92886651D01*
X56385250Y-92879419D01*
X56406074Y-92874203D01*
X56427309Y-92871053D01*
X56448750Y-92870000D01*
X56886250Y-92870000D01*
X56907691Y-92871053D01*
X56907691Y-92871053D01*
G37*
D16*
X56667500Y-93345000D03*
D15*
G36*
X51077691Y-102281053D02*
X51098926Y-102284203D01*
X51119750Y-102289419D01*
X51139962Y-102296651D01*
X51159368Y-102305830D01*
X51177781Y-102316866D01*
X51195024Y-102329654D01*
X51210930Y-102344070D01*
X51225346Y-102359976D01*
X51238134Y-102377219D01*
X51249170Y-102395632D01*
X51258349Y-102415038D01*
X51265581Y-102435250D01*
X51270797Y-102456074D01*
X51273947Y-102477309D01*
X51275000Y-102498750D01*
X51275000Y-102936250D01*
X51273947Y-102957691D01*
X51270797Y-102978926D01*
X51265581Y-102999750D01*
X51258349Y-103019962D01*
X51249170Y-103039368D01*
X51238134Y-103057781D01*
X51225346Y-103075024D01*
X51210930Y-103090930D01*
X51195024Y-103105346D01*
X51177781Y-103118134D01*
X51159368Y-103129170D01*
X51139962Y-103138349D01*
X51119750Y-103145581D01*
X51098926Y-103150797D01*
X51077691Y-103153947D01*
X51056250Y-103155000D01*
X50543750Y-103155000D01*
X50522309Y-103153947D01*
X50501074Y-103150797D01*
X50480250Y-103145581D01*
X50460038Y-103138349D01*
X50440632Y-103129170D01*
X50422219Y-103118134D01*
X50404976Y-103105346D01*
X50389070Y-103090930D01*
X50374654Y-103075024D01*
X50361866Y-103057781D01*
X50350830Y-103039368D01*
X50341651Y-103019962D01*
X50334419Y-102999750D01*
X50329203Y-102978926D01*
X50326053Y-102957691D01*
X50325000Y-102936250D01*
X50325000Y-102498750D01*
X50326053Y-102477309D01*
X50329203Y-102456074D01*
X50334419Y-102435250D01*
X50341651Y-102415038D01*
X50350830Y-102395632D01*
X50361866Y-102377219D01*
X50374654Y-102359976D01*
X50389070Y-102344070D01*
X50404976Y-102329654D01*
X50422219Y-102316866D01*
X50440632Y-102305830D01*
X50460038Y-102296651D01*
X50480250Y-102289419D01*
X50501074Y-102284203D01*
X50522309Y-102281053D01*
X50543750Y-102280000D01*
X51056250Y-102280000D01*
X51077691Y-102281053D01*
X51077691Y-102281053D01*
G37*
D16*
X50800000Y-102717500D03*
D15*
G36*
X51077691Y-103856053D02*
X51098926Y-103859203D01*
X51119750Y-103864419D01*
X51139962Y-103871651D01*
X51159368Y-103880830D01*
X51177781Y-103891866D01*
X51195024Y-103904654D01*
X51210930Y-103919070D01*
X51225346Y-103934976D01*
X51238134Y-103952219D01*
X51249170Y-103970632D01*
X51258349Y-103990038D01*
X51265581Y-104010250D01*
X51270797Y-104031074D01*
X51273947Y-104052309D01*
X51275000Y-104073750D01*
X51275000Y-104511250D01*
X51273947Y-104532691D01*
X51270797Y-104553926D01*
X51265581Y-104574750D01*
X51258349Y-104594962D01*
X51249170Y-104614368D01*
X51238134Y-104632781D01*
X51225346Y-104650024D01*
X51210930Y-104665930D01*
X51195024Y-104680346D01*
X51177781Y-104693134D01*
X51159368Y-104704170D01*
X51139962Y-104713349D01*
X51119750Y-104720581D01*
X51098926Y-104725797D01*
X51077691Y-104728947D01*
X51056250Y-104730000D01*
X50543750Y-104730000D01*
X50522309Y-104728947D01*
X50501074Y-104725797D01*
X50480250Y-104720581D01*
X50460038Y-104713349D01*
X50440632Y-104704170D01*
X50422219Y-104693134D01*
X50404976Y-104680346D01*
X50389070Y-104665930D01*
X50374654Y-104650024D01*
X50361866Y-104632781D01*
X50350830Y-104614368D01*
X50341651Y-104594962D01*
X50334419Y-104574750D01*
X50329203Y-104553926D01*
X50326053Y-104532691D01*
X50325000Y-104511250D01*
X50325000Y-104073750D01*
X50326053Y-104052309D01*
X50329203Y-104031074D01*
X50334419Y-104010250D01*
X50341651Y-103990038D01*
X50350830Y-103970632D01*
X50361866Y-103952219D01*
X50374654Y-103934976D01*
X50389070Y-103919070D01*
X50404976Y-103904654D01*
X50422219Y-103891866D01*
X50440632Y-103880830D01*
X50460038Y-103871651D01*
X50480250Y-103864419D01*
X50501074Y-103859203D01*
X50522309Y-103856053D01*
X50543750Y-103855000D01*
X51056250Y-103855000D01*
X51077691Y-103856053D01*
X51077691Y-103856053D01*
G37*
D16*
X50800000Y-104292500D03*
D15*
G36*
X51077691Y-105456053D02*
X51098926Y-105459203D01*
X51119750Y-105464419D01*
X51139962Y-105471651D01*
X51159368Y-105480830D01*
X51177781Y-105491866D01*
X51195024Y-105504654D01*
X51210930Y-105519070D01*
X51225346Y-105534976D01*
X51238134Y-105552219D01*
X51249170Y-105570632D01*
X51258349Y-105590038D01*
X51265581Y-105610250D01*
X51270797Y-105631074D01*
X51273947Y-105652309D01*
X51275000Y-105673750D01*
X51275000Y-106111250D01*
X51273947Y-106132691D01*
X51270797Y-106153926D01*
X51265581Y-106174750D01*
X51258349Y-106194962D01*
X51249170Y-106214368D01*
X51238134Y-106232781D01*
X51225346Y-106250024D01*
X51210930Y-106265930D01*
X51195024Y-106280346D01*
X51177781Y-106293134D01*
X51159368Y-106304170D01*
X51139962Y-106313349D01*
X51119750Y-106320581D01*
X51098926Y-106325797D01*
X51077691Y-106328947D01*
X51056250Y-106330000D01*
X50543750Y-106330000D01*
X50522309Y-106328947D01*
X50501074Y-106325797D01*
X50480250Y-106320581D01*
X50460038Y-106313349D01*
X50440632Y-106304170D01*
X50422219Y-106293134D01*
X50404976Y-106280346D01*
X50389070Y-106265930D01*
X50374654Y-106250024D01*
X50361866Y-106232781D01*
X50350830Y-106214368D01*
X50341651Y-106194962D01*
X50334419Y-106174750D01*
X50329203Y-106153926D01*
X50326053Y-106132691D01*
X50325000Y-106111250D01*
X50325000Y-105673750D01*
X50326053Y-105652309D01*
X50329203Y-105631074D01*
X50334419Y-105610250D01*
X50341651Y-105590038D01*
X50350830Y-105570632D01*
X50361866Y-105552219D01*
X50374654Y-105534976D01*
X50389070Y-105519070D01*
X50404976Y-105504654D01*
X50422219Y-105491866D01*
X50440632Y-105480830D01*
X50460038Y-105471651D01*
X50480250Y-105464419D01*
X50501074Y-105459203D01*
X50522309Y-105456053D01*
X50543750Y-105455000D01*
X51056250Y-105455000D01*
X51077691Y-105456053D01*
X51077691Y-105456053D01*
G37*
D16*
X50800000Y-105892500D03*
D15*
G36*
X51077691Y-107031053D02*
X51098926Y-107034203D01*
X51119750Y-107039419D01*
X51139962Y-107046651D01*
X51159368Y-107055830D01*
X51177781Y-107066866D01*
X51195024Y-107079654D01*
X51210930Y-107094070D01*
X51225346Y-107109976D01*
X51238134Y-107127219D01*
X51249170Y-107145632D01*
X51258349Y-107165038D01*
X51265581Y-107185250D01*
X51270797Y-107206074D01*
X51273947Y-107227309D01*
X51275000Y-107248750D01*
X51275000Y-107686250D01*
X51273947Y-107707691D01*
X51270797Y-107728926D01*
X51265581Y-107749750D01*
X51258349Y-107769962D01*
X51249170Y-107789368D01*
X51238134Y-107807781D01*
X51225346Y-107825024D01*
X51210930Y-107840930D01*
X51195024Y-107855346D01*
X51177781Y-107868134D01*
X51159368Y-107879170D01*
X51139962Y-107888349D01*
X51119750Y-107895581D01*
X51098926Y-107900797D01*
X51077691Y-107903947D01*
X51056250Y-107905000D01*
X50543750Y-107905000D01*
X50522309Y-107903947D01*
X50501074Y-107900797D01*
X50480250Y-107895581D01*
X50460038Y-107888349D01*
X50440632Y-107879170D01*
X50422219Y-107868134D01*
X50404976Y-107855346D01*
X50389070Y-107840930D01*
X50374654Y-107825024D01*
X50361866Y-107807781D01*
X50350830Y-107789368D01*
X50341651Y-107769962D01*
X50334419Y-107749750D01*
X50329203Y-107728926D01*
X50326053Y-107707691D01*
X50325000Y-107686250D01*
X50325000Y-107248750D01*
X50326053Y-107227309D01*
X50329203Y-107206074D01*
X50334419Y-107185250D01*
X50341651Y-107165038D01*
X50350830Y-107145632D01*
X50361866Y-107127219D01*
X50374654Y-107109976D01*
X50389070Y-107094070D01*
X50404976Y-107079654D01*
X50422219Y-107066866D01*
X50440632Y-107055830D01*
X50460038Y-107046651D01*
X50480250Y-107039419D01*
X50501074Y-107034203D01*
X50522309Y-107031053D01*
X50543750Y-107030000D01*
X51056250Y-107030000D01*
X51077691Y-107031053D01*
X51077691Y-107031053D01*
G37*
D16*
X50800000Y-107467500D03*
D15*
G36*
X72667691Y-102916053D02*
X72688926Y-102919203D01*
X72709750Y-102924419D01*
X72729962Y-102931651D01*
X72749368Y-102940830D01*
X72767781Y-102951866D01*
X72785024Y-102964654D01*
X72800930Y-102979070D01*
X72815346Y-102994976D01*
X72828134Y-103012219D01*
X72839170Y-103030632D01*
X72848349Y-103050038D01*
X72855581Y-103070250D01*
X72860797Y-103091074D01*
X72863947Y-103112309D01*
X72865000Y-103133750D01*
X72865000Y-103571250D01*
X72863947Y-103592691D01*
X72860797Y-103613926D01*
X72855581Y-103634750D01*
X72848349Y-103654962D01*
X72839170Y-103674368D01*
X72828134Y-103692781D01*
X72815346Y-103710024D01*
X72800930Y-103725930D01*
X72785024Y-103740346D01*
X72767781Y-103753134D01*
X72749368Y-103764170D01*
X72729962Y-103773349D01*
X72709750Y-103780581D01*
X72688926Y-103785797D01*
X72667691Y-103788947D01*
X72646250Y-103790000D01*
X72133750Y-103790000D01*
X72112309Y-103788947D01*
X72091074Y-103785797D01*
X72070250Y-103780581D01*
X72050038Y-103773349D01*
X72030632Y-103764170D01*
X72012219Y-103753134D01*
X71994976Y-103740346D01*
X71979070Y-103725930D01*
X71964654Y-103710024D01*
X71951866Y-103692781D01*
X71940830Y-103674368D01*
X71931651Y-103654962D01*
X71924419Y-103634750D01*
X71919203Y-103613926D01*
X71916053Y-103592691D01*
X71915000Y-103571250D01*
X71915000Y-103133750D01*
X71916053Y-103112309D01*
X71919203Y-103091074D01*
X71924419Y-103070250D01*
X71931651Y-103050038D01*
X71940830Y-103030632D01*
X71951866Y-103012219D01*
X71964654Y-102994976D01*
X71979070Y-102979070D01*
X71994976Y-102964654D01*
X72012219Y-102951866D01*
X72030632Y-102940830D01*
X72050038Y-102931651D01*
X72070250Y-102924419D01*
X72091074Y-102919203D01*
X72112309Y-102916053D01*
X72133750Y-102915000D01*
X72646250Y-102915000D01*
X72667691Y-102916053D01*
X72667691Y-102916053D01*
G37*
D16*
X72390000Y-103352500D03*
D15*
G36*
X72667691Y-104491053D02*
X72688926Y-104494203D01*
X72709750Y-104499419D01*
X72729962Y-104506651D01*
X72749368Y-104515830D01*
X72767781Y-104526866D01*
X72785024Y-104539654D01*
X72800930Y-104554070D01*
X72815346Y-104569976D01*
X72828134Y-104587219D01*
X72839170Y-104605632D01*
X72848349Y-104625038D01*
X72855581Y-104645250D01*
X72860797Y-104666074D01*
X72863947Y-104687309D01*
X72865000Y-104708750D01*
X72865000Y-105146250D01*
X72863947Y-105167691D01*
X72860797Y-105188926D01*
X72855581Y-105209750D01*
X72848349Y-105229962D01*
X72839170Y-105249368D01*
X72828134Y-105267781D01*
X72815346Y-105285024D01*
X72800930Y-105300930D01*
X72785024Y-105315346D01*
X72767781Y-105328134D01*
X72749368Y-105339170D01*
X72729962Y-105348349D01*
X72709750Y-105355581D01*
X72688926Y-105360797D01*
X72667691Y-105363947D01*
X72646250Y-105365000D01*
X72133750Y-105365000D01*
X72112309Y-105363947D01*
X72091074Y-105360797D01*
X72070250Y-105355581D01*
X72050038Y-105348349D01*
X72030632Y-105339170D01*
X72012219Y-105328134D01*
X71994976Y-105315346D01*
X71979070Y-105300930D01*
X71964654Y-105285024D01*
X71951866Y-105267781D01*
X71940830Y-105249368D01*
X71931651Y-105229962D01*
X71924419Y-105209750D01*
X71919203Y-105188926D01*
X71916053Y-105167691D01*
X71915000Y-105146250D01*
X71915000Y-104708750D01*
X71916053Y-104687309D01*
X71919203Y-104666074D01*
X71924419Y-104645250D01*
X71931651Y-104625038D01*
X71940830Y-104605632D01*
X71951866Y-104587219D01*
X71964654Y-104569976D01*
X71979070Y-104554070D01*
X71994976Y-104539654D01*
X72012219Y-104526866D01*
X72030632Y-104515830D01*
X72050038Y-104506651D01*
X72070250Y-104499419D01*
X72091074Y-104494203D01*
X72112309Y-104491053D01*
X72133750Y-104490000D01*
X72646250Y-104490000D01*
X72667691Y-104491053D01*
X72667691Y-104491053D01*
G37*
D16*
X72390000Y-104927500D03*
D15*
G36*
X65492691Y-124621053D02*
X65513926Y-124624203D01*
X65534750Y-124629419D01*
X65554962Y-124636651D01*
X65574368Y-124645830D01*
X65592781Y-124656866D01*
X65610024Y-124669654D01*
X65625930Y-124684070D01*
X65640346Y-124699976D01*
X65653134Y-124717219D01*
X65664170Y-124735632D01*
X65673349Y-124755038D01*
X65680581Y-124775250D01*
X65685797Y-124796074D01*
X65688947Y-124817309D01*
X65690000Y-124838750D01*
X65690000Y-125351250D01*
X65688947Y-125372691D01*
X65685797Y-125393926D01*
X65680581Y-125414750D01*
X65673349Y-125434962D01*
X65664170Y-125454368D01*
X65653134Y-125472781D01*
X65640346Y-125490024D01*
X65625930Y-125505930D01*
X65610024Y-125520346D01*
X65592781Y-125533134D01*
X65574368Y-125544170D01*
X65554962Y-125553349D01*
X65534750Y-125560581D01*
X65513926Y-125565797D01*
X65492691Y-125568947D01*
X65471250Y-125570000D01*
X65033750Y-125570000D01*
X65012309Y-125568947D01*
X64991074Y-125565797D01*
X64970250Y-125560581D01*
X64950038Y-125553349D01*
X64930632Y-125544170D01*
X64912219Y-125533134D01*
X64894976Y-125520346D01*
X64879070Y-125505930D01*
X64864654Y-125490024D01*
X64851866Y-125472781D01*
X64840830Y-125454368D01*
X64831651Y-125434962D01*
X64824419Y-125414750D01*
X64819203Y-125393926D01*
X64816053Y-125372691D01*
X64815000Y-125351250D01*
X64815000Y-124838750D01*
X64816053Y-124817309D01*
X64819203Y-124796074D01*
X64824419Y-124775250D01*
X64831651Y-124755038D01*
X64840830Y-124735632D01*
X64851866Y-124717219D01*
X64864654Y-124699976D01*
X64879070Y-124684070D01*
X64894976Y-124669654D01*
X64912219Y-124656866D01*
X64930632Y-124645830D01*
X64950038Y-124636651D01*
X64970250Y-124629419D01*
X64991074Y-124624203D01*
X65012309Y-124621053D01*
X65033750Y-124620000D01*
X65471250Y-124620000D01*
X65492691Y-124621053D01*
X65492691Y-124621053D01*
G37*
D16*
X65252500Y-125095000D03*
D15*
G36*
X67067691Y-124621053D02*
X67088926Y-124624203D01*
X67109750Y-124629419D01*
X67129962Y-124636651D01*
X67149368Y-124645830D01*
X67167781Y-124656866D01*
X67185024Y-124669654D01*
X67200930Y-124684070D01*
X67215346Y-124699976D01*
X67228134Y-124717219D01*
X67239170Y-124735632D01*
X67248349Y-124755038D01*
X67255581Y-124775250D01*
X67260797Y-124796074D01*
X67263947Y-124817309D01*
X67265000Y-124838750D01*
X67265000Y-125351250D01*
X67263947Y-125372691D01*
X67260797Y-125393926D01*
X67255581Y-125414750D01*
X67248349Y-125434962D01*
X67239170Y-125454368D01*
X67228134Y-125472781D01*
X67215346Y-125490024D01*
X67200930Y-125505930D01*
X67185024Y-125520346D01*
X67167781Y-125533134D01*
X67149368Y-125544170D01*
X67129962Y-125553349D01*
X67109750Y-125560581D01*
X67088926Y-125565797D01*
X67067691Y-125568947D01*
X67046250Y-125570000D01*
X66608750Y-125570000D01*
X66587309Y-125568947D01*
X66566074Y-125565797D01*
X66545250Y-125560581D01*
X66525038Y-125553349D01*
X66505632Y-125544170D01*
X66487219Y-125533134D01*
X66469976Y-125520346D01*
X66454070Y-125505930D01*
X66439654Y-125490024D01*
X66426866Y-125472781D01*
X66415830Y-125454368D01*
X66406651Y-125434962D01*
X66399419Y-125414750D01*
X66394203Y-125393926D01*
X66391053Y-125372691D01*
X66390000Y-125351250D01*
X66390000Y-124838750D01*
X66391053Y-124817309D01*
X66394203Y-124796074D01*
X66399419Y-124775250D01*
X66406651Y-124755038D01*
X66415830Y-124735632D01*
X66426866Y-124717219D01*
X66439654Y-124699976D01*
X66454070Y-124684070D01*
X66469976Y-124669654D01*
X66487219Y-124656866D01*
X66505632Y-124645830D01*
X66525038Y-124636651D01*
X66545250Y-124629419D01*
X66566074Y-124624203D01*
X66587309Y-124621053D01*
X66608750Y-124620000D01*
X67046250Y-124620000D01*
X67067691Y-124621053D01*
X67067691Y-124621053D01*
G37*
D16*
X66827500Y-125095000D03*
D15*
G36*
X52792691Y-95411053D02*
X52813926Y-95414203D01*
X52834750Y-95419419D01*
X52854962Y-95426651D01*
X52874368Y-95435830D01*
X52892781Y-95446866D01*
X52910024Y-95459654D01*
X52925930Y-95474070D01*
X52940346Y-95489976D01*
X52953134Y-95507219D01*
X52964170Y-95525632D01*
X52973349Y-95545038D01*
X52980581Y-95565250D01*
X52985797Y-95586074D01*
X52988947Y-95607309D01*
X52990000Y-95628750D01*
X52990000Y-96141250D01*
X52988947Y-96162691D01*
X52985797Y-96183926D01*
X52980581Y-96204750D01*
X52973349Y-96224962D01*
X52964170Y-96244368D01*
X52953134Y-96262781D01*
X52940346Y-96280024D01*
X52925930Y-96295930D01*
X52910024Y-96310346D01*
X52892781Y-96323134D01*
X52874368Y-96334170D01*
X52854962Y-96343349D01*
X52834750Y-96350581D01*
X52813926Y-96355797D01*
X52792691Y-96358947D01*
X52771250Y-96360000D01*
X52333750Y-96360000D01*
X52312309Y-96358947D01*
X52291074Y-96355797D01*
X52270250Y-96350581D01*
X52250038Y-96343349D01*
X52230632Y-96334170D01*
X52212219Y-96323134D01*
X52194976Y-96310346D01*
X52179070Y-96295930D01*
X52164654Y-96280024D01*
X52151866Y-96262781D01*
X52140830Y-96244368D01*
X52131651Y-96224962D01*
X52124419Y-96204750D01*
X52119203Y-96183926D01*
X52116053Y-96162691D01*
X52115000Y-96141250D01*
X52115000Y-95628750D01*
X52116053Y-95607309D01*
X52119203Y-95586074D01*
X52124419Y-95565250D01*
X52131651Y-95545038D01*
X52140830Y-95525632D01*
X52151866Y-95507219D01*
X52164654Y-95489976D01*
X52179070Y-95474070D01*
X52194976Y-95459654D01*
X52212219Y-95446866D01*
X52230632Y-95435830D01*
X52250038Y-95426651D01*
X52270250Y-95419419D01*
X52291074Y-95414203D01*
X52312309Y-95411053D01*
X52333750Y-95410000D01*
X52771250Y-95410000D01*
X52792691Y-95411053D01*
X52792691Y-95411053D01*
G37*
D16*
X52552500Y-95885000D03*
D15*
G36*
X54367691Y-95411053D02*
X54388926Y-95414203D01*
X54409750Y-95419419D01*
X54429962Y-95426651D01*
X54449368Y-95435830D01*
X54467781Y-95446866D01*
X54485024Y-95459654D01*
X54500930Y-95474070D01*
X54515346Y-95489976D01*
X54528134Y-95507219D01*
X54539170Y-95525632D01*
X54548349Y-95545038D01*
X54555581Y-95565250D01*
X54560797Y-95586074D01*
X54563947Y-95607309D01*
X54565000Y-95628750D01*
X54565000Y-96141250D01*
X54563947Y-96162691D01*
X54560797Y-96183926D01*
X54555581Y-96204750D01*
X54548349Y-96224962D01*
X54539170Y-96244368D01*
X54528134Y-96262781D01*
X54515346Y-96280024D01*
X54500930Y-96295930D01*
X54485024Y-96310346D01*
X54467781Y-96323134D01*
X54449368Y-96334170D01*
X54429962Y-96343349D01*
X54409750Y-96350581D01*
X54388926Y-96355797D01*
X54367691Y-96358947D01*
X54346250Y-96360000D01*
X53908750Y-96360000D01*
X53887309Y-96358947D01*
X53866074Y-96355797D01*
X53845250Y-96350581D01*
X53825038Y-96343349D01*
X53805632Y-96334170D01*
X53787219Y-96323134D01*
X53769976Y-96310346D01*
X53754070Y-96295930D01*
X53739654Y-96280024D01*
X53726866Y-96262781D01*
X53715830Y-96244368D01*
X53706651Y-96224962D01*
X53699419Y-96204750D01*
X53694203Y-96183926D01*
X53691053Y-96162691D01*
X53690000Y-96141250D01*
X53690000Y-95628750D01*
X53691053Y-95607309D01*
X53694203Y-95586074D01*
X53699419Y-95565250D01*
X53706651Y-95545038D01*
X53715830Y-95525632D01*
X53726866Y-95507219D01*
X53739654Y-95489976D01*
X53754070Y-95474070D01*
X53769976Y-95459654D01*
X53787219Y-95446866D01*
X53805632Y-95435830D01*
X53825038Y-95426651D01*
X53845250Y-95419419D01*
X53866074Y-95414203D01*
X53887309Y-95411053D01*
X53908750Y-95410000D01*
X54346250Y-95410000D01*
X54367691Y-95411053D01*
X54367691Y-95411053D01*
G37*
D16*
X54127500Y-95885000D03*
D15*
G36*
X72147691Y-121446053D02*
X72168926Y-121449203D01*
X72189750Y-121454419D01*
X72209962Y-121461651D01*
X72229368Y-121470830D01*
X72247781Y-121481866D01*
X72265024Y-121494654D01*
X72280930Y-121509070D01*
X72295346Y-121524976D01*
X72308134Y-121542219D01*
X72319170Y-121560632D01*
X72328349Y-121580038D01*
X72335581Y-121600250D01*
X72340797Y-121621074D01*
X72343947Y-121642309D01*
X72345000Y-121663750D01*
X72345000Y-122176250D01*
X72343947Y-122197691D01*
X72340797Y-122218926D01*
X72335581Y-122239750D01*
X72328349Y-122259962D01*
X72319170Y-122279368D01*
X72308134Y-122297781D01*
X72295346Y-122315024D01*
X72280930Y-122330930D01*
X72265024Y-122345346D01*
X72247781Y-122358134D01*
X72229368Y-122369170D01*
X72209962Y-122378349D01*
X72189750Y-122385581D01*
X72168926Y-122390797D01*
X72147691Y-122393947D01*
X72126250Y-122395000D01*
X71688750Y-122395000D01*
X71667309Y-122393947D01*
X71646074Y-122390797D01*
X71625250Y-122385581D01*
X71605038Y-122378349D01*
X71585632Y-122369170D01*
X71567219Y-122358134D01*
X71549976Y-122345346D01*
X71534070Y-122330930D01*
X71519654Y-122315024D01*
X71506866Y-122297781D01*
X71495830Y-122279368D01*
X71486651Y-122259962D01*
X71479419Y-122239750D01*
X71474203Y-122218926D01*
X71471053Y-122197691D01*
X71470000Y-122176250D01*
X71470000Y-121663750D01*
X71471053Y-121642309D01*
X71474203Y-121621074D01*
X71479419Y-121600250D01*
X71486651Y-121580038D01*
X71495830Y-121560632D01*
X71506866Y-121542219D01*
X71519654Y-121524976D01*
X71534070Y-121509070D01*
X71549976Y-121494654D01*
X71567219Y-121481866D01*
X71585632Y-121470830D01*
X71605038Y-121461651D01*
X71625250Y-121454419D01*
X71646074Y-121449203D01*
X71667309Y-121446053D01*
X71688750Y-121445000D01*
X72126250Y-121445000D01*
X72147691Y-121446053D01*
X72147691Y-121446053D01*
G37*
D16*
X71907500Y-121920000D03*
D15*
G36*
X70572691Y-121446053D02*
X70593926Y-121449203D01*
X70614750Y-121454419D01*
X70634962Y-121461651D01*
X70654368Y-121470830D01*
X70672781Y-121481866D01*
X70690024Y-121494654D01*
X70705930Y-121509070D01*
X70720346Y-121524976D01*
X70733134Y-121542219D01*
X70744170Y-121560632D01*
X70753349Y-121580038D01*
X70760581Y-121600250D01*
X70765797Y-121621074D01*
X70768947Y-121642309D01*
X70770000Y-121663750D01*
X70770000Y-122176250D01*
X70768947Y-122197691D01*
X70765797Y-122218926D01*
X70760581Y-122239750D01*
X70753349Y-122259962D01*
X70744170Y-122279368D01*
X70733134Y-122297781D01*
X70720346Y-122315024D01*
X70705930Y-122330930D01*
X70690024Y-122345346D01*
X70672781Y-122358134D01*
X70654368Y-122369170D01*
X70634962Y-122378349D01*
X70614750Y-122385581D01*
X70593926Y-122390797D01*
X70572691Y-122393947D01*
X70551250Y-122395000D01*
X70113750Y-122395000D01*
X70092309Y-122393947D01*
X70071074Y-122390797D01*
X70050250Y-122385581D01*
X70030038Y-122378349D01*
X70010632Y-122369170D01*
X69992219Y-122358134D01*
X69974976Y-122345346D01*
X69959070Y-122330930D01*
X69944654Y-122315024D01*
X69931866Y-122297781D01*
X69920830Y-122279368D01*
X69911651Y-122259962D01*
X69904419Y-122239750D01*
X69899203Y-122218926D01*
X69896053Y-122197691D01*
X69895000Y-122176250D01*
X69895000Y-121663750D01*
X69896053Y-121642309D01*
X69899203Y-121621074D01*
X69904419Y-121600250D01*
X69911651Y-121580038D01*
X69920830Y-121560632D01*
X69931866Y-121542219D01*
X69944654Y-121524976D01*
X69959070Y-121509070D01*
X69974976Y-121494654D01*
X69992219Y-121481866D01*
X70010632Y-121470830D01*
X70030038Y-121461651D01*
X70050250Y-121454419D01*
X70071074Y-121449203D01*
X70092309Y-121446053D01*
X70113750Y-121445000D01*
X70551250Y-121445000D01*
X70572691Y-121446053D01*
X70572691Y-121446053D01*
G37*
D16*
X70332500Y-121920000D03*
D17*
X66040000Y-114950000D03*
X66040000Y-120000000D03*
X63500000Y-114950000D03*
X63500000Y-120000000D03*
X60960000Y-114950000D03*
X60960000Y-120000000D03*
X54610000Y-140320000D03*
X54610000Y-135270000D03*
X57150000Y-140320000D03*
X57150000Y-135270000D03*
X59690000Y-140320000D03*
X59690000Y-135270000D03*
D18*
X72390000Y-139065000D03*
X69850000Y-139065000D03*
D19*
X67310000Y-139065000D03*
D15*
G36*
X67067691Y-127161053D02*
X67088926Y-127164203D01*
X67109750Y-127169419D01*
X67129962Y-127176651D01*
X67149368Y-127185830D01*
X67167781Y-127196866D01*
X67185024Y-127209654D01*
X67200930Y-127224070D01*
X67215346Y-127239976D01*
X67228134Y-127257219D01*
X67239170Y-127275632D01*
X67248349Y-127295038D01*
X67255581Y-127315250D01*
X67260797Y-127336074D01*
X67263947Y-127357309D01*
X67265000Y-127378750D01*
X67265000Y-127891250D01*
X67263947Y-127912691D01*
X67260797Y-127933926D01*
X67255581Y-127954750D01*
X67248349Y-127974962D01*
X67239170Y-127994368D01*
X67228134Y-128012781D01*
X67215346Y-128030024D01*
X67200930Y-128045930D01*
X67185024Y-128060346D01*
X67167781Y-128073134D01*
X67149368Y-128084170D01*
X67129962Y-128093349D01*
X67109750Y-128100581D01*
X67088926Y-128105797D01*
X67067691Y-128108947D01*
X67046250Y-128110000D01*
X66608750Y-128110000D01*
X66587309Y-128108947D01*
X66566074Y-128105797D01*
X66545250Y-128100581D01*
X66525038Y-128093349D01*
X66505632Y-128084170D01*
X66487219Y-128073134D01*
X66469976Y-128060346D01*
X66454070Y-128045930D01*
X66439654Y-128030024D01*
X66426866Y-128012781D01*
X66415830Y-127994368D01*
X66406651Y-127974962D01*
X66399419Y-127954750D01*
X66394203Y-127933926D01*
X66391053Y-127912691D01*
X66390000Y-127891250D01*
X66390000Y-127378750D01*
X66391053Y-127357309D01*
X66394203Y-127336074D01*
X66399419Y-127315250D01*
X66406651Y-127295038D01*
X66415830Y-127275632D01*
X66426866Y-127257219D01*
X66439654Y-127239976D01*
X66454070Y-127224070D01*
X66469976Y-127209654D01*
X66487219Y-127196866D01*
X66505632Y-127185830D01*
X66525038Y-127176651D01*
X66545250Y-127169419D01*
X66566074Y-127164203D01*
X66587309Y-127161053D01*
X66608750Y-127160000D01*
X67046250Y-127160000D01*
X67067691Y-127161053D01*
X67067691Y-127161053D01*
G37*
D16*
X66827500Y-127635000D03*
D15*
G36*
X65492691Y-127161053D02*
X65513926Y-127164203D01*
X65534750Y-127169419D01*
X65554962Y-127176651D01*
X65574368Y-127185830D01*
X65592781Y-127196866D01*
X65610024Y-127209654D01*
X65625930Y-127224070D01*
X65640346Y-127239976D01*
X65653134Y-127257219D01*
X65664170Y-127275632D01*
X65673349Y-127295038D01*
X65680581Y-127315250D01*
X65685797Y-127336074D01*
X65688947Y-127357309D01*
X65690000Y-127378750D01*
X65690000Y-127891250D01*
X65688947Y-127912691D01*
X65685797Y-127933926D01*
X65680581Y-127954750D01*
X65673349Y-127974962D01*
X65664170Y-127994368D01*
X65653134Y-128012781D01*
X65640346Y-128030024D01*
X65625930Y-128045930D01*
X65610024Y-128060346D01*
X65592781Y-128073134D01*
X65574368Y-128084170D01*
X65554962Y-128093349D01*
X65534750Y-128100581D01*
X65513926Y-128105797D01*
X65492691Y-128108947D01*
X65471250Y-128110000D01*
X65033750Y-128110000D01*
X65012309Y-128108947D01*
X64991074Y-128105797D01*
X64970250Y-128100581D01*
X64950038Y-128093349D01*
X64930632Y-128084170D01*
X64912219Y-128073134D01*
X64894976Y-128060346D01*
X64879070Y-128045930D01*
X64864654Y-128030024D01*
X64851866Y-128012781D01*
X64840830Y-127994368D01*
X64831651Y-127974962D01*
X64824419Y-127954750D01*
X64819203Y-127933926D01*
X64816053Y-127912691D01*
X64815000Y-127891250D01*
X64815000Y-127378750D01*
X64816053Y-127357309D01*
X64819203Y-127336074D01*
X64824419Y-127315250D01*
X64831651Y-127295038D01*
X64840830Y-127275632D01*
X64851866Y-127257219D01*
X64864654Y-127239976D01*
X64879070Y-127224070D01*
X64894976Y-127209654D01*
X64912219Y-127196866D01*
X64930632Y-127185830D01*
X64950038Y-127176651D01*
X64970250Y-127169419D01*
X64991074Y-127164203D01*
X65012309Y-127161053D01*
X65033750Y-127160000D01*
X65471250Y-127160000D01*
X65492691Y-127161053D01*
X65492691Y-127161053D01*
G37*
D16*
X65252500Y-127635000D03*
D15*
G36*
X63257691Y-129701053D02*
X63278926Y-129704203D01*
X63299750Y-129709419D01*
X63319962Y-129716651D01*
X63339368Y-129725830D01*
X63357781Y-129736866D01*
X63375024Y-129749654D01*
X63390930Y-129764070D01*
X63405346Y-129779976D01*
X63418134Y-129797219D01*
X63429170Y-129815632D01*
X63438349Y-129835038D01*
X63445581Y-129855250D01*
X63450797Y-129876074D01*
X63453947Y-129897309D01*
X63455000Y-129918750D01*
X63455000Y-130431250D01*
X63453947Y-130452691D01*
X63450797Y-130473926D01*
X63445581Y-130494750D01*
X63438349Y-130514962D01*
X63429170Y-130534368D01*
X63418134Y-130552781D01*
X63405346Y-130570024D01*
X63390930Y-130585930D01*
X63375024Y-130600346D01*
X63357781Y-130613134D01*
X63339368Y-130624170D01*
X63319962Y-130633349D01*
X63299750Y-130640581D01*
X63278926Y-130645797D01*
X63257691Y-130648947D01*
X63236250Y-130650000D01*
X62798750Y-130650000D01*
X62777309Y-130648947D01*
X62756074Y-130645797D01*
X62735250Y-130640581D01*
X62715038Y-130633349D01*
X62695632Y-130624170D01*
X62677219Y-130613134D01*
X62659976Y-130600346D01*
X62644070Y-130585930D01*
X62629654Y-130570024D01*
X62616866Y-130552781D01*
X62605830Y-130534368D01*
X62596651Y-130514962D01*
X62589419Y-130494750D01*
X62584203Y-130473926D01*
X62581053Y-130452691D01*
X62580000Y-130431250D01*
X62580000Y-129918750D01*
X62581053Y-129897309D01*
X62584203Y-129876074D01*
X62589419Y-129855250D01*
X62596651Y-129835038D01*
X62605830Y-129815632D01*
X62616866Y-129797219D01*
X62629654Y-129779976D01*
X62644070Y-129764070D01*
X62659976Y-129749654D01*
X62677219Y-129736866D01*
X62695632Y-129725830D01*
X62715038Y-129716651D01*
X62735250Y-129709419D01*
X62756074Y-129704203D01*
X62777309Y-129701053D01*
X62798750Y-129700000D01*
X63236250Y-129700000D01*
X63257691Y-129701053D01*
X63257691Y-129701053D01*
G37*
D16*
X63017500Y-130175000D03*
D15*
G36*
X61682691Y-129701053D02*
X61703926Y-129704203D01*
X61724750Y-129709419D01*
X61744962Y-129716651D01*
X61764368Y-129725830D01*
X61782781Y-129736866D01*
X61800024Y-129749654D01*
X61815930Y-129764070D01*
X61830346Y-129779976D01*
X61843134Y-129797219D01*
X61854170Y-129815632D01*
X61863349Y-129835038D01*
X61870581Y-129855250D01*
X61875797Y-129876074D01*
X61878947Y-129897309D01*
X61880000Y-129918750D01*
X61880000Y-130431250D01*
X61878947Y-130452691D01*
X61875797Y-130473926D01*
X61870581Y-130494750D01*
X61863349Y-130514962D01*
X61854170Y-130534368D01*
X61843134Y-130552781D01*
X61830346Y-130570024D01*
X61815930Y-130585930D01*
X61800024Y-130600346D01*
X61782781Y-130613134D01*
X61764368Y-130624170D01*
X61744962Y-130633349D01*
X61724750Y-130640581D01*
X61703926Y-130645797D01*
X61682691Y-130648947D01*
X61661250Y-130650000D01*
X61223750Y-130650000D01*
X61202309Y-130648947D01*
X61181074Y-130645797D01*
X61160250Y-130640581D01*
X61140038Y-130633349D01*
X61120632Y-130624170D01*
X61102219Y-130613134D01*
X61084976Y-130600346D01*
X61069070Y-130585930D01*
X61054654Y-130570024D01*
X61041866Y-130552781D01*
X61030830Y-130534368D01*
X61021651Y-130514962D01*
X61014419Y-130494750D01*
X61009203Y-130473926D01*
X61006053Y-130452691D01*
X61005000Y-130431250D01*
X61005000Y-129918750D01*
X61006053Y-129897309D01*
X61009203Y-129876074D01*
X61014419Y-129855250D01*
X61021651Y-129835038D01*
X61030830Y-129815632D01*
X61041866Y-129797219D01*
X61054654Y-129779976D01*
X61069070Y-129764070D01*
X61084976Y-129749654D01*
X61102219Y-129736866D01*
X61120632Y-129725830D01*
X61140038Y-129716651D01*
X61160250Y-129709419D01*
X61181074Y-129704203D01*
X61202309Y-129701053D01*
X61223750Y-129700000D01*
X61661250Y-129700000D01*
X61682691Y-129701053D01*
X61682691Y-129701053D01*
G37*
D16*
X61442500Y-130175000D03*
D15*
G36*
X63257691Y-94776053D02*
X63278926Y-94779203D01*
X63299750Y-94784419D01*
X63319962Y-94791651D01*
X63339368Y-94800830D01*
X63357781Y-94811866D01*
X63375024Y-94824654D01*
X63390930Y-94839070D01*
X63405346Y-94854976D01*
X63418134Y-94872219D01*
X63429170Y-94890632D01*
X63438349Y-94910038D01*
X63445581Y-94930250D01*
X63450797Y-94951074D01*
X63453947Y-94972309D01*
X63455000Y-94993750D01*
X63455000Y-95506250D01*
X63453947Y-95527691D01*
X63450797Y-95548926D01*
X63445581Y-95569750D01*
X63438349Y-95589962D01*
X63429170Y-95609368D01*
X63418134Y-95627781D01*
X63405346Y-95645024D01*
X63390930Y-95660930D01*
X63375024Y-95675346D01*
X63357781Y-95688134D01*
X63339368Y-95699170D01*
X63319962Y-95708349D01*
X63299750Y-95715581D01*
X63278926Y-95720797D01*
X63257691Y-95723947D01*
X63236250Y-95725000D01*
X62798750Y-95725000D01*
X62777309Y-95723947D01*
X62756074Y-95720797D01*
X62735250Y-95715581D01*
X62715038Y-95708349D01*
X62695632Y-95699170D01*
X62677219Y-95688134D01*
X62659976Y-95675346D01*
X62644070Y-95660930D01*
X62629654Y-95645024D01*
X62616866Y-95627781D01*
X62605830Y-95609368D01*
X62596651Y-95589962D01*
X62589419Y-95569750D01*
X62584203Y-95548926D01*
X62581053Y-95527691D01*
X62580000Y-95506250D01*
X62580000Y-94993750D01*
X62581053Y-94972309D01*
X62584203Y-94951074D01*
X62589419Y-94930250D01*
X62596651Y-94910038D01*
X62605830Y-94890632D01*
X62616866Y-94872219D01*
X62629654Y-94854976D01*
X62644070Y-94839070D01*
X62659976Y-94824654D01*
X62677219Y-94811866D01*
X62695632Y-94800830D01*
X62715038Y-94791651D01*
X62735250Y-94784419D01*
X62756074Y-94779203D01*
X62777309Y-94776053D01*
X62798750Y-94775000D01*
X63236250Y-94775000D01*
X63257691Y-94776053D01*
X63257691Y-94776053D01*
G37*
D16*
X63017500Y-95250000D03*
D15*
G36*
X61682691Y-94776053D02*
X61703926Y-94779203D01*
X61724750Y-94784419D01*
X61744962Y-94791651D01*
X61764368Y-94800830D01*
X61782781Y-94811866D01*
X61800024Y-94824654D01*
X61815930Y-94839070D01*
X61830346Y-94854976D01*
X61843134Y-94872219D01*
X61854170Y-94890632D01*
X61863349Y-94910038D01*
X61870581Y-94930250D01*
X61875797Y-94951074D01*
X61878947Y-94972309D01*
X61880000Y-94993750D01*
X61880000Y-95506250D01*
X61878947Y-95527691D01*
X61875797Y-95548926D01*
X61870581Y-95569750D01*
X61863349Y-95589962D01*
X61854170Y-95609368D01*
X61843134Y-95627781D01*
X61830346Y-95645024D01*
X61815930Y-95660930D01*
X61800024Y-95675346D01*
X61782781Y-95688134D01*
X61764368Y-95699170D01*
X61744962Y-95708349D01*
X61724750Y-95715581D01*
X61703926Y-95720797D01*
X61682691Y-95723947D01*
X61661250Y-95725000D01*
X61223750Y-95725000D01*
X61202309Y-95723947D01*
X61181074Y-95720797D01*
X61160250Y-95715581D01*
X61140038Y-95708349D01*
X61120632Y-95699170D01*
X61102219Y-95688134D01*
X61084976Y-95675346D01*
X61069070Y-95660930D01*
X61054654Y-95645024D01*
X61041866Y-95627781D01*
X61030830Y-95609368D01*
X61021651Y-95589962D01*
X61014419Y-95569750D01*
X61009203Y-95548926D01*
X61006053Y-95527691D01*
X61005000Y-95506250D01*
X61005000Y-94993750D01*
X61006053Y-94972309D01*
X61009203Y-94951074D01*
X61014419Y-94930250D01*
X61021651Y-94910038D01*
X61030830Y-94890632D01*
X61041866Y-94872219D01*
X61054654Y-94854976D01*
X61069070Y-94839070D01*
X61084976Y-94824654D01*
X61102219Y-94811866D01*
X61120632Y-94800830D01*
X61140038Y-94791651D01*
X61160250Y-94784419D01*
X61181074Y-94779203D01*
X61202309Y-94776053D01*
X61223750Y-94775000D01*
X61661250Y-94775000D01*
X61682691Y-94776053D01*
X61682691Y-94776053D01*
G37*
D16*
X61442500Y-95250000D03*
D15*
G36*
X63257691Y-92871053D02*
X63278926Y-92874203D01*
X63299750Y-92879419D01*
X63319962Y-92886651D01*
X63339368Y-92895830D01*
X63357781Y-92906866D01*
X63375024Y-92919654D01*
X63390930Y-92934070D01*
X63405346Y-92949976D01*
X63418134Y-92967219D01*
X63429170Y-92985632D01*
X63438349Y-93005038D01*
X63445581Y-93025250D01*
X63450797Y-93046074D01*
X63453947Y-93067309D01*
X63455000Y-93088750D01*
X63455000Y-93601250D01*
X63453947Y-93622691D01*
X63450797Y-93643926D01*
X63445581Y-93664750D01*
X63438349Y-93684962D01*
X63429170Y-93704368D01*
X63418134Y-93722781D01*
X63405346Y-93740024D01*
X63390930Y-93755930D01*
X63375024Y-93770346D01*
X63357781Y-93783134D01*
X63339368Y-93794170D01*
X63319962Y-93803349D01*
X63299750Y-93810581D01*
X63278926Y-93815797D01*
X63257691Y-93818947D01*
X63236250Y-93820000D01*
X62798750Y-93820000D01*
X62777309Y-93818947D01*
X62756074Y-93815797D01*
X62735250Y-93810581D01*
X62715038Y-93803349D01*
X62695632Y-93794170D01*
X62677219Y-93783134D01*
X62659976Y-93770346D01*
X62644070Y-93755930D01*
X62629654Y-93740024D01*
X62616866Y-93722781D01*
X62605830Y-93704368D01*
X62596651Y-93684962D01*
X62589419Y-93664750D01*
X62584203Y-93643926D01*
X62581053Y-93622691D01*
X62580000Y-93601250D01*
X62580000Y-93088750D01*
X62581053Y-93067309D01*
X62584203Y-93046074D01*
X62589419Y-93025250D01*
X62596651Y-93005038D01*
X62605830Y-92985632D01*
X62616866Y-92967219D01*
X62629654Y-92949976D01*
X62644070Y-92934070D01*
X62659976Y-92919654D01*
X62677219Y-92906866D01*
X62695632Y-92895830D01*
X62715038Y-92886651D01*
X62735250Y-92879419D01*
X62756074Y-92874203D01*
X62777309Y-92871053D01*
X62798750Y-92870000D01*
X63236250Y-92870000D01*
X63257691Y-92871053D01*
X63257691Y-92871053D01*
G37*
D16*
X63017500Y-93345000D03*
D15*
G36*
X61682691Y-92871053D02*
X61703926Y-92874203D01*
X61724750Y-92879419D01*
X61744962Y-92886651D01*
X61764368Y-92895830D01*
X61782781Y-92906866D01*
X61800024Y-92919654D01*
X61815930Y-92934070D01*
X61830346Y-92949976D01*
X61843134Y-92967219D01*
X61854170Y-92985632D01*
X61863349Y-93005038D01*
X61870581Y-93025250D01*
X61875797Y-93046074D01*
X61878947Y-93067309D01*
X61880000Y-93088750D01*
X61880000Y-93601250D01*
X61878947Y-93622691D01*
X61875797Y-93643926D01*
X61870581Y-93664750D01*
X61863349Y-93684962D01*
X61854170Y-93704368D01*
X61843134Y-93722781D01*
X61830346Y-93740024D01*
X61815930Y-93755930D01*
X61800024Y-93770346D01*
X61782781Y-93783134D01*
X61764368Y-93794170D01*
X61744962Y-93803349D01*
X61724750Y-93810581D01*
X61703926Y-93815797D01*
X61682691Y-93818947D01*
X61661250Y-93820000D01*
X61223750Y-93820000D01*
X61202309Y-93818947D01*
X61181074Y-93815797D01*
X61160250Y-93810581D01*
X61140038Y-93803349D01*
X61120632Y-93794170D01*
X61102219Y-93783134D01*
X61084976Y-93770346D01*
X61069070Y-93755930D01*
X61054654Y-93740024D01*
X61041866Y-93722781D01*
X61030830Y-93704368D01*
X61021651Y-93684962D01*
X61014419Y-93664750D01*
X61009203Y-93643926D01*
X61006053Y-93622691D01*
X61005000Y-93601250D01*
X61005000Y-93088750D01*
X61006053Y-93067309D01*
X61009203Y-93046074D01*
X61014419Y-93025250D01*
X61021651Y-93005038D01*
X61030830Y-92985632D01*
X61041866Y-92967219D01*
X61054654Y-92949976D01*
X61069070Y-92934070D01*
X61084976Y-92919654D01*
X61102219Y-92906866D01*
X61120632Y-92895830D01*
X61140038Y-92886651D01*
X61160250Y-92879419D01*
X61181074Y-92874203D01*
X61202309Y-92871053D01*
X61223750Y-92870000D01*
X61661250Y-92870000D01*
X61682691Y-92871053D01*
X61682691Y-92871053D01*
G37*
D16*
X61442500Y-93345000D03*
D15*
G36*
X70572691Y-92236053D02*
X70593926Y-92239203D01*
X70614750Y-92244419D01*
X70634962Y-92251651D01*
X70654368Y-92260830D01*
X70672781Y-92271866D01*
X70690024Y-92284654D01*
X70705930Y-92299070D01*
X70720346Y-92314976D01*
X70733134Y-92332219D01*
X70744170Y-92350632D01*
X70753349Y-92370038D01*
X70760581Y-92390250D01*
X70765797Y-92411074D01*
X70768947Y-92432309D01*
X70770000Y-92453750D01*
X70770000Y-92966250D01*
X70768947Y-92987691D01*
X70765797Y-93008926D01*
X70760581Y-93029750D01*
X70753349Y-93049962D01*
X70744170Y-93069368D01*
X70733134Y-93087781D01*
X70720346Y-93105024D01*
X70705930Y-93120930D01*
X70690024Y-93135346D01*
X70672781Y-93148134D01*
X70654368Y-93159170D01*
X70634962Y-93168349D01*
X70614750Y-93175581D01*
X70593926Y-93180797D01*
X70572691Y-93183947D01*
X70551250Y-93185000D01*
X70113750Y-93185000D01*
X70092309Y-93183947D01*
X70071074Y-93180797D01*
X70050250Y-93175581D01*
X70030038Y-93168349D01*
X70010632Y-93159170D01*
X69992219Y-93148134D01*
X69974976Y-93135346D01*
X69959070Y-93120930D01*
X69944654Y-93105024D01*
X69931866Y-93087781D01*
X69920830Y-93069368D01*
X69911651Y-93049962D01*
X69904419Y-93029750D01*
X69899203Y-93008926D01*
X69896053Y-92987691D01*
X69895000Y-92966250D01*
X69895000Y-92453750D01*
X69896053Y-92432309D01*
X69899203Y-92411074D01*
X69904419Y-92390250D01*
X69911651Y-92370038D01*
X69920830Y-92350632D01*
X69931866Y-92332219D01*
X69944654Y-92314976D01*
X69959070Y-92299070D01*
X69974976Y-92284654D01*
X69992219Y-92271866D01*
X70010632Y-92260830D01*
X70030038Y-92251651D01*
X70050250Y-92244419D01*
X70071074Y-92239203D01*
X70092309Y-92236053D01*
X70113750Y-92235000D01*
X70551250Y-92235000D01*
X70572691Y-92236053D01*
X70572691Y-92236053D01*
G37*
D16*
X70332500Y-92710000D03*
D15*
G36*
X72147691Y-92236053D02*
X72168926Y-92239203D01*
X72189750Y-92244419D01*
X72209962Y-92251651D01*
X72229368Y-92260830D01*
X72247781Y-92271866D01*
X72265024Y-92284654D01*
X72280930Y-92299070D01*
X72295346Y-92314976D01*
X72308134Y-92332219D01*
X72319170Y-92350632D01*
X72328349Y-92370038D01*
X72335581Y-92390250D01*
X72340797Y-92411074D01*
X72343947Y-92432309D01*
X72345000Y-92453750D01*
X72345000Y-92966250D01*
X72343947Y-92987691D01*
X72340797Y-93008926D01*
X72335581Y-93029750D01*
X72328349Y-93049962D01*
X72319170Y-93069368D01*
X72308134Y-93087781D01*
X72295346Y-93105024D01*
X72280930Y-93120930D01*
X72265024Y-93135346D01*
X72247781Y-93148134D01*
X72229368Y-93159170D01*
X72209962Y-93168349D01*
X72189750Y-93175581D01*
X72168926Y-93180797D01*
X72147691Y-93183947D01*
X72126250Y-93185000D01*
X71688750Y-93185000D01*
X71667309Y-93183947D01*
X71646074Y-93180797D01*
X71625250Y-93175581D01*
X71605038Y-93168349D01*
X71585632Y-93159170D01*
X71567219Y-93148134D01*
X71549976Y-93135346D01*
X71534070Y-93120930D01*
X71519654Y-93105024D01*
X71506866Y-93087781D01*
X71495830Y-93069368D01*
X71486651Y-93049962D01*
X71479419Y-93029750D01*
X71474203Y-93008926D01*
X71471053Y-92987691D01*
X71470000Y-92966250D01*
X71470000Y-92453750D01*
X71471053Y-92432309D01*
X71474203Y-92411074D01*
X71479419Y-92390250D01*
X71486651Y-92370038D01*
X71495830Y-92350632D01*
X71506866Y-92332219D01*
X71519654Y-92314976D01*
X71534070Y-92299070D01*
X71549976Y-92284654D01*
X71567219Y-92271866D01*
X71585632Y-92260830D01*
X71605038Y-92251651D01*
X71625250Y-92244419D01*
X71646074Y-92239203D01*
X71667309Y-92236053D01*
X71688750Y-92235000D01*
X72126250Y-92235000D01*
X72147691Y-92236053D01*
X72147691Y-92236053D01*
G37*
D16*
X71907500Y-92710000D03*
D15*
G36*
X71995191Y-115096053D02*
X72016426Y-115099203D01*
X72037250Y-115104419D01*
X72057462Y-115111651D01*
X72076868Y-115120830D01*
X72095281Y-115131866D01*
X72112524Y-115144654D01*
X72128430Y-115159070D01*
X72142846Y-115174976D01*
X72155634Y-115192219D01*
X72166670Y-115210632D01*
X72175849Y-115230038D01*
X72183081Y-115250250D01*
X72188297Y-115271074D01*
X72191447Y-115292309D01*
X72192500Y-115313750D01*
X72192500Y-115826250D01*
X72191447Y-115847691D01*
X72188297Y-115868926D01*
X72183081Y-115889750D01*
X72175849Y-115909962D01*
X72166670Y-115929368D01*
X72155634Y-115947781D01*
X72142846Y-115965024D01*
X72128430Y-115980930D01*
X72112524Y-115995346D01*
X72095281Y-116008134D01*
X72076868Y-116019170D01*
X72057462Y-116028349D01*
X72037250Y-116035581D01*
X72016426Y-116040797D01*
X71995191Y-116043947D01*
X71973750Y-116045000D01*
X71536250Y-116045000D01*
X71514809Y-116043947D01*
X71493574Y-116040797D01*
X71472750Y-116035581D01*
X71452538Y-116028349D01*
X71433132Y-116019170D01*
X71414719Y-116008134D01*
X71397476Y-115995346D01*
X71381570Y-115980930D01*
X71367154Y-115965024D01*
X71354366Y-115947781D01*
X71343330Y-115929368D01*
X71334151Y-115909962D01*
X71326919Y-115889750D01*
X71321703Y-115868926D01*
X71318553Y-115847691D01*
X71317500Y-115826250D01*
X71317500Y-115313750D01*
X71318553Y-115292309D01*
X71321703Y-115271074D01*
X71326919Y-115250250D01*
X71334151Y-115230038D01*
X71343330Y-115210632D01*
X71354366Y-115192219D01*
X71367154Y-115174976D01*
X71381570Y-115159070D01*
X71397476Y-115144654D01*
X71414719Y-115131866D01*
X71433132Y-115120830D01*
X71452538Y-115111651D01*
X71472750Y-115104419D01*
X71493574Y-115099203D01*
X71514809Y-115096053D01*
X71536250Y-115095000D01*
X71973750Y-115095000D01*
X71995191Y-115096053D01*
X71995191Y-115096053D01*
G37*
D16*
X71755000Y-115570000D03*
D15*
G36*
X70420191Y-115096053D02*
X70441426Y-115099203D01*
X70462250Y-115104419D01*
X70482462Y-115111651D01*
X70501868Y-115120830D01*
X70520281Y-115131866D01*
X70537524Y-115144654D01*
X70553430Y-115159070D01*
X70567846Y-115174976D01*
X70580634Y-115192219D01*
X70591670Y-115210632D01*
X70600849Y-115230038D01*
X70608081Y-115250250D01*
X70613297Y-115271074D01*
X70616447Y-115292309D01*
X70617500Y-115313750D01*
X70617500Y-115826250D01*
X70616447Y-115847691D01*
X70613297Y-115868926D01*
X70608081Y-115889750D01*
X70600849Y-115909962D01*
X70591670Y-115929368D01*
X70580634Y-115947781D01*
X70567846Y-115965024D01*
X70553430Y-115980930D01*
X70537524Y-115995346D01*
X70520281Y-116008134D01*
X70501868Y-116019170D01*
X70482462Y-116028349D01*
X70462250Y-116035581D01*
X70441426Y-116040797D01*
X70420191Y-116043947D01*
X70398750Y-116045000D01*
X69961250Y-116045000D01*
X69939809Y-116043947D01*
X69918574Y-116040797D01*
X69897750Y-116035581D01*
X69877538Y-116028349D01*
X69858132Y-116019170D01*
X69839719Y-116008134D01*
X69822476Y-115995346D01*
X69806570Y-115980930D01*
X69792154Y-115965024D01*
X69779366Y-115947781D01*
X69768330Y-115929368D01*
X69759151Y-115909962D01*
X69751919Y-115889750D01*
X69746703Y-115868926D01*
X69743553Y-115847691D01*
X69742500Y-115826250D01*
X69742500Y-115313750D01*
X69743553Y-115292309D01*
X69746703Y-115271074D01*
X69751919Y-115250250D01*
X69759151Y-115230038D01*
X69768330Y-115210632D01*
X69779366Y-115192219D01*
X69792154Y-115174976D01*
X69806570Y-115159070D01*
X69822476Y-115144654D01*
X69839719Y-115131866D01*
X69858132Y-115120830D01*
X69877538Y-115111651D01*
X69897750Y-115104419D01*
X69918574Y-115099203D01*
X69939809Y-115096053D01*
X69961250Y-115095000D01*
X70398750Y-115095000D01*
X70420191Y-115096053D01*
X70420191Y-115096053D01*
G37*
D16*
X70180000Y-115570000D03*
D15*
G36*
X61682691Y-126526053D02*
X61703926Y-126529203D01*
X61724750Y-126534419D01*
X61744962Y-126541651D01*
X61764368Y-126550830D01*
X61782781Y-126561866D01*
X61800024Y-126574654D01*
X61815930Y-126589070D01*
X61830346Y-126604976D01*
X61843134Y-126622219D01*
X61854170Y-126640632D01*
X61863349Y-126660038D01*
X61870581Y-126680250D01*
X61875797Y-126701074D01*
X61878947Y-126722309D01*
X61880000Y-126743750D01*
X61880000Y-127256250D01*
X61878947Y-127277691D01*
X61875797Y-127298926D01*
X61870581Y-127319750D01*
X61863349Y-127339962D01*
X61854170Y-127359368D01*
X61843134Y-127377781D01*
X61830346Y-127395024D01*
X61815930Y-127410930D01*
X61800024Y-127425346D01*
X61782781Y-127438134D01*
X61764368Y-127449170D01*
X61744962Y-127458349D01*
X61724750Y-127465581D01*
X61703926Y-127470797D01*
X61682691Y-127473947D01*
X61661250Y-127475000D01*
X61223750Y-127475000D01*
X61202309Y-127473947D01*
X61181074Y-127470797D01*
X61160250Y-127465581D01*
X61140038Y-127458349D01*
X61120632Y-127449170D01*
X61102219Y-127438134D01*
X61084976Y-127425346D01*
X61069070Y-127410930D01*
X61054654Y-127395024D01*
X61041866Y-127377781D01*
X61030830Y-127359368D01*
X61021651Y-127339962D01*
X61014419Y-127319750D01*
X61009203Y-127298926D01*
X61006053Y-127277691D01*
X61005000Y-127256250D01*
X61005000Y-126743750D01*
X61006053Y-126722309D01*
X61009203Y-126701074D01*
X61014419Y-126680250D01*
X61021651Y-126660038D01*
X61030830Y-126640632D01*
X61041866Y-126622219D01*
X61054654Y-126604976D01*
X61069070Y-126589070D01*
X61084976Y-126574654D01*
X61102219Y-126561866D01*
X61120632Y-126550830D01*
X61140038Y-126541651D01*
X61160250Y-126534419D01*
X61181074Y-126529203D01*
X61202309Y-126526053D01*
X61223750Y-126525000D01*
X61661250Y-126525000D01*
X61682691Y-126526053D01*
X61682691Y-126526053D01*
G37*
D16*
X61442500Y-127000000D03*
D15*
G36*
X63257691Y-126526053D02*
X63278926Y-126529203D01*
X63299750Y-126534419D01*
X63319962Y-126541651D01*
X63339368Y-126550830D01*
X63357781Y-126561866D01*
X63375024Y-126574654D01*
X63390930Y-126589070D01*
X63405346Y-126604976D01*
X63418134Y-126622219D01*
X63429170Y-126640632D01*
X63438349Y-126660038D01*
X63445581Y-126680250D01*
X63450797Y-126701074D01*
X63453947Y-126722309D01*
X63455000Y-126743750D01*
X63455000Y-127256250D01*
X63453947Y-127277691D01*
X63450797Y-127298926D01*
X63445581Y-127319750D01*
X63438349Y-127339962D01*
X63429170Y-127359368D01*
X63418134Y-127377781D01*
X63405346Y-127395024D01*
X63390930Y-127410930D01*
X63375024Y-127425346D01*
X63357781Y-127438134D01*
X63339368Y-127449170D01*
X63319962Y-127458349D01*
X63299750Y-127465581D01*
X63278926Y-127470797D01*
X63257691Y-127473947D01*
X63236250Y-127475000D01*
X62798750Y-127475000D01*
X62777309Y-127473947D01*
X62756074Y-127470797D01*
X62735250Y-127465581D01*
X62715038Y-127458349D01*
X62695632Y-127449170D01*
X62677219Y-127438134D01*
X62659976Y-127425346D01*
X62644070Y-127410930D01*
X62629654Y-127395024D01*
X62616866Y-127377781D01*
X62605830Y-127359368D01*
X62596651Y-127339962D01*
X62589419Y-127319750D01*
X62584203Y-127298926D01*
X62581053Y-127277691D01*
X62580000Y-127256250D01*
X62580000Y-126743750D01*
X62581053Y-126722309D01*
X62584203Y-126701074D01*
X62589419Y-126680250D01*
X62596651Y-126660038D01*
X62605830Y-126640632D01*
X62616866Y-126622219D01*
X62629654Y-126604976D01*
X62644070Y-126589070D01*
X62659976Y-126574654D01*
X62677219Y-126561866D01*
X62695632Y-126550830D01*
X62715038Y-126541651D01*
X62735250Y-126534419D01*
X62756074Y-126529203D01*
X62777309Y-126526053D01*
X62798750Y-126525000D01*
X63236250Y-126525000D01*
X63257691Y-126526053D01*
X63257691Y-126526053D01*
G37*
D16*
X63017500Y-127000000D03*
D15*
G36*
X72147691Y-118271053D02*
X72168926Y-118274203D01*
X72189750Y-118279419D01*
X72209962Y-118286651D01*
X72229368Y-118295830D01*
X72247781Y-118306866D01*
X72265024Y-118319654D01*
X72280930Y-118334070D01*
X72295346Y-118349976D01*
X72308134Y-118367219D01*
X72319170Y-118385632D01*
X72328349Y-118405038D01*
X72335581Y-118425250D01*
X72340797Y-118446074D01*
X72343947Y-118467309D01*
X72345000Y-118488750D01*
X72345000Y-119001250D01*
X72343947Y-119022691D01*
X72340797Y-119043926D01*
X72335581Y-119064750D01*
X72328349Y-119084962D01*
X72319170Y-119104368D01*
X72308134Y-119122781D01*
X72295346Y-119140024D01*
X72280930Y-119155930D01*
X72265024Y-119170346D01*
X72247781Y-119183134D01*
X72229368Y-119194170D01*
X72209962Y-119203349D01*
X72189750Y-119210581D01*
X72168926Y-119215797D01*
X72147691Y-119218947D01*
X72126250Y-119220000D01*
X71688750Y-119220000D01*
X71667309Y-119218947D01*
X71646074Y-119215797D01*
X71625250Y-119210581D01*
X71605038Y-119203349D01*
X71585632Y-119194170D01*
X71567219Y-119183134D01*
X71549976Y-119170346D01*
X71534070Y-119155930D01*
X71519654Y-119140024D01*
X71506866Y-119122781D01*
X71495830Y-119104368D01*
X71486651Y-119084962D01*
X71479419Y-119064750D01*
X71474203Y-119043926D01*
X71471053Y-119022691D01*
X71470000Y-119001250D01*
X71470000Y-118488750D01*
X71471053Y-118467309D01*
X71474203Y-118446074D01*
X71479419Y-118425250D01*
X71486651Y-118405038D01*
X71495830Y-118385632D01*
X71506866Y-118367219D01*
X71519654Y-118349976D01*
X71534070Y-118334070D01*
X71549976Y-118319654D01*
X71567219Y-118306866D01*
X71585632Y-118295830D01*
X71605038Y-118286651D01*
X71625250Y-118279419D01*
X71646074Y-118274203D01*
X71667309Y-118271053D01*
X71688750Y-118270000D01*
X72126250Y-118270000D01*
X72147691Y-118271053D01*
X72147691Y-118271053D01*
G37*
D16*
X71907500Y-118745000D03*
D15*
G36*
X70572691Y-118271053D02*
X70593926Y-118274203D01*
X70614750Y-118279419D01*
X70634962Y-118286651D01*
X70654368Y-118295830D01*
X70672781Y-118306866D01*
X70690024Y-118319654D01*
X70705930Y-118334070D01*
X70720346Y-118349976D01*
X70733134Y-118367219D01*
X70744170Y-118385632D01*
X70753349Y-118405038D01*
X70760581Y-118425250D01*
X70765797Y-118446074D01*
X70768947Y-118467309D01*
X70770000Y-118488750D01*
X70770000Y-119001250D01*
X70768947Y-119022691D01*
X70765797Y-119043926D01*
X70760581Y-119064750D01*
X70753349Y-119084962D01*
X70744170Y-119104368D01*
X70733134Y-119122781D01*
X70720346Y-119140024D01*
X70705930Y-119155930D01*
X70690024Y-119170346D01*
X70672781Y-119183134D01*
X70654368Y-119194170D01*
X70634962Y-119203349D01*
X70614750Y-119210581D01*
X70593926Y-119215797D01*
X70572691Y-119218947D01*
X70551250Y-119220000D01*
X70113750Y-119220000D01*
X70092309Y-119218947D01*
X70071074Y-119215797D01*
X70050250Y-119210581D01*
X70030038Y-119203349D01*
X70010632Y-119194170D01*
X69992219Y-119183134D01*
X69974976Y-119170346D01*
X69959070Y-119155930D01*
X69944654Y-119140024D01*
X69931866Y-119122781D01*
X69920830Y-119104368D01*
X69911651Y-119084962D01*
X69904419Y-119064750D01*
X69899203Y-119043926D01*
X69896053Y-119022691D01*
X69895000Y-119001250D01*
X69895000Y-118488750D01*
X69896053Y-118467309D01*
X69899203Y-118446074D01*
X69904419Y-118425250D01*
X69911651Y-118405038D01*
X69920830Y-118385632D01*
X69931866Y-118367219D01*
X69944654Y-118349976D01*
X69959070Y-118334070D01*
X69974976Y-118319654D01*
X69992219Y-118306866D01*
X70010632Y-118295830D01*
X70030038Y-118286651D01*
X70050250Y-118279419D01*
X70071074Y-118274203D01*
X70092309Y-118271053D01*
X70113750Y-118270000D01*
X70551250Y-118270000D01*
X70572691Y-118271053D01*
X70572691Y-118271053D01*
G37*
D16*
X70332500Y-118745000D03*
D20*
X63240000Y-99890000D03*
X64040000Y-99890000D03*
X64840000Y-99890000D03*
X65640000Y-99890000D03*
X66440000Y-99890000D03*
X67240000Y-99890000D03*
X68040000Y-99890000D03*
X68840000Y-99890000D03*
D21*
X70290000Y-101340000D03*
X70290000Y-102140000D03*
X70290000Y-102940000D03*
X70290000Y-103740000D03*
X70290000Y-104540000D03*
X70290000Y-105340000D03*
X70290000Y-106140000D03*
X70290000Y-106940000D03*
D20*
X68840000Y-108390000D03*
X68040000Y-108390000D03*
X67240000Y-108390000D03*
X66440000Y-108390000D03*
X65640000Y-108390000D03*
X64840000Y-108390000D03*
X64040000Y-108390000D03*
X63240000Y-108390000D03*
D21*
X61790000Y-106940000D03*
X61790000Y-106140000D03*
X61790000Y-105340000D03*
X61790000Y-104540000D03*
X61790000Y-103740000D03*
X61790000Y-102940000D03*
X61790000Y-102140000D03*
X61790000Y-101340000D03*
D22*
X57310000Y-125095000D03*
X57310000Y-126365000D03*
X57310000Y-127635000D03*
X57310000Y-128905000D03*
X51910000Y-128905000D03*
X51910000Y-127635000D03*
X51910000Y-126365000D03*
X51910000Y-125095000D03*
D23*
X54610000Y-109025000D03*
X54610000Y-100525000D03*
D19*
X41275000Y-86995000D03*
D18*
X38735000Y-86995000D03*
X36195000Y-86995000D03*
D15*
G36*
X53097691Y-87156053D02*
X53118926Y-87159203D01*
X53139750Y-87164419D01*
X53159962Y-87171651D01*
X53179368Y-87180830D01*
X53197781Y-87191866D01*
X53215024Y-87204654D01*
X53230930Y-87219070D01*
X53245346Y-87234976D01*
X53258134Y-87252219D01*
X53269170Y-87270632D01*
X53278349Y-87290038D01*
X53285581Y-87310250D01*
X53290797Y-87331074D01*
X53293947Y-87352309D01*
X53295000Y-87373750D01*
X53295000Y-87886250D01*
X53293947Y-87907691D01*
X53290797Y-87928926D01*
X53285581Y-87949750D01*
X53278349Y-87969962D01*
X53269170Y-87989368D01*
X53258134Y-88007781D01*
X53245346Y-88025024D01*
X53230930Y-88040930D01*
X53215024Y-88055346D01*
X53197781Y-88068134D01*
X53179368Y-88079170D01*
X53159962Y-88088349D01*
X53139750Y-88095581D01*
X53118926Y-88100797D01*
X53097691Y-88103947D01*
X53076250Y-88105000D01*
X52638750Y-88105000D01*
X52617309Y-88103947D01*
X52596074Y-88100797D01*
X52575250Y-88095581D01*
X52555038Y-88088349D01*
X52535632Y-88079170D01*
X52517219Y-88068134D01*
X52499976Y-88055346D01*
X52484070Y-88040930D01*
X52469654Y-88025024D01*
X52456866Y-88007781D01*
X52445830Y-87989368D01*
X52436651Y-87969962D01*
X52429419Y-87949750D01*
X52424203Y-87928926D01*
X52421053Y-87907691D01*
X52420000Y-87886250D01*
X52420000Y-87373750D01*
X52421053Y-87352309D01*
X52424203Y-87331074D01*
X52429419Y-87310250D01*
X52436651Y-87290038D01*
X52445830Y-87270632D01*
X52456866Y-87252219D01*
X52469654Y-87234976D01*
X52484070Y-87219070D01*
X52499976Y-87204654D01*
X52517219Y-87191866D01*
X52535632Y-87180830D01*
X52555038Y-87171651D01*
X52575250Y-87164419D01*
X52596074Y-87159203D01*
X52617309Y-87156053D01*
X52638750Y-87155000D01*
X53076250Y-87155000D01*
X53097691Y-87156053D01*
X53097691Y-87156053D01*
G37*
D16*
X52857500Y-87630000D03*
D15*
G36*
X51522691Y-87156053D02*
X51543926Y-87159203D01*
X51564750Y-87164419D01*
X51584962Y-87171651D01*
X51604368Y-87180830D01*
X51622781Y-87191866D01*
X51640024Y-87204654D01*
X51655930Y-87219070D01*
X51670346Y-87234976D01*
X51683134Y-87252219D01*
X51694170Y-87270632D01*
X51703349Y-87290038D01*
X51710581Y-87310250D01*
X51715797Y-87331074D01*
X51718947Y-87352309D01*
X51720000Y-87373750D01*
X51720000Y-87886250D01*
X51718947Y-87907691D01*
X51715797Y-87928926D01*
X51710581Y-87949750D01*
X51703349Y-87969962D01*
X51694170Y-87989368D01*
X51683134Y-88007781D01*
X51670346Y-88025024D01*
X51655930Y-88040930D01*
X51640024Y-88055346D01*
X51622781Y-88068134D01*
X51604368Y-88079170D01*
X51584962Y-88088349D01*
X51564750Y-88095581D01*
X51543926Y-88100797D01*
X51522691Y-88103947D01*
X51501250Y-88105000D01*
X51063750Y-88105000D01*
X51042309Y-88103947D01*
X51021074Y-88100797D01*
X51000250Y-88095581D01*
X50980038Y-88088349D01*
X50960632Y-88079170D01*
X50942219Y-88068134D01*
X50924976Y-88055346D01*
X50909070Y-88040930D01*
X50894654Y-88025024D01*
X50881866Y-88007781D01*
X50870830Y-87989368D01*
X50861651Y-87969962D01*
X50854419Y-87949750D01*
X50849203Y-87928926D01*
X50846053Y-87907691D01*
X50845000Y-87886250D01*
X50845000Y-87373750D01*
X50846053Y-87352309D01*
X50849203Y-87331074D01*
X50854419Y-87310250D01*
X50861651Y-87290038D01*
X50870830Y-87270632D01*
X50881866Y-87252219D01*
X50894654Y-87234976D01*
X50909070Y-87219070D01*
X50924976Y-87204654D01*
X50942219Y-87191866D01*
X50960632Y-87180830D01*
X50980038Y-87171651D01*
X51000250Y-87164419D01*
X51021074Y-87159203D01*
X51042309Y-87156053D01*
X51063750Y-87155000D01*
X51501250Y-87155000D01*
X51522691Y-87156053D01*
X51522691Y-87156053D01*
G37*
D16*
X51282500Y-87630000D03*
D19*
X64770000Y-86360000D03*
D18*
X67310000Y-86360000D03*
X69850000Y-86360000D03*
D15*
G36*
X74687691Y-82076053D02*
X74708926Y-82079203D01*
X74729750Y-82084419D01*
X74749962Y-82091651D01*
X74769368Y-82100830D01*
X74787781Y-82111866D01*
X74805024Y-82124654D01*
X74820930Y-82139070D01*
X74835346Y-82154976D01*
X74848134Y-82172219D01*
X74859170Y-82190632D01*
X74868349Y-82210038D01*
X74875581Y-82230250D01*
X74880797Y-82251074D01*
X74883947Y-82272309D01*
X74885000Y-82293750D01*
X74885000Y-82806250D01*
X74883947Y-82827691D01*
X74880797Y-82848926D01*
X74875581Y-82869750D01*
X74868349Y-82889962D01*
X74859170Y-82909368D01*
X74848134Y-82927781D01*
X74835346Y-82945024D01*
X74820930Y-82960930D01*
X74805024Y-82975346D01*
X74787781Y-82988134D01*
X74769368Y-82999170D01*
X74749962Y-83008349D01*
X74729750Y-83015581D01*
X74708926Y-83020797D01*
X74687691Y-83023947D01*
X74666250Y-83025000D01*
X74228750Y-83025000D01*
X74207309Y-83023947D01*
X74186074Y-83020797D01*
X74165250Y-83015581D01*
X74145038Y-83008349D01*
X74125632Y-82999170D01*
X74107219Y-82988134D01*
X74089976Y-82975346D01*
X74074070Y-82960930D01*
X74059654Y-82945024D01*
X74046866Y-82927781D01*
X74035830Y-82909368D01*
X74026651Y-82889962D01*
X74019419Y-82869750D01*
X74014203Y-82848926D01*
X74011053Y-82827691D01*
X74010000Y-82806250D01*
X74010000Y-82293750D01*
X74011053Y-82272309D01*
X74014203Y-82251074D01*
X74019419Y-82230250D01*
X74026651Y-82210038D01*
X74035830Y-82190632D01*
X74046866Y-82172219D01*
X74059654Y-82154976D01*
X74074070Y-82139070D01*
X74089976Y-82124654D01*
X74107219Y-82111866D01*
X74125632Y-82100830D01*
X74145038Y-82091651D01*
X74165250Y-82084419D01*
X74186074Y-82079203D01*
X74207309Y-82076053D01*
X74228750Y-82075000D01*
X74666250Y-82075000D01*
X74687691Y-82076053D01*
X74687691Y-82076053D01*
G37*
D16*
X74447500Y-82550000D03*
D15*
G36*
X73112691Y-82076053D02*
X73133926Y-82079203D01*
X73154750Y-82084419D01*
X73174962Y-82091651D01*
X73194368Y-82100830D01*
X73212781Y-82111866D01*
X73230024Y-82124654D01*
X73245930Y-82139070D01*
X73260346Y-82154976D01*
X73273134Y-82172219D01*
X73284170Y-82190632D01*
X73293349Y-82210038D01*
X73300581Y-82230250D01*
X73305797Y-82251074D01*
X73308947Y-82272309D01*
X73310000Y-82293750D01*
X73310000Y-82806250D01*
X73308947Y-82827691D01*
X73305797Y-82848926D01*
X73300581Y-82869750D01*
X73293349Y-82889962D01*
X73284170Y-82909368D01*
X73273134Y-82927781D01*
X73260346Y-82945024D01*
X73245930Y-82960930D01*
X73230024Y-82975346D01*
X73212781Y-82988134D01*
X73194368Y-82999170D01*
X73174962Y-83008349D01*
X73154750Y-83015581D01*
X73133926Y-83020797D01*
X73112691Y-83023947D01*
X73091250Y-83025000D01*
X72653750Y-83025000D01*
X72632309Y-83023947D01*
X72611074Y-83020797D01*
X72590250Y-83015581D01*
X72570038Y-83008349D01*
X72550632Y-82999170D01*
X72532219Y-82988134D01*
X72514976Y-82975346D01*
X72499070Y-82960930D01*
X72484654Y-82945024D01*
X72471866Y-82927781D01*
X72460830Y-82909368D01*
X72451651Y-82889962D01*
X72444419Y-82869750D01*
X72439203Y-82848926D01*
X72436053Y-82827691D01*
X72435000Y-82806250D01*
X72435000Y-82293750D01*
X72436053Y-82272309D01*
X72439203Y-82251074D01*
X72444419Y-82230250D01*
X72451651Y-82210038D01*
X72460830Y-82190632D01*
X72471866Y-82172219D01*
X72484654Y-82154976D01*
X72499070Y-82139070D01*
X72514976Y-82124654D01*
X72532219Y-82111866D01*
X72550632Y-82100830D01*
X72570038Y-82091651D01*
X72590250Y-82084419D01*
X72611074Y-82079203D01*
X72632309Y-82076053D01*
X72653750Y-82075000D01*
X73091250Y-82075000D01*
X73112691Y-82076053D01*
X73112691Y-82076053D01*
G37*
D16*
X72872500Y-82550000D03*
D15*
G36*
X74687691Y-84616053D02*
X74708926Y-84619203D01*
X74729750Y-84624419D01*
X74749962Y-84631651D01*
X74769368Y-84640830D01*
X74787781Y-84651866D01*
X74805024Y-84664654D01*
X74820930Y-84679070D01*
X74835346Y-84694976D01*
X74848134Y-84712219D01*
X74859170Y-84730632D01*
X74868349Y-84750038D01*
X74875581Y-84770250D01*
X74880797Y-84791074D01*
X74883947Y-84812309D01*
X74885000Y-84833750D01*
X74885000Y-85346250D01*
X74883947Y-85367691D01*
X74880797Y-85388926D01*
X74875581Y-85409750D01*
X74868349Y-85429962D01*
X74859170Y-85449368D01*
X74848134Y-85467781D01*
X74835346Y-85485024D01*
X74820930Y-85500930D01*
X74805024Y-85515346D01*
X74787781Y-85528134D01*
X74769368Y-85539170D01*
X74749962Y-85548349D01*
X74729750Y-85555581D01*
X74708926Y-85560797D01*
X74687691Y-85563947D01*
X74666250Y-85565000D01*
X74228750Y-85565000D01*
X74207309Y-85563947D01*
X74186074Y-85560797D01*
X74165250Y-85555581D01*
X74145038Y-85548349D01*
X74125632Y-85539170D01*
X74107219Y-85528134D01*
X74089976Y-85515346D01*
X74074070Y-85500930D01*
X74059654Y-85485024D01*
X74046866Y-85467781D01*
X74035830Y-85449368D01*
X74026651Y-85429962D01*
X74019419Y-85409750D01*
X74014203Y-85388926D01*
X74011053Y-85367691D01*
X74010000Y-85346250D01*
X74010000Y-84833750D01*
X74011053Y-84812309D01*
X74014203Y-84791074D01*
X74019419Y-84770250D01*
X74026651Y-84750038D01*
X74035830Y-84730632D01*
X74046866Y-84712219D01*
X74059654Y-84694976D01*
X74074070Y-84679070D01*
X74089976Y-84664654D01*
X74107219Y-84651866D01*
X74125632Y-84640830D01*
X74145038Y-84631651D01*
X74165250Y-84624419D01*
X74186074Y-84619203D01*
X74207309Y-84616053D01*
X74228750Y-84615000D01*
X74666250Y-84615000D01*
X74687691Y-84616053D01*
X74687691Y-84616053D01*
G37*
D16*
X74447500Y-85090000D03*
D15*
G36*
X73112691Y-84616053D02*
X73133926Y-84619203D01*
X73154750Y-84624419D01*
X73174962Y-84631651D01*
X73194368Y-84640830D01*
X73212781Y-84651866D01*
X73230024Y-84664654D01*
X73245930Y-84679070D01*
X73260346Y-84694976D01*
X73273134Y-84712219D01*
X73284170Y-84730632D01*
X73293349Y-84750038D01*
X73300581Y-84770250D01*
X73305797Y-84791074D01*
X73308947Y-84812309D01*
X73310000Y-84833750D01*
X73310000Y-85346250D01*
X73308947Y-85367691D01*
X73305797Y-85388926D01*
X73300581Y-85409750D01*
X73293349Y-85429962D01*
X73284170Y-85449368D01*
X73273134Y-85467781D01*
X73260346Y-85485024D01*
X73245930Y-85500930D01*
X73230024Y-85515346D01*
X73212781Y-85528134D01*
X73194368Y-85539170D01*
X73174962Y-85548349D01*
X73154750Y-85555581D01*
X73133926Y-85560797D01*
X73112691Y-85563947D01*
X73091250Y-85565000D01*
X72653750Y-85565000D01*
X72632309Y-85563947D01*
X72611074Y-85560797D01*
X72590250Y-85555581D01*
X72570038Y-85548349D01*
X72550632Y-85539170D01*
X72532219Y-85528134D01*
X72514976Y-85515346D01*
X72499070Y-85500930D01*
X72484654Y-85485024D01*
X72471866Y-85467781D01*
X72460830Y-85449368D01*
X72451651Y-85429962D01*
X72444419Y-85409750D01*
X72439203Y-85388926D01*
X72436053Y-85367691D01*
X72435000Y-85346250D01*
X72435000Y-84833750D01*
X72436053Y-84812309D01*
X72439203Y-84791074D01*
X72444419Y-84770250D01*
X72451651Y-84750038D01*
X72460830Y-84730632D01*
X72471866Y-84712219D01*
X72484654Y-84694976D01*
X72499070Y-84679070D01*
X72514976Y-84664654D01*
X72532219Y-84651866D01*
X72550632Y-84640830D01*
X72570038Y-84631651D01*
X72590250Y-84624419D01*
X72611074Y-84619203D01*
X72632309Y-84616053D01*
X72653750Y-84615000D01*
X73091250Y-84615000D01*
X73112691Y-84616053D01*
X73112691Y-84616053D01*
G37*
D16*
X72872500Y-85090000D03*
D24*
X74295000Y-99695000D03*
X74295000Y-92710000D03*
X59690000Y-128905000D03*
X66675000Y-129540000D03*
X64205000Y-102940000D03*
X72390000Y-99695000D03*
X71755000Y-125095000D03*
X75854999Y-106390001D03*
X74295000Y-114300000D03*
X74005001Y-126710001D03*
X74640001Y-131790001D03*
X59055000Y-97790000D03*
X53340000Y-97155000D03*
X63500000Y-142240000D03*
X68580000Y-112395000D03*
X74930000Y-83820000D03*
X72390000Y-107950000D03*
X65640000Y-96920000D03*
X65640000Y-94380000D03*
X69122500Y-93345000D03*
X68580000Y-117475000D03*
X67240000Y-97225000D03*
X50165000Y-123190000D03*
X66440000Y-96755000D03*
X49530000Y-128905000D03*
X50165000Y-127635000D03*
X60960000Y-96520000D03*
X72390000Y-87630000D03*
D25*
X46550000Y-135777630D02*
X46550000Y-134700000D01*
X46550000Y-137680002D02*
X46550000Y-135777630D01*
X66219999Y-144600001D02*
X53469999Y-144600001D01*
X67310000Y-143510000D02*
X66219999Y-144600001D01*
X53469999Y-144600001D02*
X46550000Y-137680002D01*
X67310000Y-139065000D02*
X67310000Y-143510000D01*
X79740000Y-88697919D02*
X79740000Y-89900000D01*
X79292080Y-88249999D02*
X79740000Y-88697919D01*
D26*
X59537500Y-125095000D02*
X61442500Y-127000000D01*
X57310000Y-125095000D02*
X59537500Y-125095000D01*
X63347500Y-125095000D02*
X61442500Y-127000000D01*
X65252500Y-125095000D02*
X63347500Y-125095000D01*
X60590000Y-103740000D02*
X57785000Y-100935000D01*
X61790000Y-103740000D02*
X60590000Y-103740000D01*
X57785000Y-94462500D02*
X56667500Y-93345000D01*
X57785000Y-100935000D02*
X57785000Y-94462500D01*
X60060000Y-114950000D02*
X58420000Y-116590000D01*
X59537500Y-121372502D02*
X59537500Y-125095000D01*
X58420000Y-120255002D02*
X59537500Y-121372502D01*
X58420000Y-116590000D02*
X58420000Y-120255002D01*
X60960000Y-114950000D02*
X60060000Y-114950000D01*
X60060000Y-114950000D02*
X58140000Y-113030000D01*
X58140000Y-113030000D02*
X46550000Y-113030000D01*
X70290000Y-106140000D02*
X72295000Y-106140000D01*
X72390000Y-106045000D02*
X72390000Y-104927500D01*
X72295000Y-106140000D02*
X72390000Y-106045000D01*
X74295000Y-103022500D02*
X74295000Y-99695000D01*
X72390000Y-104927500D02*
X74295000Y-103022500D01*
D25*
X74295000Y-88249999D02*
X79292080Y-88249999D01*
D26*
X70290000Y-106140000D02*
X68040000Y-106140000D01*
X69090000Y-104540000D02*
X70290000Y-104540000D01*
X68040000Y-105590000D02*
X69090000Y-104540000D01*
X68040000Y-106140000D02*
X68040000Y-105590000D01*
D25*
X46355000Y-98425000D02*
X50165000Y-94615000D01*
X46550000Y-113030000D02*
X46355000Y-98425000D01*
D26*
X50328246Y-94451754D02*
X50165000Y-94615000D01*
X56515000Y-95885000D02*
X55245000Y-94451754D01*
X56515000Y-102235000D02*
X56515000Y-95885000D01*
X61790000Y-105340000D02*
X59690000Y-105410000D01*
X59690000Y-105410000D02*
X56515000Y-102235000D01*
D27*
X53340000Y-94522500D02*
X53340000Y-94451754D01*
D26*
X55245000Y-94451754D02*
X53340000Y-94451754D01*
D27*
X54127500Y-95310000D02*
X53340000Y-94522500D01*
X54127500Y-95885000D02*
X54127500Y-95310000D01*
D26*
X53340000Y-94451754D02*
X50328246Y-94451754D01*
X56667500Y-88732499D02*
X57150000Y-88249999D01*
X56667500Y-93345000D02*
X56667500Y-88732499D01*
D25*
X46550000Y-134700000D02*
X46550000Y-113030000D01*
X50165000Y-94615000D02*
X50165000Y-91592500D01*
X51282500Y-90475000D02*
X50165000Y-91592500D01*
X51282500Y-87630000D02*
X51282500Y-90475000D01*
X53477499Y-88249999D02*
X52857500Y-87630000D01*
X57150000Y-88249999D02*
X53477499Y-88249999D01*
D26*
X71907500Y-92710000D02*
X72390000Y-92710000D01*
D25*
X72374999Y-90170000D02*
X74295000Y-88249999D01*
X63500000Y-90170000D02*
X72374999Y-90170000D01*
X57150000Y-88249999D02*
X61579999Y-88249999D01*
X61579999Y-88249999D02*
X63500000Y-90170000D01*
D26*
X74295000Y-92710000D02*
X71907500Y-92710000D01*
X74295000Y-92710000D02*
X74295000Y-88249999D01*
X57310000Y-128905000D02*
X59690000Y-128905000D01*
X66827500Y-128210000D02*
X66675000Y-128362500D01*
X66827500Y-127635000D02*
X66827500Y-128210000D01*
X66675000Y-128362500D02*
X66675000Y-129540000D01*
X72002500Y-103740000D02*
X72390000Y-103352500D01*
X70290000Y-103740000D02*
X72002500Y-103740000D01*
X72390000Y-103352500D02*
X72390000Y-99695000D01*
X62990000Y-104540000D02*
X63500000Y-104030000D01*
X63500000Y-104030000D02*
X63500000Y-102940000D01*
X61790000Y-104540000D02*
X62990000Y-104540000D01*
X61790000Y-102940000D02*
X63500000Y-102940000D01*
X63500000Y-102940000D02*
X64205000Y-102940000D01*
X66827500Y-125095000D02*
X70485000Y-125095000D01*
X70332500Y-124942500D02*
X70485000Y-125095000D01*
X70332500Y-121920000D02*
X70332500Y-124942500D01*
X78489999Y-106390001D02*
X75854999Y-106390001D01*
X79740000Y-105140000D02*
X78489999Y-106390001D01*
X78489999Y-114010001D02*
X74584999Y-114010001D01*
X79740000Y-112760000D02*
X78489999Y-114010001D01*
X74584999Y-114010001D02*
X74295000Y-114300000D01*
X78489999Y-126710001D02*
X74005001Y-126710001D01*
X79740000Y-125460000D02*
X78489999Y-126710001D01*
X77800001Y-131790001D02*
X74640001Y-131790001D01*
X79740000Y-130540000D02*
X79050002Y-130540000D01*
X79050002Y-130540000D02*
X77800001Y-131790001D01*
X60980888Y-93806612D02*
X61442500Y-93345000D01*
X60794998Y-102940000D02*
X60259999Y-102405001D01*
X60259999Y-94527501D02*
X60980888Y-93806612D01*
X61790000Y-102940000D02*
X60794998Y-102940000D01*
X60259999Y-97790000D02*
X59055000Y-97790000D01*
X60259999Y-97790000D02*
X60259999Y-94527501D01*
X60259999Y-102405001D02*
X60259999Y-97790000D01*
D25*
X48895000Y-103987500D02*
X49200000Y-104292500D01*
X49200000Y-104292500D02*
X50800000Y-104292500D01*
X52552500Y-95885000D02*
X48895000Y-99542500D01*
X48895000Y-99542500D02*
X48895000Y-103987500D01*
X48895000Y-104562500D02*
X48895000Y-103987500D01*
X50225000Y-105892500D02*
X48895000Y-104562500D01*
X50800000Y-105892500D02*
X50225000Y-105892500D01*
D27*
X53340000Y-96672500D02*
X52552500Y-95885000D01*
X53340000Y-97155000D02*
X53340000Y-96672500D01*
X60647524Y-104540000D02*
X57150000Y-101042476D01*
X61790000Y-104540000D02*
X60647524Y-104540000D01*
X57150000Y-95402500D02*
X55092500Y-93345000D01*
X57150000Y-101042476D02*
X57150000Y-95402500D01*
D26*
X71755000Y-125095000D02*
X70485000Y-125095000D01*
X60590000Y-140320000D02*
X62510000Y-142240000D01*
X59690000Y-140320000D02*
X60590000Y-140320000D01*
X62510000Y-142240000D02*
X63500000Y-142240000D01*
X66940000Y-114950000D02*
X68580000Y-113310000D01*
X66040000Y-114950000D02*
X66940000Y-114950000D01*
X68580000Y-113310000D02*
X68580000Y-112395000D01*
X74447500Y-82550000D02*
X74447500Y-83337500D01*
X74447500Y-83337500D02*
X74930000Y-83820000D01*
X74295000Y-107950000D02*
X72390000Y-107950000D01*
X75854999Y-106390001D02*
X74295000Y-107950000D01*
X54610000Y-101775000D02*
X54610000Y-100525000D01*
X58975000Y-106140000D02*
X54610000Y-101775000D01*
X61790000Y-106140000D02*
X58975000Y-106140000D01*
X52992500Y-100525000D02*
X50800000Y-102717500D01*
X54610000Y-100525000D02*
X52992500Y-100525000D01*
X61790000Y-106940000D02*
X58160000Y-106940000D01*
X56075000Y-109025000D02*
X54610000Y-109025000D01*
X58160000Y-106940000D02*
X56075000Y-109025000D01*
X53052500Y-107467500D02*
X54610000Y-109025000D01*
X50800000Y-107467500D02*
X53052500Y-107467500D01*
X71755000Y-118592500D02*
X71907500Y-118745000D01*
X71755000Y-115570000D02*
X71755000Y-118592500D01*
X71907500Y-121920000D02*
X71907500Y-118745000D01*
X80990001Y-98770001D02*
X79740000Y-97520000D01*
X64770000Y-95885000D02*
X72390000Y-95885000D01*
X64840000Y-99890000D02*
X64770000Y-95885000D01*
X72390000Y-95885000D02*
X75565000Y-99060000D01*
X75565000Y-99060000D02*
X75565000Y-101310001D01*
X75565000Y-101310001D02*
X80340001Y-101310001D01*
X80990001Y-100660001D02*
X80990001Y-98770001D01*
X80340001Y-101310001D02*
X80990001Y-100660001D01*
X76639997Y-98809999D02*
X78489999Y-98809999D01*
X78489999Y-98809999D02*
X78890001Y-99210001D01*
X73079998Y-95250000D02*
X76639997Y-98809999D01*
X78890001Y-99210001D02*
X79740000Y-100060000D01*
X63017500Y-95250000D02*
X73079998Y-95250000D01*
D27*
X63017500Y-95250000D02*
X63017500Y-93345000D01*
D26*
X60960000Y-118925000D02*
X60960000Y-120000000D01*
X68840000Y-109383542D02*
X64770000Y-113453542D01*
X68840000Y-108390000D02*
X68840000Y-109383542D01*
X64770000Y-113453542D02*
X64770000Y-116840000D01*
X64770000Y-116840000D02*
X63770002Y-117475000D01*
X63770002Y-117475000D02*
X62410000Y-117475000D01*
X62410000Y-117475000D02*
X60960000Y-118925000D01*
X70180000Y-118592500D02*
X70332500Y-118745000D01*
X70180000Y-115570000D02*
X70180000Y-118592500D01*
X70290000Y-115460000D02*
X70180000Y-115570000D01*
X70290000Y-106940000D02*
X70290000Y-115460000D01*
X63500000Y-121075000D02*
X63500000Y-120000000D01*
X64135000Y-123825000D02*
X63500000Y-121075000D01*
X70332500Y-118745000D02*
X67310000Y-123825000D01*
X67310000Y-123825000D02*
X64135000Y-123825000D01*
X68040000Y-109335000D02*
X63500000Y-113875000D01*
X63500000Y-113875000D02*
X63500000Y-114950000D01*
X68040000Y-108390000D02*
X68040000Y-109335000D01*
X65640000Y-99890000D02*
X65640000Y-96920000D01*
X66040000Y-123190000D02*
X66040000Y-120000000D01*
X66675000Y-123190000D02*
X66040000Y-123190000D01*
X68580000Y-120015000D02*
X66675000Y-123190000D01*
X68580000Y-117475000D02*
X68565000Y-117475000D01*
X68565000Y-117475000D02*
X68580000Y-120015000D01*
X68087500Y-94380000D02*
X69122500Y-93345000D01*
X65640000Y-94380000D02*
X68087500Y-94380000D01*
X69122500Y-93345000D02*
X69757500Y-92710000D01*
X69757500Y-92710000D02*
X70332500Y-92710000D01*
X59690000Y-131927500D02*
X61442500Y-130175000D01*
X59690000Y-135270000D02*
X59690000Y-131927500D01*
X61904112Y-130636612D02*
X61442500Y-130175000D01*
X62230000Y-131445000D02*
X61904112Y-130636612D01*
X65252500Y-127635000D02*
X65252500Y-129290060D01*
X63500000Y-131445000D02*
X62230000Y-131445000D01*
X65252500Y-129290060D02*
X63500000Y-131445000D01*
X60905000Y-130175000D02*
X61442500Y-130175000D01*
X56784998Y-130175000D02*
X60905000Y-130175000D01*
X55880000Y-129540000D02*
X56784998Y-130175000D01*
X55880000Y-127000000D02*
X55880000Y-129540000D01*
X57310000Y-126365000D02*
X56835000Y-126365000D01*
X56835000Y-126365000D02*
X55880000Y-127000000D01*
X63017500Y-127000000D02*
X63017500Y-130175000D01*
X62555888Y-127461612D02*
X63017500Y-127000000D01*
X62142490Y-127875010D02*
X62555888Y-127461612D01*
X58725010Y-127875010D02*
X62142490Y-127875010D01*
X58485000Y-127635000D02*
X58725010Y-127875010D01*
X57310000Y-127635000D02*
X58485000Y-127635000D01*
X58420000Y-137795000D02*
X57150000Y-136345000D01*
X63479112Y-126538388D02*
X67080948Y-126538388D01*
X63017500Y-127000000D02*
X63479112Y-126538388D01*
X67080948Y-126538388D02*
X67945000Y-127000000D01*
X57150000Y-136345000D02*
X57150000Y-135270000D01*
X67945000Y-130175000D02*
X60325000Y-137795000D01*
X67945000Y-127000000D02*
X67945000Y-130175000D01*
X60325000Y-137795000D02*
X58420000Y-137795000D01*
X64040000Y-98690000D02*
X64040000Y-99890000D01*
X64040000Y-98422500D02*
X64040000Y-98690000D01*
X61442500Y-95825000D02*
X64040000Y-98422500D01*
X61442500Y-95250000D02*
X61442500Y-95825000D01*
X67240000Y-99890000D02*
X67240000Y-97225000D01*
X50735000Y-125095000D02*
X51910000Y-125095000D01*
X50165000Y-124525000D02*
X50735000Y-125095000D01*
X50165000Y-123190000D02*
X50165000Y-124525000D01*
X66440000Y-99890000D02*
X66440000Y-96755000D01*
X49530000Y-128905000D02*
X51910000Y-128905000D01*
X51910000Y-127635000D02*
X51910000Y-126365000D01*
X51910000Y-127635000D02*
X50165000Y-127635000D01*
X60960000Y-96520000D02*
X62865000Y-98425000D01*
X62975000Y-98425000D02*
X63240000Y-98690000D01*
X63240000Y-98690000D02*
X63240000Y-99890000D01*
X62865000Y-98425000D02*
X62975000Y-98425000D01*
D25*
X41275000Y-89425000D02*
X46550000Y-94700000D01*
X41275000Y-86995000D02*
X41275000Y-89425000D01*
D26*
X74447500Y-85572500D02*
X72390000Y-87630000D01*
X74447500Y-85090000D02*
X74447500Y-85572500D01*
X68359999Y-85310001D02*
X67310000Y-86360000D01*
X69041612Y-84628388D02*
X68359999Y-85310001D01*
X72410888Y-84628388D02*
X69041612Y-84628388D01*
X72872500Y-85090000D02*
X72410888Y-84628388D01*
X72872500Y-85090000D02*
X72872500Y-82550000D01*
M02*
