%TF.GenerationSoftware,KiCad,Pcbnew,5.0.2-bee76a0~70~ubuntu18.10.1*%
%TF.CreationDate,2019-11-15T11:24:18+01:00*%
%TF.ProjectId,Busmaster_001,4275736d-6173-4746-9572-5f3030312e6b,rev?*%
%TF.SameCoordinates,Original*%
%TF.FileFunction,Soldermask,Bot*%
%TF.FilePolarity,Negative*%
%FSLAX46Y46*%
G04 Gerber Fmt 4.6, Leading zero omitted, Abs format (unit mm)*
G04 Created by KiCad (PCBNEW 5.0.2-bee76a0~70~ubuntu18.10.1) date Fr 15 Nov 2019 11:24:18 CET*
%MOMM*%
%LPD*%
G01*
G04 APERTURE LIST*
%ADD10C,0.100000*%
G04 APERTURE END LIST*
D10*
G36*
X30187560Y-140403759D02*
X30678928Y-140607290D01*
X30678930Y-140607291D01*
X30734096Y-140644152D01*
X31121153Y-140902775D01*
X31497225Y-141278847D01*
X31792710Y-141721072D01*
X31996241Y-142212440D01*
X32100000Y-142734072D01*
X32100000Y-143265928D01*
X31996241Y-143787560D01*
X31792710Y-144278928D01*
X31497225Y-144721153D01*
X31121153Y-145097225D01*
X31121150Y-145097227D01*
X30678930Y-145392709D01*
X30678929Y-145392710D01*
X30678928Y-145392710D01*
X30187560Y-145596241D01*
X29665928Y-145700000D01*
X29134072Y-145700000D01*
X28612440Y-145596241D01*
X28121072Y-145392710D01*
X28121071Y-145392710D01*
X28121070Y-145392709D01*
X27678850Y-145097227D01*
X27678847Y-145097225D01*
X27302775Y-144721153D01*
X27007290Y-144278928D01*
X26803759Y-143787560D01*
X26700000Y-143265928D01*
X26700000Y-142734072D01*
X26803759Y-142212440D01*
X27007290Y-141721072D01*
X27302775Y-141278847D01*
X27678847Y-140902775D01*
X28065904Y-140644152D01*
X28121070Y-140607291D01*
X28121072Y-140607290D01*
X28612440Y-140403759D01*
X29134072Y-140300000D01*
X29665928Y-140300000D01*
X30187560Y-140403759D01*
X30187560Y-140403759D01*
G37*
G36*
X78877971Y-140597076D02*
X79114639Y-140644152D01*
X79560510Y-140828838D01*
X79961784Y-141096960D01*
X80303040Y-141438216D01*
X80571162Y-141839490D01*
X80755848Y-142285361D01*
X80850000Y-142758696D01*
X80850000Y-143241304D01*
X80755848Y-143714639D01*
X80571162Y-144160510D01*
X80303040Y-144561784D01*
X79961784Y-144903040D01*
X79560510Y-145171162D01*
X79114639Y-145355848D01*
X78929326Y-145392709D01*
X78641305Y-145450000D01*
X78158695Y-145450000D01*
X77870674Y-145392709D01*
X77685361Y-145355848D01*
X77239490Y-145171162D01*
X76838216Y-144903040D01*
X76496960Y-144561784D01*
X76228838Y-144160510D01*
X76044152Y-143714639D01*
X75950000Y-143241304D01*
X75950000Y-142758696D01*
X76044152Y-142285361D01*
X76228838Y-141839490D01*
X76496960Y-141438216D01*
X76838216Y-141096960D01*
X77239490Y-140828838D01*
X77685361Y-140644152D01*
X77922029Y-140597076D01*
X78158695Y-140550000D01*
X78641305Y-140550000D01*
X78877971Y-140597076D01*
X78877971Y-140597076D01*
G37*
G36*
X68560000Y-138333611D02*
X68562402Y-138357997D01*
X68569515Y-138381446D01*
X68581066Y-138403057D01*
X68596612Y-138421999D01*
X68615554Y-138437545D01*
X68637165Y-138449096D01*
X68660614Y-138456209D01*
X68685000Y-138458611D01*
X68709386Y-138456209D01*
X68732835Y-138449096D01*
X68754446Y-138437545D01*
X68773388Y-138421999D01*
X68788934Y-138403058D01*
X68879065Y-138268168D01*
X69053169Y-138094064D01*
X69257904Y-137957264D01*
X69485388Y-137863037D01*
X69726885Y-137815000D01*
X69973115Y-137815000D01*
X70214612Y-137863037D01*
X70442096Y-137957264D01*
X70646831Y-138094064D01*
X70820936Y-138268169D01*
X70957736Y-138472904D01*
X71004515Y-138585839D01*
X71016066Y-138607450D01*
X71031611Y-138626392D01*
X71050554Y-138641938D01*
X71072164Y-138653489D01*
X71095613Y-138660602D01*
X71120000Y-138663004D01*
X71144386Y-138660602D01*
X71167835Y-138653489D01*
X71189446Y-138641938D01*
X71208388Y-138626393D01*
X71223934Y-138607450D01*
X71235485Y-138585839D01*
X71282264Y-138472904D01*
X71419064Y-138268169D01*
X71593169Y-138094064D01*
X71797904Y-137957264D01*
X72025388Y-137863037D01*
X72266885Y-137815000D01*
X72513115Y-137815000D01*
X72754612Y-137863037D01*
X72982096Y-137957264D01*
X73186831Y-138094064D01*
X73360936Y-138268169D01*
X73497736Y-138472904D01*
X73591963Y-138700388D01*
X73640000Y-138941885D01*
X73640000Y-139188115D01*
X73591963Y-139429612D01*
X73497736Y-139657096D01*
X73360936Y-139861831D01*
X73186831Y-140035936D01*
X72982096Y-140172736D01*
X72754612Y-140266963D01*
X72513115Y-140315000D01*
X72266885Y-140315000D01*
X72025388Y-140266963D01*
X71797904Y-140172736D01*
X71593169Y-140035936D01*
X71419064Y-139861831D01*
X71282264Y-139657096D01*
X71235485Y-139544161D01*
X71223934Y-139522550D01*
X71208389Y-139503608D01*
X71189446Y-139488062D01*
X71167836Y-139476511D01*
X71144387Y-139469398D01*
X71120000Y-139466996D01*
X71095614Y-139469398D01*
X71072165Y-139476511D01*
X71050554Y-139488062D01*
X71031612Y-139503607D01*
X71016066Y-139522550D01*
X71004515Y-139544161D01*
X70957736Y-139657096D01*
X70820936Y-139861831D01*
X70646831Y-140035936D01*
X70442096Y-140172736D01*
X70214612Y-140266963D01*
X69973115Y-140315000D01*
X69726885Y-140315000D01*
X69485388Y-140266963D01*
X69257904Y-140172736D01*
X69053169Y-140035936D01*
X68879065Y-139861832D01*
X68788934Y-139726942D01*
X68773388Y-139708000D01*
X68754446Y-139692455D01*
X68732835Y-139680904D01*
X68709386Y-139673791D01*
X68685000Y-139671389D01*
X68660613Y-139673791D01*
X68637164Y-139680904D01*
X68615553Y-139692455D01*
X68596611Y-139708001D01*
X68581066Y-139726943D01*
X68569515Y-139748554D01*
X68562402Y-139772003D01*
X68560000Y-139796389D01*
X68560000Y-140315000D01*
X66060000Y-140315000D01*
X66060000Y-137815000D01*
X68560000Y-137815000D01*
X68560000Y-138333611D01*
X68560000Y-138333611D01*
G37*
G36*
X77328707Y-137117597D02*
X77405836Y-137125193D01*
X77537787Y-137165220D01*
X77603763Y-137185233D01*
X77786172Y-137282733D01*
X77946054Y-137413946D01*
X78077267Y-137573828D01*
X78174767Y-137756237D01*
X78174767Y-137756238D01*
X78234807Y-137954164D01*
X78255080Y-138160000D01*
X78234807Y-138365836D01*
X78217770Y-138421999D01*
X78174767Y-138563763D01*
X78077267Y-138746172D01*
X77946054Y-138906054D01*
X77786172Y-139037267D01*
X77603763Y-139134767D01*
X77537787Y-139154780D01*
X77405836Y-139194807D01*
X77328707Y-139202403D01*
X77251580Y-139210000D01*
X77148420Y-139210000D01*
X77071293Y-139202403D01*
X76994164Y-139194807D01*
X76862213Y-139154780D01*
X76796237Y-139134767D01*
X76613828Y-139037267D01*
X76453946Y-138906054D01*
X76322733Y-138746172D01*
X76225233Y-138563763D01*
X76182230Y-138421999D01*
X76165193Y-138365836D01*
X76144920Y-138160000D01*
X76165193Y-137954164D01*
X76225233Y-137756238D01*
X76225233Y-137756237D01*
X76322733Y-137573828D01*
X76453946Y-137413946D01*
X76613828Y-137282733D01*
X76796237Y-137185233D01*
X76862213Y-137165220D01*
X76994164Y-137125193D01*
X77071293Y-137117597D01*
X77148420Y-137110000D01*
X77251580Y-137110000D01*
X77328707Y-137117597D01*
X77328707Y-137117597D01*
G37*
G36*
X79868707Y-137117597D02*
X79945836Y-137125193D01*
X80077787Y-137165220D01*
X80143763Y-137185233D01*
X80326172Y-137282733D01*
X80486054Y-137413946D01*
X80617267Y-137573828D01*
X80714767Y-137756237D01*
X80714767Y-137756238D01*
X80774807Y-137954164D01*
X80795080Y-138160000D01*
X80774807Y-138365836D01*
X80757770Y-138421999D01*
X80714767Y-138563763D01*
X80617267Y-138746172D01*
X80486054Y-138906054D01*
X80326172Y-139037267D01*
X80143763Y-139134767D01*
X80077787Y-139154780D01*
X79945836Y-139194807D01*
X79868707Y-139202403D01*
X79791580Y-139210000D01*
X79688420Y-139210000D01*
X79611293Y-139202403D01*
X79534164Y-139194807D01*
X79402213Y-139154780D01*
X79336237Y-139134767D01*
X79153828Y-139037267D01*
X78993946Y-138906054D01*
X78862733Y-138746172D01*
X78765233Y-138563763D01*
X78722230Y-138421999D01*
X78705193Y-138365836D01*
X78684920Y-138160000D01*
X78705193Y-137954164D01*
X78765233Y-137756238D01*
X78765233Y-137756237D01*
X78862733Y-137573828D01*
X78993946Y-137413946D01*
X79153828Y-137282733D01*
X79336237Y-137185233D01*
X79402213Y-137165220D01*
X79534164Y-137125193D01*
X79611293Y-137117597D01*
X79688420Y-137110000D01*
X79791580Y-137110000D01*
X79868707Y-137117597D01*
X79868707Y-137117597D01*
G37*
G36*
X77328707Y-134577597D02*
X77405836Y-134585193D01*
X77537787Y-134625220D01*
X77603763Y-134645233D01*
X77786172Y-134742733D01*
X77946054Y-134873946D01*
X78077267Y-135033828D01*
X78174767Y-135216237D01*
X78174767Y-135216238D01*
X78234807Y-135414164D01*
X78255080Y-135620000D01*
X78234807Y-135825836D01*
X78194780Y-135957787D01*
X78174767Y-136023763D01*
X78077267Y-136206172D01*
X77946054Y-136366054D01*
X77786172Y-136497267D01*
X77603763Y-136594767D01*
X77537787Y-136614780D01*
X77405836Y-136654807D01*
X77328707Y-136662404D01*
X77251580Y-136670000D01*
X77148420Y-136670000D01*
X77071293Y-136662404D01*
X76994164Y-136654807D01*
X76862213Y-136614780D01*
X76796237Y-136594767D01*
X76613828Y-136497267D01*
X76453946Y-136366054D01*
X76322733Y-136206172D01*
X76225233Y-136023763D01*
X76205220Y-135957787D01*
X76165193Y-135825836D01*
X76144920Y-135620000D01*
X76165193Y-135414164D01*
X76225233Y-135216238D01*
X76225233Y-135216237D01*
X76322733Y-135033828D01*
X76453946Y-134873946D01*
X76613828Y-134742733D01*
X76796237Y-134645233D01*
X76862213Y-134625220D01*
X76994164Y-134585193D01*
X77071293Y-134577597D01*
X77148420Y-134570000D01*
X77251580Y-134570000D01*
X77328707Y-134577597D01*
X77328707Y-134577597D01*
G37*
G36*
X79868707Y-134577597D02*
X79945836Y-134585193D01*
X80077787Y-134625220D01*
X80143763Y-134645233D01*
X80326172Y-134742733D01*
X80486054Y-134873946D01*
X80617267Y-135033828D01*
X80714767Y-135216237D01*
X80714767Y-135216238D01*
X80774807Y-135414164D01*
X80795080Y-135620000D01*
X80774807Y-135825836D01*
X80734780Y-135957787D01*
X80714767Y-136023763D01*
X80617267Y-136206172D01*
X80486054Y-136366054D01*
X80326172Y-136497267D01*
X80143763Y-136594767D01*
X80077787Y-136614780D01*
X79945836Y-136654807D01*
X79868707Y-136662404D01*
X79791580Y-136670000D01*
X79688420Y-136670000D01*
X79611293Y-136662404D01*
X79534164Y-136654807D01*
X79402213Y-136614780D01*
X79336237Y-136594767D01*
X79153828Y-136497267D01*
X78993946Y-136366054D01*
X78862733Y-136206172D01*
X78765233Y-136023763D01*
X78745220Y-135957787D01*
X78705193Y-135825836D01*
X78684920Y-135620000D01*
X78705193Y-135414164D01*
X78765233Y-135216238D01*
X78765233Y-135216237D01*
X78862733Y-135033828D01*
X78993946Y-134873946D01*
X79153828Y-134742733D01*
X79336237Y-134645233D01*
X79402213Y-134625220D01*
X79534164Y-134585193D01*
X79611293Y-134577597D01*
X79688420Y-134570000D01*
X79791580Y-134570000D01*
X79868707Y-134577597D01*
X79868707Y-134577597D01*
G37*
G36*
X46830603Y-133774968D02*
X46830606Y-133774969D01*
X46830605Y-133774969D01*
X47005678Y-133847486D01*
X47005679Y-133847487D01*
X47163241Y-133952767D01*
X47297233Y-134086759D01*
X47297234Y-134086761D01*
X47402514Y-134244322D01*
X47458603Y-134379734D01*
X47475032Y-134419397D01*
X47512000Y-134605250D01*
X47512000Y-134794750D01*
X47475032Y-134980603D01*
X47475031Y-134980605D01*
X47402514Y-135155678D01*
X47402513Y-135155679D01*
X47297233Y-135313241D01*
X47163241Y-135447233D01*
X47083923Y-135500232D01*
X47005678Y-135552514D01*
X46870266Y-135608603D01*
X46830603Y-135625032D01*
X46644750Y-135662000D01*
X46455250Y-135662000D01*
X46269397Y-135625032D01*
X46229734Y-135608603D01*
X46094322Y-135552514D01*
X46016077Y-135500232D01*
X45936759Y-135447233D01*
X45802767Y-135313241D01*
X45697487Y-135155679D01*
X45697486Y-135155678D01*
X45624969Y-134980605D01*
X45624968Y-134980603D01*
X45588000Y-134794750D01*
X45588000Y-134605250D01*
X45624968Y-134419397D01*
X45641397Y-134379734D01*
X45697486Y-134244322D01*
X45802766Y-134086761D01*
X45802767Y-134086759D01*
X45936759Y-133952767D01*
X46094321Y-133847487D01*
X46094322Y-133847486D01*
X46269395Y-133774969D01*
X46269394Y-133774969D01*
X46269397Y-133774968D01*
X46455250Y-133738000D01*
X46644750Y-133738000D01*
X46830603Y-133774968D01*
X46830603Y-133774968D01*
G37*
G36*
X29330603Y-133774968D02*
X29330606Y-133774969D01*
X29330605Y-133774969D01*
X29505678Y-133847486D01*
X29505679Y-133847487D01*
X29663241Y-133952767D01*
X29797233Y-134086759D01*
X29797234Y-134086761D01*
X29902514Y-134244322D01*
X29958603Y-134379734D01*
X29975032Y-134419397D01*
X30012000Y-134605250D01*
X30012000Y-134794750D01*
X29975032Y-134980603D01*
X29975031Y-134980605D01*
X29902514Y-135155678D01*
X29902513Y-135155679D01*
X29797233Y-135313241D01*
X29663241Y-135447233D01*
X29583923Y-135500232D01*
X29505678Y-135552514D01*
X29370266Y-135608603D01*
X29330603Y-135625032D01*
X29144750Y-135662000D01*
X28955250Y-135662000D01*
X28769397Y-135625032D01*
X28729734Y-135608603D01*
X28594322Y-135552514D01*
X28516077Y-135500232D01*
X28436759Y-135447233D01*
X28302767Y-135313241D01*
X28197487Y-135155679D01*
X28197486Y-135155678D01*
X28124969Y-134980605D01*
X28124968Y-134980603D01*
X28088000Y-134794750D01*
X28088000Y-134605250D01*
X28124968Y-134419397D01*
X28141397Y-134379734D01*
X28197486Y-134244322D01*
X28302766Y-134086761D01*
X28302767Y-134086759D01*
X28436759Y-133952767D01*
X28594321Y-133847487D01*
X28594322Y-133847486D01*
X28769395Y-133774969D01*
X28769394Y-133774969D01*
X28769397Y-133774968D01*
X28955250Y-133738000D01*
X29144750Y-133738000D01*
X29330603Y-133774968D01*
X29330603Y-133774968D01*
G37*
G36*
X77328707Y-132037597D02*
X77405836Y-132045193D01*
X77537787Y-132085220D01*
X77603763Y-132105233D01*
X77786172Y-132202733D01*
X77946054Y-132333946D01*
X78077267Y-132493828D01*
X78174767Y-132676237D01*
X78174767Y-132676238D01*
X78234807Y-132874164D01*
X78255080Y-133080000D01*
X78234807Y-133285836D01*
X78194780Y-133417787D01*
X78174767Y-133483763D01*
X78077267Y-133666172D01*
X77946054Y-133826054D01*
X77786172Y-133957267D01*
X77603763Y-134054767D01*
X77537787Y-134074780D01*
X77405836Y-134114807D01*
X77328707Y-134122403D01*
X77251580Y-134130000D01*
X77148420Y-134130000D01*
X77071293Y-134122403D01*
X76994164Y-134114807D01*
X76862213Y-134074780D01*
X76796237Y-134054767D01*
X76613828Y-133957267D01*
X76453946Y-133826054D01*
X76322733Y-133666172D01*
X76225233Y-133483763D01*
X76205220Y-133417787D01*
X76165193Y-133285836D01*
X76144920Y-133080000D01*
X76165193Y-132874164D01*
X76225233Y-132676238D01*
X76225233Y-132676237D01*
X76322733Y-132493828D01*
X76453946Y-132333946D01*
X76613828Y-132202733D01*
X76796237Y-132105233D01*
X76862213Y-132085220D01*
X76994164Y-132045193D01*
X77071293Y-132037597D01*
X77148420Y-132030000D01*
X77251580Y-132030000D01*
X77328707Y-132037597D01*
X77328707Y-132037597D01*
G37*
G36*
X79868707Y-132037597D02*
X79945836Y-132045193D01*
X80077787Y-132085220D01*
X80143763Y-132105233D01*
X80326172Y-132202733D01*
X80486054Y-132333946D01*
X80617267Y-132493828D01*
X80714767Y-132676237D01*
X80714767Y-132676238D01*
X80774807Y-132874164D01*
X80795080Y-133080000D01*
X80774807Y-133285836D01*
X80734780Y-133417787D01*
X80714767Y-133483763D01*
X80617267Y-133666172D01*
X80486054Y-133826054D01*
X80326172Y-133957267D01*
X80143763Y-134054767D01*
X80077787Y-134074780D01*
X79945836Y-134114807D01*
X79868707Y-134122403D01*
X79791580Y-134130000D01*
X79688420Y-134130000D01*
X79611293Y-134122403D01*
X79534164Y-134114807D01*
X79402213Y-134074780D01*
X79336237Y-134054767D01*
X79153828Y-133957267D01*
X78993946Y-133826054D01*
X78862733Y-133666172D01*
X78765233Y-133483763D01*
X78745220Y-133417787D01*
X78705193Y-133285836D01*
X78684920Y-133080000D01*
X78705193Y-132874164D01*
X78765233Y-132676238D01*
X78765233Y-132676237D01*
X78862733Y-132493828D01*
X78993946Y-132333946D01*
X79153828Y-132202733D01*
X79336237Y-132105233D01*
X79402213Y-132085220D01*
X79534164Y-132045193D01*
X79611293Y-132037597D01*
X79688420Y-132030000D01*
X79791580Y-132030000D01*
X79868707Y-132037597D01*
X79868707Y-132037597D01*
G37*
G36*
X77328707Y-129497597D02*
X77405836Y-129505193D01*
X77537787Y-129545220D01*
X77603763Y-129565233D01*
X77786172Y-129662733D01*
X77946054Y-129793946D01*
X78077267Y-129953828D01*
X78174767Y-130136237D01*
X78174767Y-130136238D01*
X78234807Y-130334164D01*
X78255080Y-130540000D01*
X78234807Y-130745836D01*
X78194780Y-130877787D01*
X78174767Y-130943763D01*
X78077267Y-131126172D01*
X77946054Y-131286054D01*
X77786172Y-131417267D01*
X77603763Y-131514767D01*
X77537787Y-131534780D01*
X77405836Y-131574807D01*
X77328707Y-131582403D01*
X77251580Y-131590000D01*
X77148420Y-131590000D01*
X77071293Y-131582403D01*
X76994164Y-131574807D01*
X76862213Y-131534780D01*
X76796237Y-131514767D01*
X76613828Y-131417267D01*
X76453946Y-131286054D01*
X76322733Y-131126172D01*
X76225233Y-130943763D01*
X76205220Y-130877787D01*
X76165193Y-130745836D01*
X76144920Y-130540000D01*
X76165193Y-130334164D01*
X76225233Y-130136238D01*
X76225233Y-130136237D01*
X76322733Y-129953828D01*
X76453946Y-129793946D01*
X76613828Y-129662733D01*
X76796237Y-129565233D01*
X76862213Y-129545220D01*
X76994164Y-129505193D01*
X77071293Y-129497597D01*
X77148420Y-129490000D01*
X77251580Y-129490000D01*
X77328707Y-129497597D01*
X77328707Y-129497597D01*
G37*
G36*
X79868707Y-129497597D02*
X79945836Y-129505193D01*
X80077787Y-129545220D01*
X80143763Y-129565233D01*
X80326172Y-129662733D01*
X80486054Y-129793946D01*
X80617267Y-129953828D01*
X80714767Y-130136237D01*
X80714767Y-130136238D01*
X80774807Y-130334164D01*
X80795080Y-130540000D01*
X80774807Y-130745836D01*
X80734780Y-130877787D01*
X80714767Y-130943763D01*
X80617267Y-131126172D01*
X80486054Y-131286054D01*
X80326172Y-131417267D01*
X80143763Y-131514767D01*
X80077787Y-131534780D01*
X79945836Y-131574807D01*
X79868707Y-131582403D01*
X79791580Y-131590000D01*
X79688420Y-131590000D01*
X79611293Y-131582403D01*
X79534164Y-131574807D01*
X79402213Y-131534780D01*
X79336237Y-131514767D01*
X79153828Y-131417267D01*
X78993946Y-131286054D01*
X78862733Y-131126172D01*
X78765233Y-130943763D01*
X78745220Y-130877787D01*
X78705193Y-130745836D01*
X78684920Y-130540000D01*
X78705193Y-130334164D01*
X78765233Y-130136238D01*
X78765233Y-130136237D01*
X78862733Y-129953828D01*
X78993946Y-129793946D01*
X79153828Y-129662733D01*
X79336237Y-129565233D01*
X79402213Y-129545220D01*
X79534164Y-129505193D01*
X79611293Y-129497597D01*
X79688420Y-129490000D01*
X79791580Y-129490000D01*
X79868707Y-129497597D01*
X79868707Y-129497597D01*
G37*
G36*
X79868707Y-126957597D02*
X79945836Y-126965193D01*
X80077787Y-127005220D01*
X80143763Y-127025233D01*
X80326172Y-127122733D01*
X80486054Y-127253946D01*
X80617267Y-127413828D01*
X80714767Y-127596237D01*
X80714767Y-127596238D01*
X80774807Y-127794164D01*
X80795080Y-128000000D01*
X80774807Y-128205836D01*
X80734780Y-128337787D01*
X80714767Y-128403763D01*
X80617267Y-128586172D01*
X80486054Y-128746054D01*
X80326172Y-128877267D01*
X80143763Y-128974767D01*
X80077787Y-128994780D01*
X79945836Y-129034807D01*
X79868707Y-129042403D01*
X79791580Y-129050000D01*
X79688420Y-129050000D01*
X79611293Y-129042403D01*
X79534164Y-129034807D01*
X79402213Y-128994780D01*
X79336237Y-128974767D01*
X79153828Y-128877267D01*
X78993946Y-128746054D01*
X78862733Y-128586172D01*
X78765233Y-128403763D01*
X78745220Y-128337787D01*
X78705193Y-128205836D01*
X78684920Y-128000000D01*
X78705193Y-127794164D01*
X78765233Y-127596238D01*
X78765233Y-127596237D01*
X78862733Y-127413828D01*
X78993946Y-127253946D01*
X79153828Y-127122733D01*
X79336237Y-127025233D01*
X79402213Y-127005220D01*
X79534164Y-126965193D01*
X79611293Y-126957597D01*
X79688420Y-126950000D01*
X79791580Y-126950000D01*
X79868707Y-126957597D01*
X79868707Y-126957597D01*
G37*
G36*
X77328707Y-126957597D02*
X77405836Y-126965193D01*
X77537787Y-127005220D01*
X77603763Y-127025233D01*
X77786172Y-127122733D01*
X77946054Y-127253946D01*
X78077267Y-127413828D01*
X78174767Y-127596237D01*
X78174767Y-127596238D01*
X78234807Y-127794164D01*
X78255080Y-128000000D01*
X78234807Y-128205836D01*
X78194780Y-128337787D01*
X78174767Y-128403763D01*
X78077267Y-128586172D01*
X77946054Y-128746054D01*
X77786172Y-128877267D01*
X77603763Y-128974767D01*
X77537787Y-128994780D01*
X77405836Y-129034807D01*
X77328707Y-129042403D01*
X77251580Y-129050000D01*
X77148420Y-129050000D01*
X77071293Y-129042403D01*
X76994164Y-129034807D01*
X76862213Y-128994780D01*
X76796237Y-128974767D01*
X76613828Y-128877267D01*
X76453946Y-128746054D01*
X76322733Y-128586172D01*
X76225233Y-128403763D01*
X76205220Y-128337787D01*
X76165193Y-128205836D01*
X76144920Y-128000000D01*
X76165193Y-127794164D01*
X76225233Y-127596238D01*
X76225233Y-127596237D01*
X76322733Y-127413828D01*
X76453946Y-127253946D01*
X76613828Y-127122733D01*
X76796237Y-127025233D01*
X76862213Y-127005220D01*
X76994164Y-126965193D01*
X77071293Y-126957597D01*
X77148420Y-126950000D01*
X77251580Y-126950000D01*
X77328707Y-126957597D01*
X77328707Y-126957597D01*
G37*
G36*
X77328707Y-124417597D02*
X77405836Y-124425193D01*
X77537787Y-124465220D01*
X77603763Y-124485233D01*
X77786172Y-124582733D01*
X77946054Y-124713946D01*
X78077267Y-124873828D01*
X78174767Y-125056237D01*
X78174767Y-125056238D01*
X78234807Y-125254164D01*
X78255080Y-125460000D01*
X78234807Y-125665836D01*
X78194780Y-125797787D01*
X78174767Y-125863763D01*
X78077267Y-126046172D01*
X77946054Y-126206054D01*
X77786172Y-126337267D01*
X77603763Y-126434767D01*
X77537787Y-126454780D01*
X77405836Y-126494807D01*
X77328707Y-126502404D01*
X77251580Y-126510000D01*
X77148420Y-126510000D01*
X77071293Y-126502404D01*
X76994164Y-126494807D01*
X76862213Y-126454780D01*
X76796237Y-126434767D01*
X76613828Y-126337267D01*
X76453946Y-126206054D01*
X76322733Y-126046172D01*
X76225233Y-125863763D01*
X76205220Y-125797787D01*
X76165193Y-125665836D01*
X76144920Y-125460000D01*
X76165193Y-125254164D01*
X76225233Y-125056238D01*
X76225233Y-125056237D01*
X76322733Y-124873828D01*
X76453946Y-124713946D01*
X76613828Y-124582733D01*
X76796237Y-124485233D01*
X76862213Y-124465220D01*
X76994164Y-124425193D01*
X77071293Y-124417597D01*
X77148420Y-124410000D01*
X77251580Y-124410000D01*
X77328707Y-124417597D01*
X77328707Y-124417597D01*
G37*
G36*
X79868707Y-124417597D02*
X79945836Y-124425193D01*
X80077787Y-124465220D01*
X80143763Y-124485233D01*
X80326172Y-124582733D01*
X80486054Y-124713946D01*
X80617267Y-124873828D01*
X80714767Y-125056237D01*
X80714767Y-125056238D01*
X80774807Y-125254164D01*
X80795080Y-125460000D01*
X80774807Y-125665836D01*
X80734780Y-125797787D01*
X80714767Y-125863763D01*
X80617267Y-126046172D01*
X80486054Y-126206054D01*
X80326172Y-126337267D01*
X80143763Y-126434767D01*
X80077787Y-126454780D01*
X79945836Y-126494807D01*
X79868707Y-126502404D01*
X79791580Y-126510000D01*
X79688420Y-126510000D01*
X79611293Y-126502404D01*
X79534164Y-126494807D01*
X79402213Y-126454780D01*
X79336237Y-126434767D01*
X79153828Y-126337267D01*
X78993946Y-126206054D01*
X78862733Y-126046172D01*
X78765233Y-125863763D01*
X78745220Y-125797787D01*
X78705193Y-125665836D01*
X78684920Y-125460000D01*
X78705193Y-125254164D01*
X78765233Y-125056238D01*
X78765233Y-125056237D01*
X78862733Y-124873828D01*
X78993946Y-124713946D01*
X79153828Y-124582733D01*
X79336237Y-124485233D01*
X79402213Y-124465220D01*
X79534164Y-124425193D01*
X79611293Y-124417597D01*
X79688420Y-124410000D01*
X79791580Y-124410000D01*
X79868707Y-124417597D01*
X79868707Y-124417597D01*
G37*
G36*
X77328707Y-121877597D02*
X77405836Y-121885193D01*
X77537787Y-121925220D01*
X77603763Y-121945233D01*
X77786172Y-122042733D01*
X77946054Y-122173946D01*
X78077267Y-122333828D01*
X78174767Y-122516237D01*
X78174767Y-122516238D01*
X78234807Y-122714164D01*
X78255080Y-122920000D01*
X78234807Y-123125836D01*
X78194780Y-123257787D01*
X78174767Y-123323763D01*
X78077267Y-123506172D01*
X77946054Y-123666054D01*
X77786172Y-123797267D01*
X77603763Y-123894767D01*
X77537787Y-123914780D01*
X77405836Y-123954807D01*
X77328707Y-123962403D01*
X77251580Y-123970000D01*
X77148420Y-123970000D01*
X77071293Y-123962403D01*
X76994164Y-123954807D01*
X76862213Y-123914780D01*
X76796237Y-123894767D01*
X76613828Y-123797267D01*
X76453946Y-123666054D01*
X76322733Y-123506172D01*
X76225233Y-123323763D01*
X76205220Y-123257787D01*
X76165193Y-123125836D01*
X76144920Y-122920000D01*
X76165193Y-122714164D01*
X76225233Y-122516238D01*
X76225233Y-122516237D01*
X76322733Y-122333828D01*
X76453946Y-122173946D01*
X76613828Y-122042733D01*
X76796237Y-121945233D01*
X76862213Y-121925220D01*
X76994164Y-121885193D01*
X77071293Y-121877597D01*
X77148420Y-121870000D01*
X77251580Y-121870000D01*
X77328707Y-121877597D01*
X77328707Y-121877597D01*
G37*
G36*
X79868707Y-121877597D02*
X79945836Y-121885193D01*
X80077787Y-121925220D01*
X80143763Y-121945233D01*
X80326172Y-122042733D01*
X80486054Y-122173946D01*
X80617267Y-122333828D01*
X80714767Y-122516237D01*
X80714767Y-122516238D01*
X80774807Y-122714164D01*
X80795080Y-122920000D01*
X80774807Y-123125836D01*
X80734780Y-123257787D01*
X80714767Y-123323763D01*
X80617267Y-123506172D01*
X80486054Y-123666054D01*
X80326172Y-123797267D01*
X80143763Y-123894767D01*
X80077787Y-123914780D01*
X79945836Y-123954807D01*
X79868707Y-123962403D01*
X79791580Y-123970000D01*
X79688420Y-123970000D01*
X79611293Y-123962403D01*
X79534164Y-123954807D01*
X79402213Y-123914780D01*
X79336237Y-123894767D01*
X79153828Y-123797267D01*
X78993946Y-123666054D01*
X78862733Y-123506172D01*
X78765233Y-123323763D01*
X78745220Y-123257787D01*
X78705193Y-123125836D01*
X78684920Y-122920000D01*
X78705193Y-122714164D01*
X78765233Y-122516238D01*
X78765233Y-122516237D01*
X78862733Y-122333828D01*
X78993946Y-122173946D01*
X79153828Y-122042733D01*
X79336237Y-121945233D01*
X79402213Y-121925220D01*
X79534164Y-121885193D01*
X79611293Y-121877597D01*
X79688420Y-121870000D01*
X79791580Y-121870000D01*
X79868707Y-121877597D01*
X79868707Y-121877597D01*
G37*
G36*
X77328707Y-119337596D02*
X77405836Y-119345193D01*
X77537787Y-119385220D01*
X77603763Y-119405233D01*
X77786172Y-119502733D01*
X77946054Y-119633946D01*
X78077267Y-119793828D01*
X78174767Y-119976237D01*
X78174767Y-119976238D01*
X78234807Y-120174164D01*
X78255080Y-120380000D01*
X78234807Y-120585836D01*
X78194780Y-120717787D01*
X78174767Y-120783763D01*
X78077267Y-120966172D01*
X77946054Y-121126054D01*
X77786172Y-121257267D01*
X77603763Y-121354767D01*
X77537787Y-121374780D01*
X77405836Y-121414807D01*
X77328707Y-121422403D01*
X77251580Y-121430000D01*
X77148420Y-121430000D01*
X77071293Y-121422403D01*
X76994164Y-121414807D01*
X76862213Y-121374780D01*
X76796237Y-121354767D01*
X76613828Y-121257267D01*
X76453946Y-121126054D01*
X76322733Y-120966172D01*
X76225233Y-120783763D01*
X76205220Y-120717787D01*
X76165193Y-120585836D01*
X76144920Y-120380000D01*
X76165193Y-120174164D01*
X76225233Y-119976238D01*
X76225233Y-119976237D01*
X76322733Y-119793828D01*
X76453946Y-119633946D01*
X76613828Y-119502733D01*
X76796237Y-119405233D01*
X76862213Y-119385220D01*
X76994164Y-119345193D01*
X77071293Y-119337596D01*
X77148420Y-119330000D01*
X77251580Y-119330000D01*
X77328707Y-119337596D01*
X77328707Y-119337596D01*
G37*
G36*
X79868707Y-119337596D02*
X79945836Y-119345193D01*
X80077787Y-119385220D01*
X80143763Y-119405233D01*
X80326172Y-119502733D01*
X80486054Y-119633946D01*
X80617267Y-119793828D01*
X80714767Y-119976237D01*
X80714767Y-119976238D01*
X80774807Y-120174164D01*
X80795080Y-120380000D01*
X80774807Y-120585836D01*
X80734780Y-120717787D01*
X80714767Y-120783763D01*
X80617267Y-120966172D01*
X80486054Y-121126054D01*
X80326172Y-121257267D01*
X80143763Y-121354767D01*
X80077787Y-121374780D01*
X79945836Y-121414807D01*
X79868707Y-121422403D01*
X79791580Y-121430000D01*
X79688420Y-121430000D01*
X79611293Y-121422403D01*
X79534164Y-121414807D01*
X79402213Y-121374780D01*
X79336237Y-121354767D01*
X79153828Y-121257267D01*
X78993946Y-121126054D01*
X78862733Y-120966172D01*
X78765233Y-120783763D01*
X78745220Y-120717787D01*
X78705193Y-120585836D01*
X78684920Y-120380000D01*
X78705193Y-120174164D01*
X78765233Y-119976238D01*
X78765233Y-119976237D01*
X78862733Y-119793828D01*
X78993946Y-119633946D01*
X79153828Y-119502733D01*
X79336237Y-119405233D01*
X79402213Y-119385220D01*
X79534164Y-119345193D01*
X79611293Y-119337596D01*
X79688420Y-119330000D01*
X79791580Y-119330000D01*
X79868707Y-119337596D01*
X79868707Y-119337596D01*
G37*
G36*
X79868707Y-116797596D02*
X79945836Y-116805193D01*
X80077787Y-116845220D01*
X80143763Y-116865233D01*
X80326172Y-116962733D01*
X80486054Y-117093946D01*
X80617267Y-117253828D01*
X80714767Y-117436237D01*
X80714767Y-117436238D01*
X80774807Y-117634164D01*
X80795080Y-117840000D01*
X80774807Y-118045836D01*
X80734780Y-118177787D01*
X80714767Y-118243763D01*
X80617267Y-118426172D01*
X80486054Y-118586054D01*
X80326172Y-118717267D01*
X80143763Y-118814767D01*
X80077787Y-118834780D01*
X79945836Y-118874807D01*
X79868707Y-118882404D01*
X79791580Y-118890000D01*
X79688420Y-118890000D01*
X79611293Y-118882404D01*
X79534164Y-118874807D01*
X79402213Y-118834780D01*
X79336237Y-118814767D01*
X79153828Y-118717267D01*
X78993946Y-118586054D01*
X78862733Y-118426172D01*
X78765233Y-118243763D01*
X78745220Y-118177787D01*
X78705193Y-118045836D01*
X78684920Y-117840000D01*
X78705193Y-117634164D01*
X78765233Y-117436238D01*
X78765233Y-117436237D01*
X78862733Y-117253828D01*
X78993946Y-117093946D01*
X79153828Y-116962733D01*
X79336237Y-116865233D01*
X79402213Y-116845220D01*
X79534164Y-116805193D01*
X79611293Y-116797596D01*
X79688420Y-116790000D01*
X79791580Y-116790000D01*
X79868707Y-116797596D01*
X79868707Y-116797596D01*
G37*
G36*
X77328707Y-116797596D02*
X77405836Y-116805193D01*
X77537787Y-116845220D01*
X77603763Y-116865233D01*
X77786172Y-116962733D01*
X77946054Y-117093946D01*
X78077267Y-117253828D01*
X78174767Y-117436237D01*
X78174767Y-117436238D01*
X78234807Y-117634164D01*
X78255080Y-117840000D01*
X78234807Y-118045836D01*
X78194780Y-118177787D01*
X78174767Y-118243763D01*
X78077267Y-118426172D01*
X77946054Y-118586054D01*
X77786172Y-118717267D01*
X77603763Y-118814767D01*
X77537787Y-118834780D01*
X77405836Y-118874807D01*
X77328707Y-118882404D01*
X77251580Y-118890000D01*
X77148420Y-118890000D01*
X77071293Y-118882404D01*
X76994164Y-118874807D01*
X76862213Y-118834780D01*
X76796237Y-118814767D01*
X76613828Y-118717267D01*
X76453946Y-118586054D01*
X76322733Y-118426172D01*
X76225233Y-118243763D01*
X76205220Y-118177787D01*
X76165193Y-118045836D01*
X76144920Y-117840000D01*
X76165193Y-117634164D01*
X76225233Y-117436238D01*
X76225233Y-117436237D01*
X76322733Y-117253828D01*
X76453946Y-117093946D01*
X76613828Y-116962733D01*
X76796237Y-116865233D01*
X76862213Y-116845220D01*
X76994164Y-116805193D01*
X77071293Y-116797596D01*
X77148420Y-116790000D01*
X77251580Y-116790000D01*
X77328707Y-116797596D01*
X77328707Y-116797596D01*
G37*
G36*
X77328707Y-114257596D02*
X77405836Y-114265193D01*
X77537787Y-114305220D01*
X77603763Y-114325233D01*
X77786172Y-114422733D01*
X77946054Y-114553946D01*
X78077267Y-114713828D01*
X78174767Y-114896237D01*
X78174767Y-114896238D01*
X78234807Y-115094164D01*
X78255080Y-115300000D01*
X78234807Y-115505836D01*
X78194780Y-115637787D01*
X78174767Y-115703763D01*
X78077267Y-115886172D01*
X77946054Y-116046054D01*
X77786172Y-116177267D01*
X77603763Y-116274767D01*
X77537787Y-116294780D01*
X77405836Y-116334807D01*
X77328707Y-116342404D01*
X77251580Y-116350000D01*
X77148420Y-116350000D01*
X77071293Y-116342404D01*
X76994164Y-116334807D01*
X76862213Y-116294780D01*
X76796237Y-116274767D01*
X76613828Y-116177267D01*
X76453946Y-116046054D01*
X76322733Y-115886172D01*
X76225233Y-115703763D01*
X76205220Y-115637787D01*
X76165193Y-115505836D01*
X76144920Y-115300000D01*
X76165193Y-115094164D01*
X76225233Y-114896238D01*
X76225233Y-114896237D01*
X76322733Y-114713828D01*
X76453946Y-114553946D01*
X76613828Y-114422733D01*
X76796237Y-114325233D01*
X76862213Y-114305220D01*
X76994164Y-114265193D01*
X77071293Y-114257596D01*
X77148420Y-114250000D01*
X77251580Y-114250000D01*
X77328707Y-114257596D01*
X77328707Y-114257596D01*
G37*
G36*
X79868707Y-114257596D02*
X79945836Y-114265193D01*
X80077787Y-114305220D01*
X80143763Y-114325233D01*
X80326172Y-114422733D01*
X80486054Y-114553946D01*
X80617267Y-114713828D01*
X80714767Y-114896237D01*
X80714767Y-114896238D01*
X80774807Y-115094164D01*
X80795080Y-115300000D01*
X80774807Y-115505836D01*
X80734780Y-115637787D01*
X80714767Y-115703763D01*
X80617267Y-115886172D01*
X80486054Y-116046054D01*
X80326172Y-116177267D01*
X80143763Y-116274767D01*
X80077787Y-116294780D01*
X79945836Y-116334807D01*
X79868707Y-116342404D01*
X79791580Y-116350000D01*
X79688420Y-116350000D01*
X79611293Y-116342404D01*
X79534164Y-116334807D01*
X79402213Y-116294780D01*
X79336237Y-116274767D01*
X79153828Y-116177267D01*
X78993946Y-116046054D01*
X78862733Y-115886172D01*
X78765233Y-115703763D01*
X78745220Y-115637787D01*
X78705193Y-115505836D01*
X78684920Y-115300000D01*
X78705193Y-115094164D01*
X78765233Y-114896238D01*
X78765233Y-114896237D01*
X78862733Y-114713828D01*
X78993946Y-114553946D01*
X79153828Y-114422733D01*
X79336237Y-114325233D01*
X79402213Y-114305220D01*
X79534164Y-114265193D01*
X79611293Y-114257596D01*
X79688420Y-114250000D01*
X79791580Y-114250000D01*
X79868707Y-114257596D01*
X79868707Y-114257596D01*
G37*
G36*
X77328707Y-111717596D02*
X77405836Y-111725193D01*
X77537787Y-111765220D01*
X77603763Y-111785233D01*
X77786172Y-111882733D01*
X77946054Y-112013946D01*
X78077267Y-112173828D01*
X78174767Y-112356237D01*
X78174767Y-112356238D01*
X78234807Y-112554164D01*
X78255080Y-112760000D01*
X78234807Y-112965836D01*
X78194780Y-113097787D01*
X78174767Y-113163763D01*
X78077267Y-113346172D01*
X77946054Y-113506054D01*
X77786172Y-113637267D01*
X77603763Y-113734767D01*
X77537787Y-113754780D01*
X77405836Y-113794807D01*
X77328707Y-113802403D01*
X77251580Y-113810000D01*
X77148420Y-113810000D01*
X77071293Y-113802403D01*
X76994164Y-113794807D01*
X76862213Y-113754780D01*
X76796237Y-113734767D01*
X76613828Y-113637267D01*
X76453946Y-113506054D01*
X76322733Y-113346172D01*
X76225233Y-113163763D01*
X76205220Y-113097787D01*
X76165193Y-112965836D01*
X76144920Y-112760000D01*
X76165193Y-112554164D01*
X76225233Y-112356238D01*
X76225233Y-112356237D01*
X76322733Y-112173828D01*
X76453946Y-112013946D01*
X76613828Y-111882733D01*
X76796237Y-111785233D01*
X76862213Y-111765220D01*
X76994164Y-111725193D01*
X77071293Y-111717596D01*
X77148420Y-111710000D01*
X77251580Y-111710000D01*
X77328707Y-111717596D01*
X77328707Y-111717596D01*
G37*
G36*
X79868707Y-111717596D02*
X79945836Y-111725193D01*
X80077787Y-111765220D01*
X80143763Y-111785233D01*
X80326172Y-111882733D01*
X80486054Y-112013946D01*
X80617267Y-112173828D01*
X80714767Y-112356237D01*
X80714767Y-112356238D01*
X80774807Y-112554164D01*
X80795080Y-112760000D01*
X80774807Y-112965836D01*
X80734780Y-113097787D01*
X80714767Y-113163763D01*
X80617267Y-113346172D01*
X80486054Y-113506054D01*
X80326172Y-113637267D01*
X80143763Y-113734767D01*
X80077787Y-113754780D01*
X79945836Y-113794807D01*
X79868707Y-113802403D01*
X79791580Y-113810000D01*
X79688420Y-113810000D01*
X79611293Y-113802403D01*
X79534164Y-113794807D01*
X79402213Y-113754780D01*
X79336237Y-113734767D01*
X79153828Y-113637267D01*
X78993946Y-113506054D01*
X78862733Y-113346172D01*
X78765233Y-113163763D01*
X78745220Y-113097787D01*
X78705193Y-112965836D01*
X78684920Y-112760000D01*
X78705193Y-112554164D01*
X78765233Y-112356238D01*
X78765233Y-112356237D01*
X78862733Y-112173828D01*
X78993946Y-112013946D01*
X79153828Y-111882733D01*
X79336237Y-111785233D01*
X79402213Y-111765220D01*
X79534164Y-111725193D01*
X79611293Y-111717596D01*
X79688420Y-111710000D01*
X79791580Y-111710000D01*
X79868707Y-111717596D01*
X79868707Y-111717596D01*
G37*
G36*
X77328707Y-109177597D02*
X77405836Y-109185193D01*
X77537787Y-109225220D01*
X77603763Y-109245233D01*
X77786172Y-109342733D01*
X77946054Y-109473946D01*
X78077267Y-109633828D01*
X78174767Y-109816237D01*
X78174767Y-109816238D01*
X78234807Y-110014164D01*
X78255080Y-110220000D01*
X78234807Y-110425836D01*
X78194780Y-110557787D01*
X78174767Y-110623763D01*
X78077267Y-110806172D01*
X77946054Y-110966054D01*
X77786172Y-111097267D01*
X77603763Y-111194767D01*
X77537787Y-111214780D01*
X77405836Y-111254807D01*
X77328707Y-111262403D01*
X77251580Y-111270000D01*
X77148420Y-111270000D01*
X77071293Y-111262403D01*
X76994164Y-111254807D01*
X76862213Y-111214780D01*
X76796237Y-111194767D01*
X76613828Y-111097267D01*
X76453946Y-110966054D01*
X76322733Y-110806172D01*
X76225233Y-110623763D01*
X76205220Y-110557787D01*
X76165193Y-110425836D01*
X76144920Y-110220000D01*
X76165193Y-110014164D01*
X76225233Y-109816238D01*
X76225233Y-109816237D01*
X76322733Y-109633828D01*
X76453946Y-109473946D01*
X76613828Y-109342733D01*
X76796237Y-109245233D01*
X76862213Y-109225220D01*
X76994164Y-109185193D01*
X77071293Y-109177597D01*
X77148420Y-109170000D01*
X77251580Y-109170000D01*
X77328707Y-109177597D01*
X77328707Y-109177597D01*
G37*
G36*
X79868707Y-109177597D02*
X79945836Y-109185193D01*
X80077787Y-109225220D01*
X80143763Y-109245233D01*
X80326172Y-109342733D01*
X80486054Y-109473946D01*
X80617267Y-109633828D01*
X80714767Y-109816237D01*
X80714767Y-109816238D01*
X80774807Y-110014164D01*
X80795080Y-110220000D01*
X80774807Y-110425836D01*
X80734780Y-110557787D01*
X80714767Y-110623763D01*
X80617267Y-110806172D01*
X80486054Y-110966054D01*
X80326172Y-111097267D01*
X80143763Y-111194767D01*
X80077787Y-111214780D01*
X79945836Y-111254807D01*
X79868707Y-111262403D01*
X79791580Y-111270000D01*
X79688420Y-111270000D01*
X79611293Y-111262403D01*
X79534164Y-111254807D01*
X79402213Y-111214780D01*
X79336237Y-111194767D01*
X79153828Y-111097267D01*
X78993946Y-110966054D01*
X78862733Y-110806172D01*
X78765233Y-110623763D01*
X78745220Y-110557787D01*
X78705193Y-110425836D01*
X78684920Y-110220000D01*
X78705193Y-110014164D01*
X78765233Y-109816238D01*
X78765233Y-109816237D01*
X78862733Y-109633828D01*
X78993946Y-109473946D01*
X79153828Y-109342733D01*
X79336237Y-109245233D01*
X79402213Y-109225220D01*
X79534164Y-109185193D01*
X79611293Y-109177597D01*
X79688420Y-109170000D01*
X79791580Y-109170000D01*
X79868707Y-109177597D01*
X79868707Y-109177597D01*
G37*
G36*
X79868707Y-106637596D02*
X79945836Y-106645193D01*
X80077787Y-106685220D01*
X80143763Y-106705233D01*
X80326172Y-106802733D01*
X80486054Y-106933946D01*
X80617267Y-107093828D01*
X80714767Y-107276237D01*
X80714767Y-107276238D01*
X80774807Y-107474164D01*
X80795080Y-107680000D01*
X80774807Y-107885836D01*
X80734780Y-108017787D01*
X80714767Y-108083763D01*
X80617267Y-108266172D01*
X80486054Y-108426054D01*
X80326172Y-108557267D01*
X80143763Y-108654767D01*
X80077787Y-108674780D01*
X79945836Y-108714807D01*
X79868707Y-108722404D01*
X79791580Y-108730000D01*
X79688420Y-108730000D01*
X79611293Y-108722404D01*
X79534164Y-108714807D01*
X79402213Y-108674780D01*
X79336237Y-108654767D01*
X79153828Y-108557267D01*
X78993946Y-108426054D01*
X78862733Y-108266172D01*
X78765233Y-108083763D01*
X78745220Y-108017787D01*
X78705193Y-107885836D01*
X78684920Y-107680000D01*
X78705193Y-107474164D01*
X78765233Y-107276238D01*
X78765233Y-107276237D01*
X78862733Y-107093828D01*
X78993946Y-106933946D01*
X79153828Y-106802733D01*
X79336237Y-106705233D01*
X79402213Y-106685220D01*
X79534164Y-106645193D01*
X79611293Y-106637596D01*
X79688420Y-106630000D01*
X79791580Y-106630000D01*
X79868707Y-106637596D01*
X79868707Y-106637596D01*
G37*
G36*
X77328707Y-106637596D02*
X77405836Y-106645193D01*
X77537787Y-106685220D01*
X77603763Y-106705233D01*
X77786172Y-106802733D01*
X77946054Y-106933946D01*
X78077267Y-107093828D01*
X78174767Y-107276237D01*
X78174767Y-107276238D01*
X78234807Y-107474164D01*
X78255080Y-107680000D01*
X78234807Y-107885836D01*
X78194780Y-108017787D01*
X78174767Y-108083763D01*
X78077267Y-108266172D01*
X77946054Y-108426054D01*
X77786172Y-108557267D01*
X77603763Y-108654767D01*
X77537787Y-108674780D01*
X77405836Y-108714807D01*
X77328707Y-108722404D01*
X77251580Y-108730000D01*
X77148420Y-108730000D01*
X77071293Y-108722404D01*
X76994164Y-108714807D01*
X76862213Y-108674780D01*
X76796237Y-108654767D01*
X76613828Y-108557267D01*
X76453946Y-108426054D01*
X76322733Y-108266172D01*
X76225233Y-108083763D01*
X76205220Y-108017787D01*
X76165193Y-107885836D01*
X76144920Y-107680000D01*
X76165193Y-107474164D01*
X76225233Y-107276238D01*
X76225233Y-107276237D01*
X76322733Y-107093828D01*
X76453946Y-106933946D01*
X76613828Y-106802733D01*
X76796237Y-106705233D01*
X76862213Y-106685220D01*
X76994164Y-106645193D01*
X77071293Y-106637596D01*
X77148420Y-106630000D01*
X77251580Y-106630000D01*
X77328707Y-106637596D01*
X77328707Y-106637596D01*
G37*
G36*
X79868707Y-104097597D02*
X79945836Y-104105193D01*
X80077787Y-104145220D01*
X80143763Y-104165233D01*
X80326172Y-104262733D01*
X80486054Y-104393946D01*
X80617267Y-104553828D01*
X80714767Y-104736237D01*
X80714767Y-104736238D01*
X80774807Y-104934164D01*
X80795080Y-105140000D01*
X80774807Y-105345836D01*
X80734780Y-105477787D01*
X80714767Y-105543763D01*
X80617267Y-105726172D01*
X80486054Y-105886054D01*
X80326172Y-106017267D01*
X80143763Y-106114767D01*
X80077787Y-106134780D01*
X79945836Y-106174807D01*
X79868707Y-106182404D01*
X79791580Y-106190000D01*
X79688420Y-106190000D01*
X79611293Y-106182404D01*
X79534164Y-106174807D01*
X79402213Y-106134780D01*
X79336237Y-106114767D01*
X79153828Y-106017267D01*
X78993946Y-105886054D01*
X78862733Y-105726172D01*
X78765233Y-105543763D01*
X78745220Y-105477787D01*
X78705193Y-105345836D01*
X78684920Y-105140000D01*
X78705193Y-104934164D01*
X78765233Y-104736238D01*
X78765233Y-104736237D01*
X78862733Y-104553828D01*
X78993946Y-104393946D01*
X79153828Y-104262733D01*
X79336237Y-104165233D01*
X79402213Y-104145220D01*
X79534164Y-104105193D01*
X79611293Y-104097597D01*
X79688420Y-104090000D01*
X79791580Y-104090000D01*
X79868707Y-104097597D01*
X79868707Y-104097597D01*
G37*
G36*
X77328707Y-104097597D02*
X77405836Y-104105193D01*
X77537787Y-104145220D01*
X77603763Y-104165233D01*
X77786172Y-104262733D01*
X77946054Y-104393946D01*
X78077267Y-104553828D01*
X78174767Y-104736237D01*
X78174767Y-104736238D01*
X78234807Y-104934164D01*
X78255080Y-105140000D01*
X78234807Y-105345836D01*
X78194780Y-105477787D01*
X78174767Y-105543763D01*
X78077267Y-105726172D01*
X77946054Y-105886054D01*
X77786172Y-106017267D01*
X77603763Y-106114767D01*
X77537787Y-106134780D01*
X77405836Y-106174807D01*
X77328707Y-106182404D01*
X77251580Y-106190000D01*
X77148420Y-106190000D01*
X77071293Y-106182404D01*
X76994164Y-106174807D01*
X76862213Y-106134780D01*
X76796237Y-106114767D01*
X76613828Y-106017267D01*
X76453946Y-105886054D01*
X76322733Y-105726172D01*
X76225233Y-105543763D01*
X76205220Y-105477787D01*
X76165193Y-105345836D01*
X76144920Y-105140000D01*
X76165193Y-104934164D01*
X76225233Y-104736238D01*
X76225233Y-104736237D01*
X76322733Y-104553828D01*
X76453946Y-104393946D01*
X76613828Y-104262733D01*
X76796237Y-104165233D01*
X76862213Y-104145220D01*
X76994164Y-104105193D01*
X77071293Y-104097597D01*
X77148420Y-104090000D01*
X77251580Y-104090000D01*
X77328707Y-104097597D01*
X77328707Y-104097597D01*
G37*
G36*
X79868707Y-101557596D02*
X79945836Y-101565193D01*
X80077787Y-101605220D01*
X80143763Y-101625233D01*
X80326172Y-101722733D01*
X80486054Y-101853946D01*
X80617267Y-102013828D01*
X80714767Y-102196237D01*
X80714767Y-102196238D01*
X80774807Y-102394164D01*
X80795080Y-102600000D01*
X80774807Y-102805836D01*
X80734780Y-102937787D01*
X80714767Y-103003763D01*
X80617267Y-103186172D01*
X80486054Y-103346054D01*
X80326172Y-103477267D01*
X80143763Y-103574767D01*
X80077787Y-103594780D01*
X79945836Y-103634807D01*
X79868707Y-103642404D01*
X79791580Y-103650000D01*
X79688420Y-103650000D01*
X79611293Y-103642404D01*
X79534164Y-103634807D01*
X79402213Y-103594780D01*
X79336237Y-103574767D01*
X79153828Y-103477267D01*
X78993946Y-103346054D01*
X78862733Y-103186172D01*
X78765233Y-103003763D01*
X78745220Y-102937787D01*
X78705193Y-102805836D01*
X78684920Y-102600000D01*
X78705193Y-102394164D01*
X78765233Y-102196238D01*
X78765233Y-102196237D01*
X78862733Y-102013828D01*
X78993946Y-101853946D01*
X79153828Y-101722733D01*
X79336237Y-101625233D01*
X79402213Y-101605220D01*
X79534164Y-101565193D01*
X79611293Y-101557596D01*
X79688420Y-101550000D01*
X79791580Y-101550000D01*
X79868707Y-101557596D01*
X79868707Y-101557596D01*
G37*
G36*
X77328707Y-101557596D02*
X77405836Y-101565193D01*
X77537787Y-101605220D01*
X77603763Y-101625233D01*
X77786172Y-101722733D01*
X77946054Y-101853946D01*
X78077267Y-102013828D01*
X78174767Y-102196237D01*
X78174767Y-102196238D01*
X78234807Y-102394164D01*
X78255080Y-102600000D01*
X78234807Y-102805836D01*
X78194780Y-102937787D01*
X78174767Y-103003763D01*
X78077267Y-103186172D01*
X77946054Y-103346054D01*
X77786172Y-103477267D01*
X77603763Y-103574767D01*
X77537787Y-103594780D01*
X77405836Y-103634807D01*
X77328707Y-103642404D01*
X77251580Y-103650000D01*
X77148420Y-103650000D01*
X77071293Y-103642404D01*
X76994164Y-103634807D01*
X76862213Y-103594780D01*
X76796237Y-103574767D01*
X76613828Y-103477267D01*
X76453946Y-103346054D01*
X76322733Y-103186172D01*
X76225233Y-103003763D01*
X76205220Y-102937787D01*
X76165193Y-102805836D01*
X76144920Y-102600000D01*
X76165193Y-102394164D01*
X76225233Y-102196238D01*
X76225233Y-102196237D01*
X76322733Y-102013828D01*
X76453946Y-101853946D01*
X76613828Y-101722733D01*
X76796237Y-101625233D01*
X76862213Y-101605220D01*
X76994164Y-101565193D01*
X77071293Y-101557596D01*
X77148420Y-101550000D01*
X77251580Y-101550000D01*
X77328707Y-101557596D01*
X77328707Y-101557596D01*
G37*
G36*
X77328707Y-99017596D02*
X77405836Y-99025193D01*
X77537787Y-99065220D01*
X77603763Y-99085233D01*
X77786172Y-99182733D01*
X77946054Y-99313946D01*
X78077267Y-99473828D01*
X78174767Y-99656237D01*
X78174767Y-99656238D01*
X78234807Y-99854164D01*
X78255080Y-100060000D01*
X78234807Y-100265836D01*
X78194780Y-100397787D01*
X78174767Y-100463763D01*
X78077267Y-100646172D01*
X77946054Y-100806054D01*
X77786172Y-100937267D01*
X77603763Y-101034767D01*
X77537787Y-101054780D01*
X77405836Y-101094807D01*
X77328707Y-101102404D01*
X77251580Y-101110000D01*
X77148420Y-101110000D01*
X77071293Y-101102404D01*
X76994164Y-101094807D01*
X76862213Y-101054780D01*
X76796237Y-101034767D01*
X76613828Y-100937267D01*
X76453946Y-100806054D01*
X76322733Y-100646172D01*
X76225233Y-100463763D01*
X76205220Y-100397787D01*
X76165193Y-100265836D01*
X76144920Y-100060000D01*
X76165193Y-99854164D01*
X76225233Y-99656238D01*
X76225233Y-99656237D01*
X76322733Y-99473828D01*
X76453946Y-99313946D01*
X76613828Y-99182733D01*
X76796237Y-99085233D01*
X76862213Y-99065220D01*
X76994164Y-99025193D01*
X77071293Y-99017596D01*
X77148420Y-99010000D01*
X77251580Y-99010000D01*
X77328707Y-99017596D01*
X77328707Y-99017596D01*
G37*
G36*
X79868707Y-99017596D02*
X79945836Y-99025193D01*
X80077787Y-99065220D01*
X80143763Y-99085233D01*
X80326172Y-99182733D01*
X80486054Y-99313946D01*
X80617267Y-99473828D01*
X80714767Y-99656237D01*
X80714767Y-99656238D01*
X80774807Y-99854164D01*
X80795080Y-100060000D01*
X80774807Y-100265836D01*
X80734780Y-100397787D01*
X80714767Y-100463763D01*
X80617267Y-100646172D01*
X80486054Y-100806054D01*
X80326172Y-100937267D01*
X80143763Y-101034767D01*
X80077787Y-101054780D01*
X79945836Y-101094807D01*
X79868707Y-101102404D01*
X79791580Y-101110000D01*
X79688420Y-101110000D01*
X79611293Y-101102404D01*
X79534164Y-101094807D01*
X79402213Y-101054780D01*
X79336237Y-101034767D01*
X79153828Y-100937267D01*
X78993946Y-100806054D01*
X78862733Y-100646172D01*
X78765233Y-100463763D01*
X78745220Y-100397787D01*
X78705193Y-100265836D01*
X78684920Y-100060000D01*
X78705193Y-99854164D01*
X78765233Y-99656238D01*
X78765233Y-99656237D01*
X78862733Y-99473828D01*
X78993946Y-99313946D01*
X79153828Y-99182733D01*
X79336237Y-99085233D01*
X79402213Y-99065220D01*
X79534164Y-99025193D01*
X79611293Y-99017596D01*
X79688420Y-99010000D01*
X79791580Y-99010000D01*
X79868707Y-99017596D01*
X79868707Y-99017596D01*
G37*
G36*
X77328707Y-96477596D02*
X77405836Y-96485193D01*
X77537787Y-96525220D01*
X77603763Y-96545233D01*
X77786172Y-96642733D01*
X77946054Y-96773946D01*
X78077267Y-96933828D01*
X78174767Y-97116237D01*
X78174767Y-97116238D01*
X78234807Y-97314164D01*
X78255080Y-97520000D01*
X78234807Y-97725836D01*
X78194780Y-97857787D01*
X78174767Y-97923763D01*
X78077267Y-98106172D01*
X77946054Y-98266054D01*
X77786172Y-98397267D01*
X77603763Y-98494767D01*
X77537787Y-98514780D01*
X77405836Y-98554807D01*
X77328707Y-98562404D01*
X77251580Y-98570000D01*
X77148420Y-98570000D01*
X77071293Y-98562404D01*
X76994164Y-98554807D01*
X76862213Y-98514780D01*
X76796237Y-98494767D01*
X76613828Y-98397267D01*
X76453946Y-98266054D01*
X76322733Y-98106172D01*
X76225233Y-97923763D01*
X76205220Y-97857787D01*
X76165193Y-97725836D01*
X76144920Y-97520000D01*
X76165193Y-97314164D01*
X76225233Y-97116238D01*
X76225233Y-97116237D01*
X76322733Y-96933828D01*
X76453946Y-96773946D01*
X76613828Y-96642733D01*
X76796237Y-96545233D01*
X76862213Y-96525220D01*
X76994164Y-96485193D01*
X77071293Y-96477596D01*
X77148420Y-96470000D01*
X77251580Y-96470000D01*
X77328707Y-96477596D01*
X77328707Y-96477596D01*
G37*
G36*
X79868707Y-96477596D02*
X79945836Y-96485193D01*
X80077787Y-96525220D01*
X80143763Y-96545233D01*
X80326172Y-96642733D01*
X80486054Y-96773946D01*
X80617267Y-96933828D01*
X80714767Y-97116237D01*
X80714767Y-97116238D01*
X80774807Y-97314164D01*
X80795080Y-97520000D01*
X80774807Y-97725836D01*
X80734780Y-97857787D01*
X80714767Y-97923763D01*
X80617267Y-98106172D01*
X80486054Y-98266054D01*
X80326172Y-98397267D01*
X80143763Y-98494767D01*
X80077787Y-98514780D01*
X79945836Y-98554807D01*
X79868707Y-98562404D01*
X79791580Y-98570000D01*
X79688420Y-98570000D01*
X79611293Y-98562404D01*
X79534164Y-98554807D01*
X79402213Y-98514780D01*
X79336237Y-98494767D01*
X79153828Y-98397267D01*
X78993946Y-98266054D01*
X78862733Y-98106172D01*
X78765233Y-97923763D01*
X78745220Y-97857787D01*
X78705193Y-97725836D01*
X78684920Y-97520000D01*
X78705193Y-97314164D01*
X78765233Y-97116238D01*
X78765233Y-97116237D01*
X78862733Y-96933828D01*
X78993946Y-96773946D01*
X79153828Y-96642733D01*
X79336237Y-96545233D01*
X79402213Y-96525220D01*
X79534164Y-96485193D01*
X79611293Y-96477596D01*
X79688420Y-96470000D01*
X79791580Y-96470000D01*
X79868707Y-96477596D01*
X79868707Y-96477596D01*
G37*
G36*
X79868707Y-93937596D02*
X79945836Y-93945193D01*
X80077787Y-93985220D01*
X80143763Y-94005233D01*
X80326172Y-94102733D01*
X80486054Y-94233946D01*
X80617267Y-94393828D01*
X80714767Y-94576237D01*
X80714767Y-94576238D01*
X80774807Y-94774164D01*
X80795080Y-94980000D01*
X80774807Y-95185836D01*
X80736160Y-95313239D01*
X80714767Y-95383763D01*
X80617267Y-95566172D01*
X80486054Y-95726054D01*
X80326172Y-95857267D01*
X80143763Y-95954767D01*
X80077787Y-95974780D01*
X79945836Y-96014807D01*
X79868707Y-96022403D01*
X79791580Y-96030000D01*
X79688420Y-96030000D01*
X79611293Y-96022403D01*
X79534164Y-96014807D01*
X79402213Y-95974780D01*
X79336237Y-95954767D01*
X79153828Y-95857267D01*
X78993946Y-95726054D01*
X78862733Y-95566172D01*
X78765233Y-95383763D01*
X78743840Y-95313239D01*
X78705193Y-95185836D01*
X78684920Y-94980000D01*
X78705193Y-94774164D01*
X78765233Y-94576238D01*
X78765233Y-94576237D01*
X78862733Y-94393828D01*
X78993946Y-94233946D01*
X79153828Y-94102733D01*
X79336237Y-94005233D01*
X79402213Y-93985220D01*
X79534164Y-93945193D01*
X79611293Y-93937596D01*
X79688420Y-93930000D01*
X79791580Y-93930000D01*
X79868707Y-93937596D01*
X79868707Y-93937596D01*
G37*
G36*
X77328707Y-93937596D02*
X77405836Y-93945193D01*
X77537787Y-93985220D01*
X77603763Y-94005233D01*
X77786172Y-94102733D01*
X77946054Y-94233946D01*
X78077267Y-94393828D01*
X78174767Y-94576237D01*
X78174767Y-94576238D01*
X78234807Y-94774164D01*
X78255080Y-94980000D01*
X78234807Y-95185836D01*
X78196160Y-95313239D01*
X78174767Y-95383763D01*
X78077267Y-95566172D01*
X77946054Y-95726054D01*
X77786172Y-95857267D01*
X77603763Y-95954767D01*
X77537787Y-95974780D01*
X77405836Y-96014807D01*
X77328707Y-96022403D01*
X77251580Y-96030000D01*
X77148420Y-96030000D01*
X77071293Y-96022403D01*
X76994164Y-96014807D01*
X76862213Y-95974780D01*
X76796237Y-95954767D01*
X76613828Y-95857267D01*
X76453946Y-95726054D01*
X76322733Y-95566172D01*
X76225233Y-95383763D01*
X76203840Y-95313239D01*
X76165193Y-95185836D01*
X76144920Y-94980000D01*
X76165193Y-94774164D01*
X76225233Y-94576238D01*
X76225233Y-94576237D01*
X76322733Y-94393828D01*
X76453946Y-94233946D01*
X76613828Y-94102733D01*
X76796237Y-94005233D01*
X76862213Y-93985220D01*
X76994164Y-93945193D01*
X77071293Y-93937596D01*
X77148420Y-93930000D01*
X77251580Y-93930000D01*
X77328707Y-93937596D01*
X77328707Y-93937596D01*
G37*
G36*
X46830603Y-93774968D02*
X46830606Y-93774969D01*
X46830605Y-93774969D01*
X47005678Y-93847486D01*
X47005679Y-93847487D01*
X47163241Y-93952767D01*
X47297233Y-94086759D01*
X47350232Y-94166077D01*
X47402514Y-94244322D01*
X47458603Y-94379734D01*
X47475032Y-94419397D01*
X47512000Y-94605250D01*
X47512000Y-94794750D01*
X47475032Y-94980603D01*
X47475031Y-94980605D01*
X47402514Y-95155678D01*
X47402513Y-95155679D01*
X47297233Y-95313241D01*
X47163241Y-95447233D01*
X47083923Y-95500232D01*
X47005678Y-95552514D01*
X46870266Y-95608603D01*
X46830603Y-95625032D01*
X46644750Y-95662000D01*
X46455250Y-95662000D01*
X46269397Y-95625032D01*
X46229734Y-95608603D01*
X46094322Y-95552514D01*
X46016077Y-95500232D01*
X45936759Y-95447233D01*
X45802767Y-95313241D01*
X45697487Y-95155679D01*
X45697486Y-95155678D01*
X45624969Y-94980605D01*
X45624968Y-94980603D01*
X45588000Y-94794750D01*
X45588000Y-94605250D01*
X45624968Y-94419397D01*
X45641397Y-94379734D01*
X45697486Y-94244322D01*
X45749768Y-94166077D01*
X45802767Y-94086759D01*
X45936759Y-93952767D01*
X46094321Y-93847487D01*
X46094322Y-93847486D01*
X46269395Y-93774969D01*
X46269394Y-93774969D01*
X46269397Y-93774968D01*
X46455250Y-93738000D01*
X46644750Y-93738000D01*
X46830603Y-93774968D01*
X46830603Y-93774968D01*
G37*
G36*
X29330603Y-93774968D02*
X29330606Y-93774969D01*
X29330605Y-93774969D01*
X29505678Y-93847486D01*
X29505679Y-93847487D01*
X29663241Y-93952767D01*
X29797233Y-94086759D01*
X29850232Y-94166077D01*
X29902514Y-94244322D01*
X29958603Y-94379734D01*
X29975032Y-94419397D01*
X30012000Y-94605250D01*
X30012000Y-94794750D01*
X29975032Y-94980603D01*
X29975031Y-94980605D01*
X29902514Y-95155678D01*
X29902513Y-95155679D01*
X29797233Y-95313241D01*
X29663241Y-95447233D01*
X29583923Y-95500232D01*
X29505678Y-95552514D01*
X29370266Y-95608603D01*
X29330603Y-95625032D01*
X29144750Y-95662000D01*
X28955250Y-95662000D01*
X28769397Y-95625032D01*
X28729734Y-95608603D01*
X28594322Y-95552514D01*
X28516077Y-95500232D01*
X28436759Y-95447233D01*
X28302767Y-95313241D01*
X28197487Y-95155679D01*
X28197486Y-95155678D01*
X28124969Y-94980605D01*
X28124968Y-94980603D01*
X28088000Y-94794750D01*
X28088000Y-94605250D01*
X28124968Y-94419397D01*
X28141397Y-94379734D01*
X28197486Y-94244322D01*
X28249768Y-94166077D01*
X28302767Y-94086759D01*
X28436759Y-93952767D01*
X28594321Y-93847487D01*
X28594322Y-93847486D01*
X28769395Y-93774969D01*
X28769394Y-93774969D01*
X28769397Y-93774968D01*
X28955250Y-93738000D01*
X29144750Y-93738000D01*
X29330603Y-93774968D01*
X29330603Y-93774968D01*
G37*
G36*
X79868707Y-91397596D02*
X79945836Y-91405193D01*
X80077787Y-91445220D01*
X80143763Y-91465233D01*
X80326172Y-91562733D01*
X80486054Y-91693946D01*
X80617267Y-91853828D01*
X80714767Y-92036237D01*
X80714767Y-92036238D01*
X80774807Y-92234164D01*
X80795080Y-92440000D01*
X80774807Y-92645836D01*
X80734780Y-92777787D01*
X80714767Y-92843763D01*
X80617267Y-93026172D01*
X80486054Y-93186054D01*
X80326172Y-93317267D01*
X80143763Y-93414767D01*
X80077787Y-93434780D01*
X79945836Y-93474807D01*
X79868707Y-93482403D01*
X79791580Y-93490000D01*
X79688420Y-93490000D01*
X79611293Y-93482403D01*
X79534164Y-93474807D01*
X79402213Y-93434780D01*
X79336237Y-93414767D01*
X79153828Y-93317267D01*
X78993946Y-93186054D01*
X78862733Y-93026172D01*
X78765233Y-92843763D01*
X78745220Y-92777787D01*
X78705193Y-92645836D01*
X78684920Y-92440000D01*
X78705193Y-92234164D01*
X78765233Y-92036238D01*
X78765233Y-92036237D01*
X78862733Y-91853828D01*
X78993946Y-91693946D01*
X79153828Y-91562733D01*
X79336237Y-91465233D01*
X79402213Y-91445220D01*
X79534164Y-91405193D01*
X79611293Y-91397596D01*
X79688420Y-91390000D01*
X79791580Y-91390000D01*
X79868707Y-91397596D01*
X79868707Y-91397596D01*
G37*
G36*
X77328707Y-91397596D02*
X77405836Y-91405193D01*
X77537787Y-91445220D01*
X77603763Y-91465233D01*
X77786172Y-91562733D01*
X77946054Y-91693946D01*
X78077267Y-91853828D01*
X78174767Y-92036237D01*
X78174767Y-92036238D01*
X78234807Y-92234164D01*
X78255080Y-92440000D01*
X78234807Y-92645836D01*
X78194780Y-92777787D01*
X78174767Y-92843763D01*
X78077267Y-93026172D01*
X77946054Y-93186054D01*
X77786172Y-93317267D01*
X77603763Y-93414767D01*
X77537787Y-93434780D01*
X77405836Y-93474807D01*
X77328707Y-93482403D01*
X77251580Y-93490000D01*
X77148420Y-93490000D01*
X77071293Y-93482403D01*
X76994164Y-93474807D01*
X76862213Y-93434780D01*
X76796237Y-93414767D01*
X76613828Y-93317267D01*
X76453946Y-93186054D01*
X76322733Y-93026172D01*
X76225233Y-92843763D01*
X76205220Y-92777787D01*
X76165193Y-92645836D01*
X76144920Y-92440000D01*
X76165193Y-92234164D01*
X76225233Y-92036238D01*
X76225233Y-92036237D01*
X76322733Y-91853828D01*
X76453946Y-91693946D01*
X76613828Y-91562733D01*
X76796237Y-91465233D01*
X76862213Y-91445220D01*
X76994164Y-91405193D01*
X77071293Y-91397596D01*
X77148420Y-91390000D01*
X77251580Y-91390000D01*
X77328707Y-91397596D01*
X77328707Y-91397596D01*
G37*
G36*
X79868707Y-88857596D02*
X79945836Y-88865193D01*
X80077787Y-88905220D01*
X80143763Y-88925233D01*
X80326172Y-89022733D01*
X80486054Y-89153946D01*
X80617267Y-89313828D01*
X80714767Y-89496237D01*
X80714767Y-89496238D01*
X80774807Y-89694164D01*
X80795080Y-89900000D01*
X80774807Y-90105836D01*
X80734780Y-90237787D01*
X80714767Y-90303763D01*
X80617267Y-90486172D01*
X80486054Y-90646054D01*
X80326172Y-90777267D01*
X80143763Y-90874767D01*
X80077787Y-90894780D01*
X79945836Y-90934807D01*
X79868707Y-90942403D01*
X79791580Y-90950000D01*
X79688420Y-90950000D01*
X79611293Y-90942403D01*
X79534164Y-90934807D01*
X79402213Y-90894780D01*
X79336237Y-90874767D01*
X79153828Y-90777267D01*
X78993946Y-90646054D01*
X78862733Y-90486172D01*
X78765233Y-90303763D01*
X78745220Y-90237787D01*
X78705193Y-90105836D01*
X78684920Y-89900000D01*
X78705193Y-89694164D01*
X78765233Y-89496238D01*
X78765233Y-89496237D01*
X78862733Y-89313828D01*
X78993946Y-89153946D01*
X79153828Y-89022733D01*
X79336237Y-88925233D01*
X79402213Y-88905220D01*
X79534164Y-88865193D01*
X79611293Y-88857596D01*
X79688420Y-88850000D01*
X79791580Y-88850000D01*
X79868707Y-88857596D01*
X79868707Y-88857596D01*
G37*
G36*
X78250000Y-90950000D02*
X76150000Y-90950000D01*
X76150000Y-88850000D01*
X78250000Y-88850000D01*
X78250000Y-90950000D01*
X78250000Y-90950000D01*
G37*
G36*
X36559612Y-85793037D02*
X36787096Y-85887264D01*
X36991831Y-86024064D01*
X37165936Y-86198169D01*
X37302736Y-86402904D01*
X37349515Y-86515839D01*
X37361066Y-86537450D01*
X37376611Y-86556392D01*
X37395554Y-86571938D01*
X37417164Y-86583489D01*
X37440613Y-86590602D01*
X37465000Y-86593004D01*
X37489386Y-86590602D01*
X37512835Y-86583489D01*
X37534446Y-86571938D01*
X37553388Y-86556393D01*
X37568934Y-86537450D01*
X37580485Y-86515839D01*
X37627264Y-86402904D01*
X37764064Y-86198169D01*
X37938169Y-86024064D01*
X38142904Y-85887264D01*
X38370388Y-85793037D01*
X38611885Y-85745000D01*
X38858115Y-85745000D01*
X39099612Y-85793037D01*
X39327096Y-85887264D01*
X39531831Y-86024064D01*
X39705935Y-86198168D01*
X39796066Y-86333058D01*
X39811612Y-86352000D01*
X39830554Y-86367545D01*
X39852165Y-86379096D01*
X39875614Y-86386209D01*
X39900000Y-86388611D01*
X39924387Y-86386209D01*
X39947836Y-86379096D01*
X39969447Y-86367545D01*
X39988389Y-86351999D01*
X40003934Y-86333057D01*
X40015485Y-86311446D01*
X40022598Y-86287997D01*
X40025000Y-86263611D01*
X40025000Y-85745000D01*
X42525000Y-85745000D01*
X42525000Y-88245000D01*
X40025000Y-88245000D01*
X40025000Y-87726389D01*
X40022598Y-87702003D01*
X40015485Y-87678554D01*
X40003934Y-87656943D01*
X39988388Y-87638001D01*
X39969446Y-87622455D01*
X39947835Y-87610904D01*
X39924386Y-87603791D01*
X39900000Y-87601389D01*
X39875614Y-87603791D01*
X39852165Y-87610904D01*
X39830554Y-87622455D01*
X39811612Y-87638001D01*
X39796066Y-87656942D01*
X39705935Y-87791832D01*
X39531831Y-87965936D01*
X39327096Y-88102736D01*
X39099612Y-88196963D01*
X38858115Y-88245000D01*
X38611885Y-88245000D01*
X38370388Y-88196963D01*
X38142904Y-88102736D01*
X37938169Y-87965936D01*
X37764064Y-87791831D01*
X37627264Y-87587096D01*
X37580485Y-87474161D01*
X37568934Y-87452550D01*
X37553389Y-87433608D01*
X37534446Y-87418062D01*
X37512836Y-87406511D01*
X37489387Y-87399398D01*
X37465000Y-87396996D01*
X37440614Y-87399398D01*
X37417165Y-87406511D01*
X37395554Y-87418062D01*
X37376612Y-87433607D01*
X37361066Y-87452550D01*
X37349515Y-87474161D01*
X37302736Y-87587096D01*
X37165936Y-87791831D01*
X36991831Y-87965936D01*
X36787096Y-88102736D01*
X36559612Y-88196963D01*
X36318115Y-88245000D01*
X36071885Y-88245000D01*
X35830388Y-88196963D01*
X35602904Y-88102736D01*
X35398169Y-87965936D01*
X35224064Y-87791831D01*
X35087264Y-87587096D01*
X34993037Y-87359612D01*
X34945000Y-87118115D01*
X34945000Y-86871885D01*
X34993037Y-86630388D01*
X35087264Y-86402904D01*
X35224064Y-86198169D01*
X35398169Y-86024064D01*
X35602904Y-85887264D01*
X35830388Y-85793037D01*
X36071885Y-85745000D01*
X36318115Y-85745000D01*
X36559612Y-85793037D01*
X36559612Y-85793037D01*
G37*
G36*
X66020000Y-85628611D02*
X66022402Y-85652997D01*
X66029515Y-85676446D01*
X66041066Y-85698057D01*
X66056612Y-85716999D01*
X66075554Y-85732545D01*
X66097165Y-85744096D01*
X66120614Y-85751209D01*
X66145000Y-85753611D01*
X66169386Y-85751209D01*
X66192835Y-85744096D01*
X66214446Y-85732545D01*
X66233388Y-85716999D01*
X66248934Y-85698058D01*
X66339065Y-85563168D01*
X66513169Y-85389064D01*
X66717904Y-85252264D01*
X66945388Y-85158037D01*
X67186885Y-85110000D01*
X67433115Y-85110000D01*
X67674612Y-85158037D01*
X67902096Y-85252264D01*
X68106831Y-85389064D01*
X68280936Y-85563169D01*
X68417736Y-85767904D01*
X68464515Y-85880839D01*
X68476066Y-85902450D01*
X68491611Y-85921392D01*
X68510554Y-85936938D01*
X68532164Y-85948489D01*
X68555613Y-85955602D01*
X68580000Y-85958004D01*
X68604386Y-85955602D01*
X68627835Y-85948489D01*
X68649446Y-85936938D01*
X68668388Y-85921393D01*
X68683934Y-85902450D01*
X68695485Y-85880839D01*
X68742264Y-85767904D01*
X68879064Y-85563169D01*
X69053169Y-85389064D01*
X69257904Y-85252264D01*
X69485388Y-85158037D01*
X69726885Y-85110000D01*
X69973115Y-85110000D01*
X70214612Y-85158037D01*
X70442096Y-85252264D01*
X70646831Y-85389064D01*
X70820936Y-85563169D01*
X70957736Y-85767904D01*
X71051963Y-85995388D01*
X71100000Y-86236885D01*
X71100000Y-86483115D01*
X71051963Y-86724612D01*
X70957736Y-86952096D01*
X70820936Y-87156831D01*
X70646831Y-87330936D01*
X70442096Y-87467736D01*
X70214612Y-87561963D01*
X69973115Y-87610000D01*
X69726885Y-87610000D01*
X69485388Y-87561963D01*
X69257904Y-87467736D01*
X69053169Y-87330936D01*
X68879064Y-87156831D01*
X68742264Y-86952096D01*
X68695485Y-86839161D01*
X68683934Y-86817550D01*
X68668389Y-86798608D01*
X68649446Y-86783062D01*
X68627836Y-86771511D01*
X68604387Y-86764398D01*
X68580000Y-86761996D01*
X68555614Y-86764398D01*
X68532165Y-86771511D01*
X68510554Y-86783062D01*
X68491612Y-86798607D01*
X68476066Y-86817550D01*
X68464515Y-86839161D01*
X68417736Y-86952096D01*
X68280936Y-87156831D01*
X68106831Y-87330936D01*
X67902096Y-87467736D01*
X67674612Y-87561963D01*
X67433115Y-87610000D01*
X67186885Y-87610000D01*
X66945388Y-87561963D01*
X66717904Y-87467736D01*
X66513169Y-87330936D01*
X66339065Y-87156832D01*
X66248934Y-87021942D01*
X66233388Y-87003000D01*
X66214446Y-86987455D01*
X66192835Y-86975904D01*
X66169386Y-86968791D01*
X66145000Y-86966389D01*
X66120613Y-86968791D01*
X66097164Y-86975904D01*
X66075553Y-86987455D01*
X66056611Y-87003001D01*
X66041066Y-87021943D01*
X66029515Y-87043554D01*
X66022402Y-87067003D01*
X66020000Y-87091389D01*
X66020000Y-87610000D01*
X63520000Y-87610000D01*
X63520000Y-85110000D01*
X66020000Y-85110000D01*
X66020000Y-85628611D01*
X66020000Y-85628611D01*
G37*
G36*
X29877971Y-82597076D02*
X30114639Y-82644152D01*
X30560510Y-82828838D01*
X30961784Y-83096960D01*
X31303040Y-83438216D01*
X31571162Y-83839490D01*
X31755848Y-84285361D01*
X31850000Y-84758696D01*
X31850000Y-85241304D01*
X31755848Y-85714639D01*
X31571162Y-86160510D01*
X31303040Y-86561784D01*
X30961784Y-86903040D01*
X30560510Y-87171162D01*
X30114639Y-87355848D01*
X29907774Y-87396996D01*
X29641305Y-87450000D01*
X29158695Y-87450000D01*
X28892226Y-87396996D01*
X28685361Y-87355848D01*
X28239490Y-87171162D01*
X27838216Y-86903040D01*
X27496960Y-86561784D01*
X27228838Y-86160510D01*
X27044152Y-85714639D01*
X26950000Y-85241304D01*
X26950000Y-84758696D01*
X27044152Y-84285361D01*
X27228838Y-83839490D01*
X27496960Y-83438216D01*
X27838216Y-83096960D01*
X28239490Y-82828838D01*
X28685361Y-82644152D01*
X28922029Y-82597076D01*
X29158695Y-82550000D01*
X29641305Y-82550000D01*
X29877971Y-82597076D01*
X29877971Y-82597076D01*
G37*
G36*
X78877971Y-82597076D02*
X79114639Y-82644152D01*
X79560510Y-82828838D01*
X79961784Y-83096960D01*
X80303040Y-83438216D01*
X80571162Y-83839490D01*
X80755848Y-84285361D01*
X80850000Y-84758696D01*
X80850000Y-85241304D01*
X80755848Y-85714639D01*
X80571162Y-86160510D01*
X80303040Y-86561784D01*
X79961784Y-86903040D01*
X79560510Y-87171162D01*
X79114639Y-87355848D01*
X78907774Y-87396996D01*
X78641305Y-87450000D01*
X78158695Y-87450000D01*
X77892226Y-87396996D01*
X77685361Y-87355848D01*
X77239490Y-87171162D01*
X76838216Y-86903040D01*
X76496960Y-86561784D01*
X76228838Y-86160510D01*
X76044152Y-85714639D01*
X75950000Y-85241304D01*
X75950000Y-84758696D01*
X76044152Y-84285361D01*
X76228838Y-83839490D01*
X76496960Y-83438216D01*
X76838216Y-83096960D01*
X77239490Y-82828838D01*
X77685361Y-82644152D01*
X77922029Y-82597076D01*
X78158695Y-82550000D01*
X78641305Y-82550000D01*
X78877971Y-82597076D01*
X78877971Y-82597076D01*
G37*
M02*
