%TF.GenerationSoftware,KiCad,Pcbnew,5.0.2-bee76a0~70~ubuntu18.10.1*%
%TF.CreationDate,2019-11-15T11:24:18+01:00*%
%TF.ProjectId,Busmaster_001,4275736d-6173-4746-9572-5f3030312e6b,rev?*%
%TF.SameCoordinates,Original*%
%TF.FileFunction,Soldermask,Top*%
%TF.FilePolarity,Negative*%
%FSLAX46Y46*%
G04 Gerber Fmt 4.6, Leading zero omitted, Abs format (unit mm)*
G04 Created by KiCad (PCBNEW 5.0.2-bee76a0~70~ubuntu18.10.1) date Fr 15 Nov 2019 11:24:18 CET*
%MOMM*%
%LPD*%
G01*
G04 APERTURE LIST*
%ADD10C,0.100000*%
G04 APERTURE END LIST*
D10*
G36*
X30187560Y-140403759D02*
X30678928Y-140607290D01*
X30678930Y-140607291D01*
X30734096Y-140644152D01*
X31121153Y-140902775D01*
X31497225Y-141278847D01*
X31792710Y-141721072D01*
X31996241Y-142212440D01*
X32100000Y-142734072D01*
X32100000Y-143265928D01*
X31996241Y-143787560D01*
X31792710Y-144278928D01*
X31497225Y-144721153D01*
X31121153Y-145097225D01*
X31121150Y-145097227D01*
X30678930Y-145392709D01*
X30678929Y-145392710D01*
X30678928Y-145392710D01*
X30187560Y-145596241D01*
X29665928Y-145700000D01*
X29134072Y-145700000D01*
X28612440Y-145596241D01*
X28121072Y-145392710D01*
X28121071Y-145392710D01*
X28121070Y-145392709D01*
X27678850Y-145097227D01*
X27678847Y-145097225D01*
X27302775Y-144721153D01*
X27007290Y-144278928D01*
X26803759Y-143787560D01*
X26700000Y-143265928D01*
X26700000Y-142734072D01*
X26803759Y-142212440D01*
X27007290Y-141721072D01*
X27302775Y-141278847D01*
X27678847Y-140902775D01*
X28065904Y-140644152D01*
X28121070Y-140607291D01*
X28121072Y-140607290D01*
X28612440Y-140403759D01*
X29134072Y-140300000D01*
X29665928Y-140300000D01*
X30187560Y-140403759D01*
X30187560Y-140403759D01*
G37*
G36*
X78877971Y-140597076D02*
X79114639Y-140644152D01*
X79560510Y-140828838D01*
X79961784Y-141096960D01*
X80303040Y-141438216D01*
X80571162Y-141839490D01*
X80755848Y-142285361D01*
X80850000Y-142758696D01*
X80850000Y-143241304D01*
X80755848Y-143714639D01*
X80571162Y-144160510D01*
X80303040Y-144561784D01*
X79961784Y-144903040D01*
X79560510Y-145171162D01*
X79114639Y-145355848D01*
X78929326Y-145392709D01*
X78641305Y-145450000D01*
X78158695Y-145450000D01*
X77870674Y-145392709D01*
X77685361Y-145355848D01*
X77239490Y-145171162D01*
X76838216Y-144903040D01*
X76496960Y-144561784D01*
X76228838Y-144160510D01*
X76044152Y-143714639D01*
X75950000Y-143241304D01*
X75950000Y-142758696D01*
X76044152Y-142285361D01*
X76228838Y-141839490D01*
X76496960Y-141438216D01*
X76838216Y-141096960D01*
X77239490Y-140828838D01*
X77685361Y-140644152D01*
X77922029Y-140597076D01*
X78158695Y-140550000D01*
X78641305Y-140550000D01*
X78877971Y-140597076D01*
X78877971Y-140597076D01*
G37*
G36*
X57850000Y-142095000D02*
X56450000Y-142095000D01*
X56450000Y-138545000D01*
X57850000Y-138545000D01*
X57850000Y-142095000D01*
X57850000Y-142095000D01*
G37*
G36*
X55310000Y-142095000D02*
X53910000Y-142095000D01*
X53910000Y-138545000D01*
X55310000Y-138545000D01*
X55310000Y-142095000D01*
X55310000Y-142095000D01*
G37*
G36*
X60390000Y-142095000D02*
X58990000Y-142095000D01*
X58990000Y-138545000D01*
X60390000Y-138545000D01*
X60390000Y-142095000D01*
X60390000Y-142095000D01*
G37*
G36*
X68560000Y-138333611D02*
X68562402Y-138357997D01*
X68569515Y-138381446D01*
X68581066Y-138403057D01*
X68596612Y-138421999D01*
X68615554Y-138437545D01*
X68637165Y-138449096D01*
X68660614Y-138456209D01*
X68685000Y-138458611D01*
X68709386Y-138456209D01*
X68732835Y-138449096D01*
X68754446Y-138437545D01*
X68773388Y-138421999D01*
X68788934Y-138403058D01*
X68879065Y-138268168D01*
X69053169Y-138094064D01*
X69257904Y-137957264D01*
X69485388Y-137863037D01*
X69726885Y-137815000D01*
X69973115Y-137815000D01*
X70214612Y-137863037D01*
X70442096Y-137957264D01*
X70646831Y-138094064D01*
X70820936Y-138268169D01*
X70957736Y-138472904D01*
X71004515Y-138585839D01*
X71016066Y-138607450D01*
X71031611Y-138626392D01*
X71050554Y-138641938D01*
X71072164Y-138653489D01*
X71095613Y-138660602D01*
X71120000Y-138663004D01*
X71144386Y-138660602D01*
X71167835Y-138653489D01*
X71189446Y-138641938D01*
X71208388Y-138626393D01*
X71223934Y-138607450D01*
X71235485Y-138585839D01*
X71282264Y-138472904D01*
X71419064Y-138268169D01*
X71593169Y-138094064D01*
X71797904Y-137957264D01*
X72025388Y-137863037D01*
X72266885Y-137815000D01*
X72513115Y-137815000D01*
X72754612Y-137863037D01*
X72982096Y-137957264D01*
X73186831Y-138094064D01*
X73360936Y-138268169D01*
X73497736Y-138472904D01*
X73591963Y-138700388D01*
X73640000Y-138941885D01*
X73640000Y-139188115D01*
X73591963Y-139429612D01*
X73497736Y-139657096D01*
X73360936Y-139861831D01*
X73186831Y-140035936D01*
X72982096Y-140172736D01*
X72754612Y-140266963D01*
X72513115Y-140315000D01*
X72266885Y-140315000D01*
X72025388Y-140266963D01*
X71797904Y-140172736D01*
X71593169Y-140035936D01*
X71419064Y-139861831D01*
X71282264Y-139657096D01*
X71235485Y-139544161D01*
X71223934Y-139522550D01*
X71208389Y-139503608D01*
X71189446Y-139488062D01*
X71167836Y-139476511D01*
X71144387Y-139469398D01*
X71120000Y-139466996D01*
X71095614Y-139469398D01*
X71072165Y-139476511D01*
X71050554Y-139488062D01*
X71031612Y-139503607D01*
X71016066Y-139522550D01*
X71004515Y-139544161D01*
X70957736Y-139657096D01*
X70820936Y-139861831D01*
X70646831Y-140035936D01*
X70442096Y-140172736D01*
X70214612Y-140266963D01*
X69973115Y-140315000D01*
X69726885Y-140315000D01*
X69485388Y-140266963D01*
X69257904Y-140172736D01*
X69053169Y-140035936D01*
X68879065Y-139861832D01*
X68788934Y-139726942D01*
X68773388Y-139708000D01*
X68754446Y-139692455D01*
X68732835Y-139680904D01*
X68709386Y-139673791D01*
X68685000Y-139671389D01*
X68660613Y-139673791D01*
X68637164Y-139680904D01*
X68615553Y-139692455D01*
X68596611Y-139708001D01*
X68581066Y-139726943D01*
X68569515Y-139748554D01*
X68562402Y-139772003D01*
X68560000Y-139796389D01*
X68560000Y-140315000D01*
X66060000Y-140315000D01*
X66060000Y-137815000D01*
X68560000Y-137815000D01*
X68560000Y-138333611D01*
X68560000Y-138333611D01*
G37*
G36*
X77328707Y-137117597D02*
X77405836Y-137125193D01*
X77537787Y-137165220D01*
X77603763Y-137185233D01*
X77786172Y-137282733D01*
X77946054Y-137413946D01*
X78077267Y-137573828D01*
X78174767Y-137756237D01*
X78174767Y-137756238D01*
X78234807Y-137954164D01*
X78255080Y-138160000D01*
X78234807Y-138365836D01*
X78217770Y-138421999D01*
X78174767Y-138563763D01*
X78077267Y-138746172D01*
X77946054Y-138906054D01*
X77786172Y-139037267D01*
X77603763Y-139134767D01*
X77537787Y-139154780D01*
X77405836Y-139194807D01*
X77328707Y-139202403D01*
X77251580Y-139210000D01*
X77148420Y-139210000D01*
X77071293Y-139202403D01*
X76994164Y-139194807D01*
X76862213Y-139154780D01*
X76796237Y-139134767D01*
X76613828Y-139037267D01*
X76453946Y-138906054D01*
X76322733Y-138746172D01*
X76225233Y-138563763D01*
X76182230Y-138421999D01*
X76165193Y-138365836D01*
X76144920Y-138160000D01*
X76165193Y-137954164D01*
X76225233Y-137756238D01*
X76225233Y-137756237D01*
X76322733Y-137573828D01*
X76453946Y-137413946D01*
X76613828Y-137282733D01*
X76796237Y-137185233D01*
X76862213Y-137165220D01*
X76994164Y-137125193D01*
X77071293Y-137117597D01*
X77148420Y-137110000D01*
X77251580Y-137110000D01*
X77328707Y-137117597D01*
X77328707Y-137117597D01*
G37*
G36*
X79868707Y-137117597D02*
X79945836Y-137125193D01*
X80077787Y-137165220D01*
X80143763Y-137185233D01*
X80326172Y-137282733D01*
X80486054Y-137413946D01*
X80617267Y-137573828D01*
X80714767Y-137756237D01*
X80714767Y-137756238D01*
X80774807Y-137954164D01*
X80795080Y-138160000D01*
X80774807Y-138365836D01*
X80757770Y-138421999D01*
X80714767Y-138563763D01*
X80617267Y-138746172D01*
X80486054Y-138906054D01*
X80326172Y-139037267D01*
X80143763Y-139134767D01*
X80077787Y-139154780D01*
X79945836Y-139194807D01*
X79868707Y-139202403D01*
X79791580Y-139210000D01*
X79688420Y-139210000D01*
X79611293Y-139202403D01*
X79534164Y-139194807D01*
X79402213Y-139154780D01*
X79336237Y-139134767D01*
X79153828Y-139037267D01*
X78993946Y-138906054D01*
X78862733Y-138746172D01*
X78765233Y-138563763D01*
X78722230Y-138421999D01*
X78705193Y-138365836D01*
X78684920Y-138160000D01*
X78705193Y-137954164D01*
X78765233Y-137756238D01*
X78765233Y-137756237D01*
X78862733Y-137573828D01*
X78993946Y-137413946D01*
X79153828Y-137282733D01*
X79336237Y-137185233D01*
X79402213Y-137165220D01*
X79534164Y-137125193D01*
X79611293Y-137117597D01*
X79688420Y-137110000D01*
X79791580Y-137110000D01*
X79868707Y-137117597D01*
X79868707Y-137117597D01*
G37*
G36*
X55310000Y-137045000D02*
X53910000Y-137045000D01*
X53910000Y-133495000D01*
X55310000Y-133495000D01*
X55310000Y-137045000D01*
X55310000Y-137045000D01*
G37*
G36*
X60390000Y-137045000D02*
X58990000Y-137045000D01*
X58990000Y-133495000D01*
X60390000Y-133495000D01*
X60390000Y-137045000D01*
X60390000Y-137045000D01*
G37*
G36*
X57850000Y-137045000D02*
X56450000Y-137045000D01*
X56450000Y-133495000D01*
X57850000Y-133495000D01*
X57850000Y-137045000D01*
X57850000Y-137045000D01*
G37*
G36*
X79868707Y-134577597D02*
X79945836Y-134585193D01*
X80077787Y-134625220D01*
X80143763Y-134645233D01*
X80326172Y-134742733D01*
X80486054Y-134873946D01*
X80617267Y-135033828D01*
X80714767Y-135216237D01*
X80714767Y-135216238D01*
X80774807Y-135414164D01*
X80795080Y-135620000D01*
X80774807Y-135825836D01*
X80734780Y-135957787D01*
X80714767Y-136023763D01*
X80617267Y-136206172D01*
X80486054Y-136366054D01*
X80326172Y-136497267D01*
X80143763Y-136594767D01*
X80077787Y-136614780D01*
X79945836Y-136654807D01*
X79868707Y-136662404D01*
X79791580Y-136670000D01*
X79688420Y-136670000D01*
X79611293Y-136662404D01*
X79534164Y-136654807D01*
X79402213Y-136614780D01*
X79336237Y-136594767D01*
X79153828Y-136497267D01*
X78993946Y-136366054D01*
X78862733Y-136206172D01*
X78765233Y-136023763D01*
X78745220Y-135957787D01*
X78705193Y-135825836D01*
X78684920Y-135620000D01*
X78705193Y-135414164D01*
X78765233Y-135216238D01*
X78765233Y-135216237D01*
X78862733Y-135033828D01*
X78993946Y-134873946D01*
X79153828Y-134742733D01*
X79336237Y-134645233D01*
X79402213Y-134625220D01*
X79534164Y-134585193D01*
X79611293Y-134577597D01*
X79688420Y-134570000D01*
X79791580Y-134570000D01*
X79868707Y-134577597D01*
X79868707Y-134577597D01*
G37*
G36*
X77328707Y-134577597D02*
X77405836Y-134585193D01*
X77537787Y-134625220D01*
X77603763Y-134645233D01*
X77786172Y-134742733D01*
X77946054Y-134873946D01*
X78077267Y-135033828D01*
X78174767Y-135216237D01*
X78174767Y-135216238D01*
X78234807Y-135414164D01*
X78255080Y-135620000D01*
X78234807Y-135825836D01*
X78194780Y-135957787D01*
X78174767Y-136023763D01*
X78077267Y-136206172D01*
X77946054Y-136366054D01*
X77786172Y-136497267D01*
X77603763Y-136594767D01*
X77537787Y-136614780D01*
X77405836Y-136654807D01*
X77328707Y-136662404D01*
X77251580Y-136670000D01*
X77148420Y-136670000D01*
X77071293Y-136662404D01*
X76994164Y-136654807D01*
X76862213Y-136614780D01*
X76796237Y-136594767D01*
X76613828Y-136497267D01*
X76453946Y-136366054D01*
X76322733Y-136206172D01*
X76225233Y-136023763D01*
X76205220Y-135957787D01*
X76165193Y-135825836D01*
X76144920Y-135620000D01*
X76165193Y-135414164D01*
X76225233Y-135216238D01*
X76225233Y-135216237D01*
X76322733Y-135033828D01*
X76453946Y-134873946D01*
X76613828Y-134742733D01*
X76796237Y-134645233D01*
X76862213Y-134625220D01*
X76994164Y-134585193D01*
X77071293Y-134577597D01*
X77148420Y-134570000D01*
X77251580Y-134570000D01*
X77328707Y-134577597D01*
X77328707Y-134577597D01*
G37*
G36*
X29330603Y-133774968D02*
X29330606Y-133774969D01*
X29330605Y-133774969D01*
X29505678Y-133847486D01*
X29505679Y-133847487D01*
X29663241Y-133952767D01*
X29797233Y-134086759D01*
X29797234Y-134086761D01*
X29902514Y-134244322D01*
X29958603Y-134379734D01*
X29975032Y-134419397D01*
X30012000Y-134605250D01*
X30012000Y-134794750D01*
X29975032Y-134980603D01*
X29975031Y-134980605D01*
X29902514Y-135155678D01*
X29902513Y-135155679D01*
X29797233Y-135313241D01*
X29663241Y-135447233D01*
X29583923Y-135500232D01*
X29505678Y-135552514D01*
X29370266Y-135608603D01*
X29330603Y-135625032D01*
X29144750Y-135662000D01*
X28955250Y-135662000D01*
X28769397Y-135625032D01*
X28729734Y-135608603D01*
X28594322Y-135552514D01*
X28516077Y-135500232D01*
X28436759Y-135447233D01*
X28302767Y-135313241D01*
X28197487Y-135155679D01*
X28197486Y-135155678D01*
X28124969Y-134980605D01*
X28124968Y-134980603D01*
X28088000Y-134794750D01*
X28088000Y-134605250D01*
X28124968Y-134419397D01*
X28141397Y-134379734D01*
X28197486Y-134244322D01*
X28302766Y-134086761D01*
X28302767Y-134086759D01*
X28436759Y-133952767D01*
X28594321Y-133847487D01*
X28594322Y-133847486D01*
X28769395Y-133774969D01*
X28769394Y-133774969D01*
X28769397Y-133774968D01*
X28955250Y-133738000D01*
X29144750Y-133738000D01*
X29330603Y-133774968D01*
X29330603Y-133774968D01*
G37*
G36*
X46830603Y-133774968D02*
X46830606Y-133774969D01*
X46830605Y-133774969D01*
X47005678Y-133847486D01*
X47005679Y-133847487D01*
X47163241Y-133952767D01*
X47297233Y-134086759D01*
X47297234Y-134086761D01*
X47402514Y-134244322D01*
X47458603Y-134379734D01*
X47475032Y-134419397D01*
X47512000Y-134605250D01*
X47512000Y-134794750D01*
X47475032Y-134980603D01*
X47475031Y-134980605D01*
X47402514Y-135155678D01*
X47402513Y-135155679D01*
X47297233Y-135313241D01*
X47163241Y-135447233D01*
X47083923Y-135500232D01*
X47005678Y-135552514D01*
X46870266Y-135608603D01*
X46830603Y-135625032D01*
X46644750Y-135662000D01*
X46455250Y-135662000D01*
X46269397Y-135625032D01*
X46229734Y-135608603D01*
X46094322Y-135552514D01*
X46016077Y-135500232D01*
X45936759Y-135447233D01*
X45802767Y-135313241D01*
X45697487Y-135155679D01*
X45697486Y-135155678D01*
X45624969Y-134980605D01*
X45624968Y-134980603D01*
X45588000Y-134794750D01*
X45588000Y-134605250D01*
X45624968Y-134419397D01*
X45641397Y-134379734D01*
X45697486Y-134244322D01*
X45802766Y-134086761D01*
X45802767Y-134086759D01*
X45936759Y-133952767D01*
X46094321Y-133847487D01*
X46094322Y-133847486D01*
X46269395Y-133774969D01*
X46269394Y-133774969D01*
X46269397Y-133774968D01*
X46455250Y-133738000D01*
X46644750Y-133738000D01*
X46830603Y-133774968D01*
X46830603Y-133774968D01*
G37*
G36*
X79868707Y-132037597D02*
X79945836Y-132045193D01*
X80077787Y-132085220D01*
X80143763Y-132105233D01*
X80326172Y-132202733D01*
X80486054Y-132333946D01*
X80617267Y-132493828D01*
X80714767Y-132676237D01*
X80714767Y-132676238D01*
X80774807Y-132874164D01*
X80795080Y-133080000D01*
X80774807Y-133285836D01*
X80734780Y-133417787D01*
X80714767Y-133483763D01*
X80617267Y-133666172D01*
X80486054Y-133826054D01*
X80326172Y-133957267D01*
X80143763Y-134054767D01*
X80077787Y-134074780D01*
X79945836Y-134114807D01*
X79868707Y-134122403D01*
X79791580Y-134130000D01*
X79688420Y-134130000D01*
X79611293Y-134122403D01*
X79534164Y-134114807D01*
X79402213Y-134074780D01*
X79336237Y-134054767D01*
X79153828Y-133957267D01*
X78993946Y-133826054D01*
X78862733Y-133666172D01*
X78765233Y-133483763D01*
X78745220Y-133417787D01*
X78705193Y-133285836D01*
X78684920Y-133080000D01*
X78705193Y-132874164D01*
X78765233Y-132676238D01*
X78765233Y-132676237D01*
X78862733Y-132493828D01*
X78993946Y-132333946D01*
X79153828Y-132202733D01*
X79336237Y-132105233D01*
X79402213Y-132085220D01*
X79534164Y-132045193D01*
X79611293Y-132037597D01*
X79688420Y-132030000D01*
X79791580Y-132030000D01*
X79868707Y-132037597D01*
X79868707Y-132037597D01*
G37*
G36*
X77328707Y-132037597D02*
X77405836Y-132045193D01*
X77537787Y-132085220D01*
X77603763Y-132105233D01*
X77786172Y-132202733D01*
X77946054Y-132333946D01*
X78077267Y-132493828D01*
X78174767Y-132676237D01*
X78174767Y-132676238D01*
X78234807Y-132874164D01*
X78255080Y-133080000D01*
X78234807Y-133285836D01*
X78194780Y-133417787D01*
X78174767Y-133483763D01*
X78077267Y-133666172D01*
X77946054Y-133826054D01*
X77786172Y-133957267D01*
X77603763Y-134054767D01*
X77537787Y-134074780D01*
X77405836Y-134114807D01*
X77328707Y-134122403D01*
X77251580Y-134130000D01*
X77148420Y-134130000D01*
X77071293Y-134122403D01*
X76994164Y-134114807D01*
X76862213Y-134074780D01*
X76796237Y-134054767D01*
X76613828Y-133957267D01*
X76453946Y-133826054D01*
X76322733Y-133666172D01*
X76225233Y-133483763D01*
X76205220Y-133417787D01*
X76165193Y-133285836D01*
X76144920Y-133080000D01*
X76165193Y-132874164D01*
X76225233Y-132676238D01*
X76225233Y-132676237D01*
X76322733Y-132493828D01*
X76453946Y-132333946D01*
X76613828Y-132202733D01*
X76796237Y-132105233D01*
X76862213Y-132085220D01*
X76994164Y-132045193D01*
X77071293Y-132037597D01*
X77148420Y-132030000D01*
X77251580Y-132030000D01*
X77328707Y-132037597D01*
X77328707Y-132037597D01*
G37*
G36*
X79868707Y-129497597D02*
X79945836Y-129505193D01*
X80072731Y-129543686D01*
X80143763Y-129565233D01*
X80326172Y-129662733D01*
X80486054Y-129793946D01*
X80617267Y-129953828D01*
X80714767Y-130136237D01*
X80714767Y-130136238D01*
X80774807Y-130334164D01*
X80795080Y-130540000D01*
X80774807Y-130745836D01*
X80756461Y-130806314D01*
X80714767Y-130943763D01*
X80617267Y-131126172D01*
X80486054Y-131286054D01*
X80326172Y-131417267D01*
X80143763Y-131514767D01*
X80077787Y-131534780D01*
X79945836Y-131574807D01*
X79868707Y-131582403D01*
X79791580Y-131590000D01*
X79688420Y-131590000D01*
X79611293Y-131582403D01*
X79534164Y-131574807D01*
X79402213Y-131534780D01*
X79336237Y-131514767D01*
X79153828Y-131417267D01*
X78993946Y-131286054D01*
X78862733Y-131126172D01*
X78765233Y-130943763D01*
X78723539Y-130806314D01*
X78705193Y-130745836D01*
X78684920Y-130540000D01*
X78705193Y-130334164D01*
X78765233Y-130136238D01*
X78765233Y-130136237D01*
X78862733Y-129953828D01*
X78993946Y-129793946D01*
X79153828Y-129662733D01*
X79336237Y-129565233D01*
X79407269Y-129543686D01*
X79534164Y-129505193D01*
X79611293Y-129497597D01*
X79688420Y-129490000D01*
X79791580Y-129490000D01*
X79868707Y-129497597D01*
X79868707Y-129497597D01*
G37*
G36*
X77328707Y-129497597D02*
X77405836Y-129505193D01*
X77532731Y-129543686D01*
X77603763Y-129565233D01*
X77786172Y-129662733D01*
X77946054Y-129793946D01*
X78077267Y-129953828D01*
X78174767Y-130136237D01*
X78174767Y-130136238D01*
X78234807Y-130334164D01*
X78255080Y-130540000D01*
X78234807Y-130745836D01*
X78216461Y-130806314D01*
X78174767Y-130943763D01*
X78077267Y-131126172D01*
X77946054Y-131286054D01*
X77786172Y-131417267D01*
X77603763Y-131514767D01*
X77537787Y-131534780D01*
X77405836Y-131574807D01*
X77328707Y-131582403D01*
X77251580Y-131590000D01*
X77148420Y-131590000D01*
X77071293Y-131582403D01*
X76994164Y-131574807D01*
X76862213Y-131534780D01*
X76796237Y-131514767D01*
X76613828Y-131417267D01*
X76453946Y-131286054D01*
X76322733Y-131126172D01*
X76225233Y-130943763D01*
X76183539Y-130806314D01*
X76165193Y-130745836D01*
X76144920Y-130540000D01*
X76165193Y-130334164D01*
X76225233Y-130136238D01*
X76225233Y-130136237D01*
X76322733Y-129953828D01*
X76453946Y-129793946D01*
X76613828Y-129662733D01*
X76796237Y-129565233D01*
X76867269Y-129543686D01*
X76994164Y-129505193D01*
X77071293Y-129497597D01*
X77148420Y-129490000D01*
X77251580Y-129490000D01*
X77328707Y-129497597D01*
X77328707Y-129497597D01*
G37*
G36*
X63448622Y-129505517D02*
X63496585Y-129520066D01*
X63540775Y-129543686D01*
X63579518Y-129575482D01*
X63611314Y-129614225D01*
X63634934Y-129658415D01*
X63649483Y-129706378D01*
X63655000Y-129762391D01*
X63655000Y-130587609D01*
X63649483Y-130643622D01*
X63634934Y-130691585D01*
X63611314Y-130735775D01*
X63579518Y-130774518D01*
X63540775Y-130806314D01*
X63496585Y-130829934D01*
X63448622Y-130844483D01*
X63392609Y-130850000D01*
X62642391Y-130850000D01*
X62586378Y-130844483D01*
X62538415Y-130829934D01*
X62494225Y-130806314D01*
X62455482Y-130774518D01*
X62423686Y-130735775D01*
X62400066Y-130691585D01*
X62385517Y-130643622D01*
X62380000Y-130587609D01*
X62380000Y-129762391D01*
X62385517Y-129706378D01*
X62400066Y-129658415D01*
X62423686Y-129614225D01*
X62455482Y-129575482D01*
X62494225Y-129543686D01*
X62538415Y-129520066D01*
X62586378Y-129505517D01*
X62642391Y-129500000D01*
X63392609Y-129500000D01*
X63448622Y-129505517D01*
X63448622Y-129505517D01*
G37*
G36*
X61873622Y-129505517D02*
X61921585Y-129520066D01*
X61965775Y-129543686D01*
X62004518Y-129575482D01*
X62036314Y-129614225D01*
X62059934Y-129658415D01*
X62074483Y-129706378D01*
X62080000Y-129762391D01*
X62080000Y-130587609D01*
X62074483Y-130643622D01*
X62059934Y-130691585D01*
X62036314Y-130735775D01*
X62004518Y-130774518D01*
X61965775Y-130806314D01*
X61921585Y-130829934D01*
X61873622Y-130844483D01*
X61817609Y-130850000D01*
X61067391Y-130850000D01*
X61011378Y-130844483D01*
X60963415Y-130829934D01*
X60919225Y-130806314D01*
X60880482Y-130774518D01*
X60848686Y-130735775D01*
X60825066Y-130691585D01*
X60810517Y-130643622D01*
X60805000Y-130587609D01*
X60805000Y-129762391D01*
X60810517Y-129706378D01*
X60825066Y-129658415D01*
X60848686Y-129614225D01*
X60880482Y-129575482D01*
X60919225Y-129543686D01*
X60963415Y-129520066D01*
X61011378Y-129505517D01*
X61067391Y-129500000D01*
X61817609Y-129500000D01*
X61873622Y-129505517D01*
X61873622Y-129505517D01*
G37*
G36*
X52885000Y-129405000D02*
X50935000Y-129405000D01*
X50935000Y-128405000D01*
X52885000Y-128405000D01*
X52885000Y-129405000D01*
X52885000Y-129405000D01*
G37*
G36*
X58285000Y-129405000D02*
X56335000Y-129405000D01*
X56335000Y-128405000D01*
X58285000Y-128405000D01*
X58285000Y-129405000D01*
X58285000Y-129405000D01*
G37*
G36*
X77328707Y-126957597D02*
X77405836Y-126965193D01*
X77532731Y-127003686D01*
X77603763Y-127025233D01*
X77786172Y-127122733D01*
X77946054Y-127253946D01*
X78077267Y-127413828D01*
X78174767Y-127596237D01*
X78174767Y-127596238D01*
X78234807Y-127794164D01*
X78255080Y-128000000D01*
X78234807Y-128205836D01*
X78216461Y-128266314D01*
X78174767Y-128403763D01*
X78077267Y-128586172D01*
X77946054Y-128746054D01*
X77786172Y-128877267D01*
X77603763Y-128974767D01*
X77537787Y-128994780D01*
X77405836Y-129034807D01*
X77328707Y-129042403D01*
X77251580Y-129050000D01*
X77148420Y-129050000D01*
X77071293Y-129042403D01*
X76994164Y-129034807D01*
X76862213Y-128994780D01*
X76796237Y-128974767D01*
X76613828Y-128877267D01*
X76453946Y-128746054D01*
X76322733Y-128586172D01*
X76225233Y-128403763D01*
X76183539Y-128266314D01*
X76165193Y-128205836D01*
X76144920Y-128000000D01*
X76165193Y-127794164D01*
X76225233Y-127596238D01*
X76225233Y-127596237D01*
X76322733Y-127413828D01*
X76453946Y-127253946D01*
X76613828Y-127122733D01*
X76796237Y-127025233D01*
X76867269Y-127003686D01*
X76994164Y-126965193D01*
X77071293Y-126957597D01*
X77148420Y-126950000D01*
X77251580Y-126950000D01*
X77328707Y-126957597D01*
X77328707Y-126957597D01*
G37*
G36*
X79868707Y-126957597D02*
X79945836Y-126965193D01*
X80072731Y-127003686D01*
X80143763Y-127025233D01*
X80326172Y-127122733D01*
X80486054Y-127253946D01*
X80617267Y-127413828D01*
X80714767Y-127596237D01*
X80714767Y-127596238D01*
X80774807Y-127794164D01*
X80795080Y-128000000D01*
X80774807Y-128205836D01*
X80756461Y-128266314D01*
X80714767Y-128403763D01*
X80617267Y-128586172D01*
X80486054Y-128746054D01*
X80326172Y-128877267D01*
X80143763Y-128974767D01*
X80077787Y-128994780D01*
X79945836Y-129034807D01*
X79868707Y-129042403D01*
X79791580Y-129050000D01*
X79688420Y-129050000D01*
X79611293Y-129042403D01*
X79534164Y-129034807D01*
X79402213Y-128994780D01*
X79336237Y-128974767D01*
X79153828Y-128877267D01*
X78993946Y-128746054D01*
X78862733Y-128586172D01*
X78765233Y-128403763D01*
X78723539Y-128266314D01*
X78705193Y-128205836D01*
X78684920Y-128000000D01*
X78705193Y-127794164D01*
X78765233Y-127596238D01*
X78765233Y-127596237D01*
X78862733Y-127413828D01*
X78993946Y-127253946D01*
X79153828Y-127122733D01*
X79336237Y-127025233D01*
X79407269Y-127003686D01*
X79534164Y-126965193D01*
X79611293Y-126957597D01*
X79688420Y-126950000D01*
X79791580Y-126950000D01*
X79868707Y-126957597D01*
X79868707Y-126957597D01*
G37*
G36*
X67258622Y-126965517D02*
X67306585Y-126980066D01*
X67350775Y-127003686D01*
X67389518Y-127035482D01*
X67421314Y-127074225D01*
X67444934Y-127118415D01*
X67459483Y-127166378D01*
X67465000Y-127222391D01*
X67465000Y-128047609D01*
X67459483Y-128103622D01*
X67444934Y-128151585D01*
X67421314Y-128195775D01*
X67389518Y-128234518D01*
X67350775Y-128266314D01*
X67306585Y-128289934D01*
X67258622Y-128304483D01*
X67202609Y-128310000D01*
X66452391Y-128310000D01*
X66396378Y-128304483D01*
X66348415Y-128289934D01*
X66304225Y-128266314D01*
X66265482Y-128234518D01*
X66233686Y-128195775D01*
X66210066Y-128151585D01*
X66195517Y-128103622D01*
X66190000Y-128047609D01*
X66190000Y-127222391D01*
X66195517Y-127166378D01*
X66210066Y-127118415D01*
X66233686Y-127074225D01*
X66265482Y-127035482D01*
X66304225Y-127003686D01*
X66348415Y-126980066D01*
X66396378Y-126965517D01*
X66452391Y-126960000D01*
X67202609Y-126960000D01*
X67258622Y-126965517D01*
X67258622Y-126965517D01*
G37*
G36*
X65683622Y-126965517D02*
X65731585Y-126980066D01*
X65775775Y-127003686D01*
X65814518Y-127035482D01*
X65846314Y-127074225D01*
X65869934Y-127118415D01*
X65884483Y-127166378D01*
X65890000Y-127222391D01*
X65890000Y-128047609D01*
X65884483Y-128103622D01*
X65869934Y-128151585D01*
X65846314Y-128195775D01*
X65814518Y-128234518D01*
X65775775Y-128266314D01*
X65731585Y-128289934D01*
X65683622Y-128304483D01*
X65627609Y-128310000D01*
X64877391Y-128310000D01*
X64821378Y-128304483D01*
X64773415Y-128289934D01*
X64729225Y-128266314D01*
X64690482Y-128234518D01*
X64658686Y-128195775D01*
X64635066Y-128151585D01*
X64620517Y-128103622D01*
X64615000Y-128047609D01*
X64615000Y-127222391D01*
X64620517Y-127166378D01*
X64635066Y-127118415D01*
X64658686Y-127074225D01*
X64690482Y-127035482D01*
X64729225Y-127003686D01*
X64773415Y-126980066D01*
X64821378Y-126965517D01*
X64877391Y-126960000D01*
X65627609Y-126960000D01*
X65683622Y-126965517D01*
X65683622Y-126965517D01*
G37*
G36*
X52885000Y-128135000D02*
X50935000Y-128135000D01*
X50935000Y-127135000D01*
X52885000Y-127135000D01*
X52885000Y-128135000D01*
X52885000Y-128135000D01*
G37*
G36*
X58285000Y-128135000D02*
X56335000Y-128135000D01*
X56335000Y-127135000D01*
X58285000Y-127135000D01*
X58285000Y-128135000D01*
X58285000Y-128135000D01*
G37*
G36*
X61873622Y-126330517D02*
X61921585Y-126345066D01*
X61965775Y-126368686D01*
X62004518Y-126400482D01*
X62036314Y-126439225D01*
X62059934Y-126483415D01*
X62074483Y-126531378D01*
X62080000Y-126587391D01*
X62080000Y-127412609D01*
X62074483Y-127468622D01*
X62059934Y-127516585D01*
X62036314Y-127560775D01*
X62004518Y-127599518D01*
X61965775Y-127631314D01*
X61921585Y-127654934D01*
X61873622Y-127669483D01*
X61817609Y-127675000D01*
X61067391Y-127675000D01*
X61011378Y-127669483D01*
X60963415Y-127654934D01*
X60919225Y-127631314D01*
X60880482Y-127599518D01*
X60848686Y-127560775D01*
X60825066Y-127516585D01*
X60810517Y-127468622D01*
X60805000Y-127412609D01*
X60805000Y-126587391D01*
X60810517Y-126531378D01*
X60825066Y-126483415D01*
X60848686Y-126439225D01*
X60880482Y-126400482D01*
X60919225Y-126368686D01*
X60963415Y-126345066D01*
X61011378Y-126330517D01*
X61067391Y-126325000D01*
X61817609Y-126325000D01*
X61873622Y-126330517D01*
X61873622Y-126330517D01*
G37*
G36*
X63448622Y-126330517D02*
X63496585Y-126345066D01*
X63540775Y-126368686D01*
X63579518Y-126400482D01*
X63611314Y-126439225D01*
X63634934Y-126483415D01*
X63649483Y-126531378D01*
X63655000Y-126587391D01*
X63655000Y-127412609D01*
X63649483Y-127468622D01*
X63634934Y-127516585D01*
X63611314Y-127560775D01*
X63579518Y-127599518D01*
X63540775Y-127631314D01*
X63496585Y-127654934D01*
X63448622Y-127669483D01*
X63392609Y-127675000D01*
X62642391Y-127675000D01*
X62586378Y-127669483D01*
X62538415Y-127654934D01*
X62494225Y-127631314D01*
X62455482Y-127599518D01*
X62423686Y-127560775D01*
X62400066Y-127516585D01*
X62385517Y-127468622D01*
X62380000Y-127412609D01*
X62380000Y-126587391D01*
X62385517Y-126531378D01*
X62400066Y-126483415D01*
X62423686Y-126439225D01*
X62455482Y-126400482D01*
X62494225Y-126368686D01*
X62538415Y-126345066D01*
X62586378Y-126330517D01*
X62642391Y-126325000D01*
X63392609Y-126325000D01*
X63448622Y-126330517D01*
X63448622Y-126330517D01*
G37*
G36*
X58285000Y-126865000D02*
X56335000Y-126865000D01*
X56335000Y-125865000D01*
X58285000Y-125865000D01*
X58285000Y-126865000D01*
X58285000Y-126865000D01*
G37*
G36*
X52885000Y-126865000D02*
X50935000Y-126865000D01*
X50935000Y-125865000D01*
X52885000Y-125865000D01*
X52885000Y-126865000D01*
X52885000Y-126865000D01*
G37*
G36*
X79868707Y-124417597D02*
X79945836Y-124425193D01*
X80072731Y-124463686D01*
X80143763Y-124485233D01*
X80326172Y-124582733D01*
X80486054Y-124713946D01*
X80617267Y-124873828D01*
X80714767Y-125056237D01*
X80714767Y-125056238D01*
X80774807Y-125254164D01*
X80795080Y-125460000D01*
X80774807Y-125665836D01*
X80756461Y-125726314D01*
X80714767Y-125863763D01*
X80617267Y-126046172D01*
X80486054Y-126206054D01*
X80326172Y-126337267D01*
X80143763Y-126434767D01*
X80077787Y-126454780D01*
X79945836Y-126494807D01*
X79868707Y-126502404D01*
X79791580Y-126510000D01*
X79688420Y-126510000D01*
X79611293Y-126502404D01*
X79534164Y-126494807D01*
X79402213Y-126454780D01*
X79336237Y-126434767D01*
X79153828Y-126337267D01*
X78993946Y-126206054D01*
X78862733Y-126046172D01*
X78765233Y-125863763D01*
X78723539Y-125726314D01*
X78705193Y-125665836D01*
X78684920Y-125460000D01*
X78705193Y-125254164D01*
X78765233Y-125056238D01*
X78765233Y-125056237D01*
X78862733Y-124873828D01*
X78993946Y-124713946D01*
X79153828Y-124582733D01*
X79336237Y-124485233D01*
X79407269Y-124463686D01*
X79534164Y-124425193D01*
X79611293Y-124417597D01*
X79688420Y-124410000D01*
X79791580Y-124410000D01*
X79868707Y-124417597D01*
X79868707Y-124417597D01*
G37*
G36*
X77328707Y-124417597D02*
X77405836Y-124425193D01*
X77532731Y-124463686D01*
X77603763Y-124485233D01*
X77786172Y-124582733D01*
X77946054Y-124713946D01*
X78077267Y-124873828D01*
X78174767Y-125056237D01*
X78174767Y-125056238D01*
X78234807Y-125254164D01*
X78255080Y-125460000D01*
X78234807Y-125665836D01*
X78216461Y-125726314D01*
X78174767Y-125863763D01*
X78077267Y-126046172D01*
X77946054Y-126206054D01*
X77786172Y-126337267D01*
X77603763Y-126434767D01*
X77537787Y-126454780D01*
X77405836Y-126494807D01*
X77328707Y-126502404D01*
X77251580Y-126510000D01*
X77148420Y-126510000D01*
X77071293Y-126502404D01*
X76994164Y-126494807D01*
X76862213Y-126454780D01*
X76796237Y-126434767D01*
X76613828Y-126337267D01*
X76453946Y-126206054D01*
X76322733Y-126046172D01*
X76225233Y-125863763D01*
X76183539Y-125726314D01*
X76165193Y-125665836D01*
X76144920Y-125460000D01*
X76165193Y-125254164D01*
X76225233Y-125056238D01*
X76225233Y-125056237D01*
X76322733Y-124873828D01*
X76453946Y-124713946D01*
X76613828Y-124582733D01*
X76796237Y-124485233D01*
X76867269Y-124463686D01*
X76994164Y-124425193D01*
X77071293Y-124417597D01*
X77148420Y-124410000D01*
X77251580Y-124410000D01*
X77328707Y-124417597D01*
X77328707Y-124417597D01*
G37*
G36*
X65683622Y-124425517D02*
X65731585Y-124440066D01*
X65775775Y-124463686D01*
X65814518Y-124495482D01*
X65846314Y-124534225D01*
X65869934Y-124578415D01*
X65884483Y-124626378D01*
X65890000Y-124682391D01*
X65890000Y-125507609D01*
X65884483Y-125563622D01*
X65869934Y-125611585D01*
X65846314Y-125655775D01*
X65814518Y-125694518D01*
X65775775Y-125726314D01*
X65731585Y-125749934D01*
X65683622Y-125764483D01*
X65627609Y-125770000D01*
X64877391Y-125770000D01*
X64821378Y-125764483D01*
X64773415Y-125749934D01*
X64729225Y-125726314D01*
X64690482Y-125694518D01*
X64658686Y-125655775D01*
X64635066Y-125611585D01*
X64620517Y-125563622D01*
X64615000Y-125507609D01*
X64615000Y-124682391D01*
X64620517Y-124626378D01*
X64635066Y-124578415D01*
X64658686Y-124534225D01*
X64690482Y-124495482D01*
X64729225Y-124463686D01*
X64773415Y-124440066D01*
X64821378Y-124425517D01*
X64877391Y-124420000D01*
X65627609Y-124420000D01*
X65683622Y-124425517D01*
X65683622Y-124425517D01*
G37*
G36*
X67258622Y-124425517D02*
X67306585Y-124440066D01*
X67350775Y-124463686D01*
X67389518Y-124495482D01*
X67421314Y-124534225D01*
X67444934Y-124578415D01*
X67459483Y-124626378D01*
X67465000Y-124682391D01*
X67465000Y-125507609D01*
X67459483Y-125563622D01*
X67444934Y-125611585D01*
X67421314Y-125655775D01*
X67389518Y-125694518D01*
X67350775Y-125726314D01*
X67306585Y-125749934D01*
X67258622Y-125764483D01*
X67202609Y-125770000D01*
X66452391Y-125770000D01*
X66396378Y-125764483D01*
X66348415Y-125749934D01*
X66304225Y-125726314D01*
X66265482Y-125694518D01*
X66233686Y-125655775D01*
X66210066Y-125611585D01*
X66195517Y-125563622D01*
X66190000Y-125507609D01*
X66190000Y-124682391D01*
X66195517Y-124626378D01*
X66210066Y-124578415D01*
X66233686Y-124534225D01*
X66265482Y-124495482D01*
X66304225Y-124463686D01*
X66348415Y-124440066D01*
X66396378Y-124425517D01*
X66452391Y-124420000D01*
X67202609Y-124420000D01*
X67258622Y-124425517D01*
X67258622Y-124425517D01*
G37*
G36*
X58285000Y-125595000D02*
X56335000Y-125595000D01*
X56335000Y-124595000D01*
X58285000Y-124595000D01*
X58285000Y-125595000D01*
X58285000Y-125595000D01*
G37*
G36*
X52885000Y-125595000D02*
X50935000Y-125595000D01*
X50935000Y-124595000D01*
X52885000Y-124595000D01*
X52885000Y-125595000D01*
X52885000Y-125595000D01*
G37*
G36*
X77328707Y-121877597D02*
X77405836Y-121885193D01*
X77537787Y-121925220D01*
X77603763Y-121945233D01*
X77786172Y-122042733D01*
X77946054Y-122173946D01*
X78077267Y-122333828D01*
X78174767Y-122516237D01*
X78174767Y-122516238D01*
X78234807Y-122714164D01*
X78255080Y-122920000D01*
X78234807Y-123125836D01*
X78194780Y-123257787D01*
X78174767Y-123323763D01*
X78077267Y-123506172D01*
X77946054Y-123666054D01*
X77786172Y-123797267D01*
X77603763Y-123894767D01*
X77537787Y-123914780D01*
X77405836Y-123954807D01*
X77328707Y-123962403D01*
X77251580Y-123970000D01*
X77148420Y-123970000D01*
X77071293Y-123962403D01*
X76994164Y-123954807D01*
X76862213Y-123914780D01*
X76796237Y-123894767D01*
X76613828Y-123797267D01*
X76453946Y-123666054D01*
X76322733Y-123506172D01*
X76225233Y-123323763D01*
X76205220Y-123257787D01*
X76165193Y-123125836D01*
X76144920Y-122920000D01*
X76165193Y-122714164D01*
X76225233Y-122516238D01*
X76225233Y-122516237D01*
X76322733Y-122333828D01*
X76453946Y-122173946D01*
X76613828Y-122042733D01*
X76796237Y-121945233D01*
X76862213Y-121925220D01*
X76994164Y-121885193D01*
X77071293Y-121877597D01*
X77148420Y-121870000D01*
X77251580Y-121870000D01*
X77328707Y-121877597D01*
X77328707Y-121877597D01*
G37*
G36*
X79868707Y-121877597D02*
X79945836Y-121885193D01*
X80077787Y-121925220D01*
X80143763Y-121945233D01*
X80326172Y-122042733D01*
X80486054Y-122173946D01*
X80617267Y-122333828D01*
X80714767Y-122516237D01*
X80714767Y-122516238D01*
X80774807Y-122714164D01*
X80795080Y-122920000D01*
X80774807Y-123125836D01*
X80734780Y-123257787D01*
X80714767Y-123323763D01*
X80617267Y-123506172D01*
X80486054Y-123666054D01*
X80326172Y-123797267D01*
X80143763Y-123894767D01*
X80077787Y-123914780D01*
X79945836Y-123954807D01*
X79868707Y-123962403D01*
X79791580Y-123970000D01*
X79688420Y-123970000D01*
X79611293Y-123962403D01*
X79534164Y-123954807D01*
X79402213Y-123914780D01*
X79336237Y-123894767D01*
X79153828Y-123797267D01*
X78993946Y-123666054D01*
X78862733Y-123506172D01*
X78765233Y-123323763D01*
X78745220Y-123257787D01*
X78705193Y-123125836D01*
X78684920Y-122920000D01*
X78705193Y-122714164D01*
X78765233Y-122516238D01*
X78765233Y-122516237D01*
X78862733Y-122333828D01*
X78993946Y-122173946D01*
X79153828Y-122042733D01*
X79336237Y-121945233D01*
X79402213Y-121925220D01*
X79534164Y-121885193D01*
X79611293Y-121877597D01*
X79688420Y-121870000D01*
X79791580Y-121870000D01*
X79868707Y-121877597D01*
X79868707Y-121877597D01*
G37*
G36*
X72338622Y-121250517D02*
X72386585Y-121265066D01*
X72430775Y-121288686D01*
X72469518Y-121320482D01*
X72501314Y-121359225D01*
X72524934Y-121403415D01*
X72539483Y-121451378D01*
X72545000Y-121507391D01*
X72545000Y-122332609D01*
X72539483Y-122388622D01*
X72524934Y-122436585D01*
X72501314Y-122480775D01*
X72469518Y-122519518D01*
X72430775Y-122551314D01*
X72386585Y-122574934D01*
X72338622Y-122589483D01*
X72282609Y-122595000D01*
X71532391Y-122595000D01*
X71476378Y-122589483D01*
X71428415Y-122574934D01*
X71384225Y-122551314D01*
X71345482Y-122519518D01*
X71313686Y-122480775D01*
X71290066Y-122436585D01*
X71275517Y-122388622D01*
X71270000Y-122332609D01*
X71270000Y-121507391D01*
X71275517Y-121451378D01*
X71290066Y-121403415D01*
X71313686Y-121359225D01*
X71345482Y-121320482D01*
X71384225Y-121288686D01*
X71428415Y-121265066D01*
X71476378Y-121250517D01*
X71532391Y-121245000D01*
X72282609Y-121245000D01*
X72338622Y-121250517D01*
X72338622Y-121250517D01*
G37*
G36*
X70763622Y-121250517D02*
X70811585Y-121265066D01*
X70855775Y-121288686D01*
X70894518Y-121320482D01*
X70926314Y-121359225D01*
X70949934Y-121403415D01*
X70964483Y-121451378D01*
X70970000Y-121507391D01*
X70970000Y-122332609D01*
X70964483Y-122388622D01*
X70949934Y-122436585D01*
X70926314Y-122480775D01*
X70894518Y-122519518D01*
X70855775Y-122551314D01*
X70811585Y-122574934D01*
X70763622Y-122589483D01*
X70707609Y-122595000D01*
X69957391Y-122595000D01*
X69901378Y-122589483D01*
X69853415Y-122574934D01*
X69809225Y-122551314D01*
X69770482Y-122519518D01*
X69738686Y-122480775D01*
X69715066Y-122436585D01*
X69700517Y-122388622D01*
X69695000Y-122332609D01*
X69695000Y-121507391D01*
X69700517Y-121451378D01*
X69715066Y-121403415D01*
X69738686Y-121359225D01*
X69770482Y-121320482D01*
X69809225Y-121288686D01*
X69853415Y-121265066D01*
X69901378Y-121250517D01*
X69957391Y-121245000D01*
X70707609Y-121245000D01*
X70763622Y-121250517D01*
X70763622Y-121250517D01*
G37*
G36*
X64200000Y-121775000D02*
X62800000Y-121775000D01*
X62800000Y-118225000D01*
X64200000Y-118225000D01*
X64200000Y-121775000D01*
X64200000Y-121775000D01*
G37*
G36*
X61660000Y-121775000D02*
X60260000Y-121775000D01*
X60260000Y-118225000D01*
X61660000Y-118225000D01*
X61660000Y-121775000D01*
X61660000Y-121775000D01*
G37*
G36*
X66740000Y-121775000D02*
X65340000Y-121775000D01*
X65340000Y-118225000D01*
X66740000Y-118225000D01*
X66740000Y-121775000D01*
X66740000Y-121775000D01*
G37*
G36*
X79868707Y-119337596D02*
X79945836Y-119345193D01*
X80077787Y-119385220D01*
X80143763Y-119405233D01*
X80326172Y-119502733D01*
X80486054Y-119633946D01*
X80617267Y-119793828D01*
X80714767Y-119976237D01*
X80714767Y-119976238D01*
X80774807Y-120174164D01*
X80795080Y-120380000D01*
X80774807Y-120585836D01*
X80734780Y-120717787D01*
X80714767Y-120783763D01*
X80617267Y-120966172D01*
X80486054Y-121126054D01*
X80326172Y-121257267D01*
X80143763Y-121354767D01*
X80077787Y-121374780D01*
X79945836Y-121414807D01*
X79868707Y-121422403D01*
X79791580Y-121430000D01*
X79688420Y-121430000D01*
X79611293Y-121422403D01*
X79534164Y-121414807D01*
X79402213Y-121374780D01*
X79336237Y-121354767D01*
X79153828Y-121257267D01*
X78993946Y-121126054D01*
X78862733Y-120966172D01*
X78765233Y-120783763D01*
X78745220Y-120717787D01*
X78705193Y-120585836D01*
X78684920Y-120380000D01*
X78705193Y-120174164D01*
X78765233Y-119976238D01*
X78765233Y-119976237D01*
X78862733Y-119793828D01*
X78993946Y-119633946D01*
X79153828Y-119502733D01*
X79336237Y-119405233D01*
X79402213Y-119385220D01*
X79534164Y-119345193D01*
X79611293Y-119337596D01*
X79688420Y-119330000D01*
X79791580Y-119330000D01*
X79868707Y-119337596D01*
X79868707Y-119337596D01*
G37*
G36*
X77328707Y-119337596D02*
X77405836Y-119345193D01*
X77537787Y-119385220D01*
X77603763Y-119405233D01*
X77786172Y-119502733D01*
X77946054Y-119633946D01*
X78077267Y-119793828D01*
X78174767Y-119976237D01*
X78174767Y-119976238D01*
X78234807Y-120174164D01*
X78255080Y-120380000D01*
X78234807Y-120585836D01*
X78194780Y-120717787D01*
X78174767Y-120783763D01*
X78077267Y-120966172D01*
X77946054Y-121126054D01*
X77786172Y-121257267D01*
X77603763Y-121354767D01*
X77537787Y-121374780D01*
X77405836Y-121414807D01*
X77328707Y-121422403D01*
X77251580Y-121430000D01*
X77148420Y-121430000D01*
X77071293Y-121422403D01*
X76994164Y-121414807D01*
X76862213Y-121374780D01*
X76796237Y-121354767D01*
X76613828Y-121257267D01*
X76453946Y-121126054D01*
X76322733Y-120966172D01*
X76225233Y-120783763D01*
X76205220Y-120717787D01*
X76165193Y-120585836D01*
X76144920Y-120380000D01*
X76165193Y-120174164D01*
X76225233Y-119976238D01*
X76225233Y-119976237D01*
X76322733Y-119793828D01*
X76453946Y-119633946D01*
X76613828Y-119502733D01*
X76796237Y-119405233D01*
X76862213Y-119385220D01*
X76994164Y-119345193D01*
X77071293Y-119337596D01*
X77148420Y-119330000D01*
X77251580Y-119330000D01*
X77328707Y-119337596D01*
X77328707Y-119337596D01*
G37*
G36*
X72338622Y-118075517D02*
X72386585Y-118090066D01*
X72430775Y-118113686D01*
X72469518Y-118145482D01*
X72501314Y-118184225D01*
X72524934Y-118228415D01*
X72539483Y-118276378D01*
X72545000Y-118332391D01*
X72545000Y-119157609D01*
X72539483Y-119213622D01*
X72524934Y-119261585D01*
X72501314Y-119305775D01*
X72469518Y-119344518D01*
X72430775Y-119376314D01*
X72386585Y-119399934D01*
X72338622Y-119414483D01*
X72282609Y-119420000D01*
X71532391Y-119420000D01*
X71476378Y-119414483D01*
X71428415Y-119399934D01*
X71384225Y-119376314D01*
X71345482Y-119344518D01*
X71313686Y-119305775D01*
X71290066Y-119261585D01*
X71275517Y-119213622D01*
X71270000Y-119157609D01*
X71270000Y-118332391D01*
X71275517Y-118276378D01*
X71290066Y-118228415D01*
X71313686Y-118184225D01*
X71345482Y-118145482D01*
X71384225Y-118113686D01*
X71428415Y-118090066D01*
X71476378Y-118075517D01*
X71532391Y-118070000D01*
X72282609Y-118070000D01*
X72338622Y-118075517D01*
X72338622Y-118075517D01*
G37*
G36*
X70763622Y-118075517D02*
X70811585Y-118090066D01*
X70855775Y-118113686D01*
X70894518Y-118145482D01*
X70926314Y-118184225D01*
X70949934Y-118228415D01*
X70964483Y-118276378D01*
X70970000Y-118332391D01*
X70970000Y-119157609D01*
X70964483Y-119213622D01*
X70949934Y-119261585D01*
X70926314Y-119305775D01*
X70894518Y-119344518D01*
X70855775Y-119376314D01*
X70811585Y-119399934D01*
X70763622Y-119414483D01*
X70707609Y-119420000D01*
X69957391Y-119420000D01*
X69901378Y-119414483D01*
X69853415Y-119399934D01*
X69809225Y-119376314D01*
X69770482Y-119344518D01*
X69738686Y-119305775D01*
X69715066Y-119261585D01*
X69700517Y-119213622D01*
X69695000Y-119157609D01*
X69695000Y-118332391D01*
X69700517Y-118276378D01*
X69715066Y-118228415D01*
X69738686Y-118184225D01*
X69770482Y-118145482D01*
X69809225Y-118113686D01*
X69853415Y-118090066D01*
X69901378Y-118075517D01*
X69957391Y-118070000D01*
X70707609Y-118070000D01*
X70763622Y-118075517D01*
X70763622Y-118075517D01*
G37*
G36*
X77328707Y-116797596D02*
X77405836Y-116805193D01*
X77537787Y-116845220D01*
X77603763Y-116865233D01*
X77786172Y-116962733D01*
X77946054Y-117093946D01*
X78077267Y-117253828D01*
X78174767Y-117436237D01*
X78174767Y-117436238D01*
X78234807Y-117634164D01*
X78255080Y-117840000D01*
X78234807Y-118045836D01*
X78204580Y-118145482D01*
X78174767Y-118243763D01*
X78077267Y-118426172D01*
X77946054Y-118586054D01*
X77786172Y-118717267D01*
X77603763Y-118814767D01*
X77537787Y-118834780D01*
X77405836Y-118874807D01*
X77328707Y-118882404D01*
X77251580Y-118890000D01*
X77148420Y-118890000D01*
X77071293Y-118882404D01*
X76994164Y-118874807D01*
X76862213Y-118834780D01*
X76796237Y-118814767D01*
X76613828Y-118717267D01*
X76453946Y-118586054D01*
X76322733Y-118426172D01*
X76225233Y-118243763D01*
X76195420Y-118145482D01*
X76165193Y-118045836D01*
X76144920Y-117840000D01*
X76165193Y-117634164D01*
X76225233Y-117436238D01*
X76225233Y-117436237D01*
X76322733Y-117253828D01*
X76453946Y-117093946D01*
X76613828Y-116962733D01*
X76796237Y-116865233D01*
X76862213Y-116845220D01*
X76994164Y-116805193D01*
X77071293Y-116797596D01*
X77148420Y-116790000D01*
X77251580Y-116790000D01*
X77328707Y-116797596D01*
X77328707Y-116797596D01*
G37*
G36*
X79868707Y-116797596D02*
X79945836Y-116805193D01*
X80077787Y-116845220D01*
X80143763Y-116865233D01*
X80326172Y-116962733D01*
X80486054Y-117093946D01*
X80617267Y-117253828D01*
X80714767Y-117436237D01*
X80714767Y-117436238D01*
X80774807Y-117634164D01*
X80795080Y-117840000D01*
X80774807Y-118045836D01*
X80744580Y-118145482D01*
X80714767Y-118243763D01*
X80617267Y-118426172D01*
X80486054Y-118586054D01*
X80326172Y-118717267D01*
X80143763Y-118814767D01*
X80077787Y-118834780D01*
X79945836Y-118874807D01*
X79868707Y-118882404D01*
X79791580Y-118890000D01*
X79688420Y-118890000D01*
X79611293Y-118882404D01*
X79534164Y-118874807D01*
X79402213Y-118834780D01*
X79336237Y-118814767D01*
X79153828Y-118717267D01*
X78993946Y-118586054D01*
X78862733Y-118426172D01*
X78765233Y-118243763D01*
X78735420Y-118145482D01*
X78705193Y-118045836D01*
X78684920Y-117840000D01*
X78705193Y-117634164D01*
X78765233Y-117436238D01*
X78765233Y-117436237D01*
X78862733Y-117253828D01*
X78993946Y-117093946D01*
X79153828Y-116962733D01*
X79336237Y-116865233D01*
X79402213Y-116845220D01*
X79534164Y-116805193D01*
X79611293Y-116797596D01*
X79688420Y-116790000D01*
X79791580Y-116790000D01*
X79868707Y-116797596D01*
X79868707Y-116797596D01*
G37*
G36*
X61660000Y-116725000D02*
X60260000Y-116725000D01*
X60260000Y-113175000D01*
X61660000Y-113175000D01*
X61660000Y-116725000D01*
X61660000Y-116725000D01*
G37*
G36*
X66740000Y-116725000D02*
X65340000Y-116725000D01*
X65340000Y-113175000D01*
X66740000Y-113175000D01*
X66740000Y-116725000D01*
X66740000Y-116725000D01*
G37*
G36*
X64200000Y-116725000D02*
X62800000Y-116725000D01*
X62800000Y-113175000D01*
X64200000Y-113175000D01*
X64200000Y-116725000D01*
X64200000Y-116725000D01*
G37*
G36*
X77328707Y-114257596D02*
X77405836Y-114265193D01*
X77537787Y-114305220D01*
X77603763Y-114325233D01*
X77786172Y-114422733D01*
X77946054Y-114553946D01*
X78077267Y-114713828D01*
X78174767Y-114896237D01*
X78190687Y-114948719D01*
X78234807Y-115094164D01*
X78255080Y-115300000D01*
X78234807Y-115505836D01*
X78194780Y-115637787D01*
X78174767Y-115703763D01*
X78077267Y-115886172D01*
X77946054Y-116046054D01*
X77786172Y-116177267D01*
X77603763Y-116274767D01*
X77537787Y-116294780D01*
X77405836Y-116334807D01*
X77328707Y-116342404D01*
X77251580Y-116350000D01*
X77148420Y-116350000D01*
X77071293Y-116342404D01*
X76994164Y-116334807D01*
X76862213Y-116294780D01*
X76796237Y-116274767D01*
X76613828Y-116177267D01*
X76453946Y-116046054D01*
X76322733Y-115886172D01*
X76225233Y-115703763D01*
X76205220Y-115637787D01*
X76165193Y-115505836D01*
X76144920Y-115300000D01*
X76165193Y-115094164D01*
X76209313Y-114948719D01*
X76225233Y-114896237D01*
X76322733Y-114713828D01*
X76453946Y-114553946D01*
X76613828Y-114422733D01*
X76796237Y-114325233D01*
X76862213Y-114305220D01*
X76994164Y-114265193D01*
X77071293Y-114257596D01*
X77148420Y-114250000D01*
X77251580Y-114250000D01*
X77328707Y-114257596D01*
X77328707Y-114257596D01*
G37*
G36*
X79868707Y-114257596D02*
X79945836Y-114265193D01*
X80077787Y-114305220D01*
X80143763Y-114325233D01*
X80326172Y-114422733D01*
X80486054Y-114553946D01*
X80617267Y-114713828D01*
X80714767Y-114896237D01*
X80730687Y-114948719D01*
X80774807Y-115094164D01*
X80795080Y-115300000D01*
X80774807Y-115505836D01*
X80734780Y-115637787D01*
X80714767Y-115703763D01*
X80617267Y-115886172D01*
X80486054Y-116046054D01*
X80326172Y-116177267D01*
X80143763Y-116274767D01*
X80077787Y-116294780D01*
X79945836Y-116334807D01*
X79868707Y-116342404D01*
X79791580Y-116350000D01*
X79688420Y-116350000D01*
X79611293Y-116342404D01*
X79534164Y-116334807D01*
X79402213Y-116294780D01*
X79336237Y-116274767D01*
X79153828Y-116177267D01*
X78993946Y-116046054D01*
X78862733Y-115886172D01*
X78765233Y-115703763D01*
X78745220Y-115637787D01*
X78705193Y-115505836D01*
X78684920Y-115300000D01*
X78705193Y-115094164D01*
X78749313Y-114948719D01*
X78765233Y-114896237D01*
X78862733Y-114713828D01*
X78993946Y-114553946D01*
X79153828Y-114422733D01*
X79336237Y-114325233D01*
X79402213Y-114305220D01*
X79534164Y-114265193D01*
X79611293Y-114257596D01*
X79688420Y-114250000D01*
X79791580Y-114250000D01*
X79868707Y-114257596D01*
X79868707Y-114257596D01*
G37*
G36*
X72186122Y-114900517D02*
X72234085Y-114915066D01*
X72278275Y-114938686D01*
X72317018Y-114970482D01*
X72348814Y-115009225D01*
X72372434Y-115053415D01*
X72386983Y-115101378D01*
X72392500Y-115157391D01*
X72392500Y-115982609D01*
X72386983Y-116038622D01*
X72372434Y-116086585D01*
X72348814Y-116130775D01*
X72317018Y-116169518D01*
X72278275Y-116201314D01*
X72234085Y-116224934D01*
X72186122Y-116239483D01*
X72130109Y-116245000D01*
X71379891Y-116245000D01*
X71323878Y-116239483D01*
X71275915Y-116224934D01*
X71231725Y-116201314D01*
X71192982Y-116169518D01*
X71161186Y-116130775D01*
X71137566Y-116086585D01*
X71123017Y-116038622D01*
X71117500Y-115982609D01*
X71117500Y-115157391D01*
X71123017Y-115101378D01*
X71137566Y-115053415D01*
X71161186Y-115009225D01*
X71192982Y-114970482D01*
X71231725Y-114938686D01*
X71275915Y-114915066D01*
X71323878Y-114900517D01*
X71379891Y-114895000D01*
X72130109Y-114895000D01*
X72186122Y-114900517D01*
X72186122Y-114900517D01*
G37*
G36*
X70611122Y-114900517D02*
X70659085Y-114915066D01*
X70703275Y-114938686D01*
X70742018Y-114970482D01*
X70773814Y-115009225D01*
X70797434Y-115053415D01*
X70811983Y-115101378D01*
X70817500Y-115157391D01*
X70817500Y-115982609D01*
X70811983Y-116038622D01*
X70797434Y-116086585D01*
X70773814Y-116130775D01*
X70742018Y-116169518D01*
X70703275Y-116201314D01*
X70659085Y-116224934D01*
X70611122Y-116239483D01*
X70555109Y-116245000D01*
X69804891Y-116245000D01*
X69748878Y-116239483D01*
X69700915Y-116224934D01*
X69656725Y-116201314D01*
X69617982Y-116169518D01*
X69586186Y-116130775D01*
X69562566Y-116086585D01*
X69548017Y-116038622D01*
X69542500Y-115982609D01*
X69542500Y-115157391D01*
X69548017Y-115101378D01*
X69562566Y-115053415D01*
X69586186Y-115009225D01*
X69617982Y-114970482D01*
X69656725Y-114938686D01*
X69700915Y-114915066D01*
X69748878Y-114900517D01*
X69804891Y-114895000D01*
X70555109Y-114895000D01*
X70611122Y-114900517D01*
X70611122Y-114900517D01*
G37*
G36*
X79868707Y-111717596D02*
X79945836Y-111725193D01*
X80077787Y-111765220D01*
X80143763Y-111785233D01*
X80326172Y-111882733D01*
X80486054Y-112013946D01*
X80617267Y-112173828D01*
X80714767Y-112356237D01*
X80714767Y-112356238D01*
X80774807Y-112554164D01*
X80795080Y-112760000D01*
X80774807Y-112965836D01*
X80734780Y-113097787D01*
X80714767Y-113163763D01*
X80617267Y-113346172D01*
X80486054Y-113506054D01*
X80326172Y-113637267D01*
X80143763Y-113734767D01*
X80077787Y-113754780D01*
X79945836Y-113794807D01*
X79868707Y-113802403D01*
X79791580Y-113810000D01*
X79688420Y-113810000D01*
X79611293Y-113802403D01*
X79534164Y-113794807D01*
X79402213Y-113754780D01*
X79336237Y-113734767D01*
X79153828Y-113637267D01*
X78993946Y-113506054D01*
X78862733Y-113346172D01*
X78765233Y-113163763D01*
X78745220Y-113097787D01*
X78705193Y-112965836D01*
X78684920Y-112760000D01*
X78705193Y-112554164D01*
X78765233Y-112356238D01*
X78765233Y-112356237D01*
X78862733Y-112173828D01*
X78993946Y-112013946D01*
X79153828Y-111882733D01*
X79336237Y-111785233D01*
X79402213Y-111765220D01*
X79534164Y-111725193D01*
X79611293Y-111717596D01*
X79688420Y-111710000D01*
X79791580Y-111710000D01*
X79868707Y-111717596D01*
X79868707Y-111717596D01*
G37*
G36*
X77328707Y-111717596D02*
X77405836Y-111725193D01*
X77537787Y-111765220D01*
X77603763Y-111785233D01*
X77786172Y-111882733D01*
X77946054Y-112013946D01*
X78077267Y-112173828D01*
X78174767Y-112356237D01*
X78174767Y-112356238D01*
X78234807Y-112554164D01*
X78255080Y-112760000D01*
X78234807Y-112965836D01*
X78194780Y-113097787D01*
X78174767Y-113163763D01*
X78077267Y-113346172D01*
X77946054Y-113506054D01*
X77786172Y-113637267D01*
X77603763Y-113734767D01*
X77537787Y-113754780D01*
X77405836Y-113794807D01*
X77328707Y-113802403D01*
X77251580Y-113810000D01*
X77148420Y-113810000D01*
X77071293Y-113802403D01*
X76994164Y-113794807D01*
X76862213Y-113754780D01*
X76796237Y-113734767D01*
X76613828Y-113637267D01*
X76453946Y-113506054D01*
X76322733Y-113346172D01*
X76225233Y-113163763D01*
X76205220Y-113097787D01*
X76165193Y-112965836D01*
X76144920Y-112760000D01*
X76165193Y-112554164D01*
X76225233Y-112356238D01*
X76225233Y-112356237D01*
X76322733Y-112173828D01*
X76453946Y-112013946D01*
X76613828Y-111882733D01*
X76796237Y-111785233D01*
X76862213Y-111765220D01*
X76994164Y-111725193D01*
X77071293Y-111717596D01*
X77148420Y-111710000D01*
X77251580Y-111710000D01*
X77328707Y-111717596D01*
X77328707Y-111717596D01*
G37*
G36*
X55810000Y-111475000D02*
X53410000Y-111475000D01*
X53410000Y-106575000D01*
X55810000Y-106575000D01*
X55810000Y-111475000D01*
X55810000Y-111475000D01*
G37*
G36*
X77328707Y-109177597D02*
X77405836Y-109185193D01*
X77537787Y-109225220D01*
X77603763Y-109245233D01*
X77786172Y-109342733D01*
X77946054Y-109473946D01*
X78077267Y-109633828D01*
X78174767Y-109816237D01*
X78174767Y-109816238D01*
X78234807Y-110014164D01*
X78255080Y-110220000D01*
X78234807Y-110425836D01*
X78194780Y-110557787D01*
X78174767Y-110623763D01*
X78077267Y-110806172D01*
X77946054Y-110966054D01*
X77786172Y-111097267D01*
X77603763Y-111194767D01*
X77537787Y-111214780D01*
X77405836Y-111254807D01*
X77328707Y-111262403D01*
X77251580Y-111270000D01*
X77148420Y-111270000D01*
X77071293Y-111262403D01*
X76994164Y-111254807D01*
X76862213Y-111214780D01*
X76796237Y-111194767D01*
X76613828Y-111097267D01*
X76453946Y-110966054D01*
X76322733Y-110806172D01*
X76225233Y-110623763D01*
X76205220Y-110557787D01*
X76165193Y-110425836D01*
X76144920Y-110220000D01*
X76165193Y-110014164D01*
X76225233Y-109816238D01*
X76225233Y-109816237D01*
X76322733Y-109633828D01*
X76453946Y-109473946D01*
X76613828Y-109342733D01*
X76796237Y-109245233D01*
X76862213Y-109225220D01*
X76994164Y-109185193D01*
X77071293Y-109177597D01*
X77148420Y-109170000D01*
X77251580Y-109170000D01*
X77328707Y-109177597D01*
X77328707Y-109177597D01*
G37*
G36*
X79868707Y-109177597D02*
X79945836Y-109185193D01*
X80077787Y-109225220D01*
X80143763Y-109245233D01*
X80326172Y-109342733D01*
X80486054Y-109473946D01*
X80617267Y-109633828D01*
X80714767Y-109816237D01*
X80714767Y-109816238D01*
X80774807Y-110014164D01*
X80795080Y-110220000D01*
X80774807Y-110425836D01*
X80734780Y-110557787D01*
X80714767Y-110623763D01*
X80617267Y-110806172D01*
X80486054Y-110966054D01*
X80326172Y-111097267D01*
X80143763Y-111194767D01*
X80077787Y-111214780D01*
X79945836Y-111254807D01*
X79868707Y-111262403D01*
X79791580Y-111270000D01*
X79688420Y-111270000D01*
X79611293Y-111262403D01*
X79534164Y-111254807D01*
X79402213Y-111214780D01*
X79336237Y-111194767D01*
X79153828Y-111097267D01*
X78993946Y-110966054D01*
X78862733Y-110806172D01*
X78765233Y-110623763D01*
X78745220Y-110557787D01*
X78705193Y-110425836D01*
X78684920Y-110220000D01*
X78705193Y-110014164D01*
X78765233Y-109816238D01*
X78765233Y-109816237D01*
X78862733Y-109633828D01*
X78993946Y-109473946D01*
X79153828Y-109342733D01*
X79336237Y-109245233D01*
X79402213Y-109225220D01*
X79534164Y-109185193D01*
X79611293Y-109177597D01*
X79688420Y-109170000D01*
X79791580Y-109170000D01*
X79868707Y-109177597D01*
X79868707Y-109177597D01*
G37*
G36*
X69315000Y-100740000D02*
X69317402Y-100764386D01*
X69324515Y-100787835D01*
X69336066Y-100809446D01*
X69351612Y-100828388D01*
X69370554Y-100843934D01*
X69392165Y-100855485D01*
X69415614Y-100862598D01*
X69440000Y-100865000D01*
X71290000Y-100865000D01*
X71290000Y-107415000D01*
X69440000Y-107415000D01*
X69415614Y-107417402D01*
X69392165Y-107424515D01*
X69370554Y-107436066D01*
X69351612Y-107451612D01*
X69336066Y-107470554D01*
X69324515Y-107492165D01*
X69317402Y-107515614D01*
X69315000Y-107540000D01*
X69315000Y-109390000D01*
X62765000Y-109390000D01*
X62765000Y-107540000D01*
X62762598Y-107515614D01*
X62755485Y-107492165D01*
X62743934Y-107470554D01*
X62728388Y-107451612D01*
X62709446Y-107436066D01*
X62687835Y-107424515D01*
X62664386Y-107417402D01*
X62640000Y-107415000D01*
X60790000Y-107415000D01*
X60790000Y-101015000D01*
X62790000Y-101015000D01*
X62790000Y-107265000D01*
X62792402Y-107289386D01*
X62799515Y-107312835D01*
X62811066Y-107334446D01*
X62826612Y-107353388D01*
X62845554Y-107368934D01*
X62867165Y-107380485D01*
X62890614Y-107387598D01*
X62915000Y-107390000D01*
X69165000Y-107390000D01*
X69189386Y-107387598D01*
X69212835Y-107380485D01*
X69234446Y-107368934D01*
X69253388Y-107353388D01*
X69268934Y-107334446D01*
X69280485Y-107312835D01*
X69287598Y-107289386D01*
X69290000Y-107265000D01*
X69290000Y-101015000D01*
X69287598Y-100990614D01*
X69280485Y-100967165D01*
X69268934Y-100945554D01*
X69253388Y-100926612D01*
X69234446Y-100911066D01*
X69212835Y-100899515D01*
X69189386Y-100892402D01*
X69165000Y-100890000D01*
X62915000Y-100890000D01*
X62890614Y-100892402D01*
X62867165Y-100899515D01*
X62845554Y-100911066D01*
X62826612Y-100926612D01*
X62811066Y-100945554D01*
X62799515Y-100967165D01*
X62792402Y-100990614D01*
X62790000Y-101015000D01*
X60790000Y-101015000D01*
X60790000Y-100865000D01*
X62640000Y-100865000D01*
X62664386Y-100862598D01*
X62687835Y-100855485D01*
X62709446Y-100843934D01*
X62728388Y-100828388D01*
X62743934Y-100809446D01*
X62755485Y-100787835D01*
X62762598Y-100764386D01*
X62765000Y-100740000D01*
X62765000Y-98890000D01*
X69315000Y-98890000D01*
X69315000Y-100740000D01*
X69315000Y-100740000D01*
G37*
G36*
X79868707Y-106637596D02*
X79945836Y-106645193D01*
X80077787Y-106685220D01*
X80143763Y-106705233D01*
X80326172Y-106802733D01*
X80486054Y-106933946D01*
X80617267Y-107093828D01*
X80714767Y-107276237D01*
X80725869Y-107312835D01*
X80774807Y-107474164D01*
X80795080Y-107680000D01*
X80774807Y-107885836D01*
X80756379Y-107946585D01*
X80714767Y-108083763D01*
X80617267Y-108266172D01*
X80486054Y-108426054D01*
X80326172Y-108557267D01*
X80143763Y-108654767D01*
X80077787Y-108674780D01*
X79945836Y-108714807D01*
X79868707Y-108722404D01*
X79791580Y-108730000D01*
X79688420Y-108730000D01*
X79611293Y-108722404D01*
X79534164Y-108714807D01*
X79402213Y-108674780D01*
X79336237Y-108654767D01*
X79153828Y-108557267D01*
X78993946Y-108426054D01*
X78862733Y-108266172D01*
X78765233Y-108083763D01*
X78723621Y-107946585D01*
X78705193Y-107885836D01*
X78684920Y-107680000D01*
X78705193Y-107474164D01*
X78754131Y-107312835D01*
X78765233Y-107276237D01*
X78862733Y-107093828D01*
X78993946Y-106933946D01*
X79153828Y-106802733D01*
X79336237Y-106705233D01*
X79402213Y-106685220D01*
X79534164Y-106645193D01*
X79611293Y-106637596D01*
X79688420Y-106630000D01*
X79791580Y-106630000D01*
X79868707Y-106637596D01*
X79868707Y-106637596D01*
G37*
G36*
X77328707Y-106637596D02*
X77405836Y-106645193D01*
X77537787Y-106685220D01*
X77603763Y-106705233D01*
X77786172Y-106802733D01*
X77946054Y-106933946D01*
X78077267Y-107093828D01*
X78174767Y-107276237D01*
X78185869Y-107312835D01*
X78234807Y-107474164D01*
X78255080Y-107680000D01*
X78234807Y-107885836D01*
X78216379Y-107946585D01*
X78174767Y-108083763D01*
X78077267Y-108266172D01*
X77946054Y-108426054D01*
X77786172Y-108557267D01*
X77603763Y-108654767D01*
X77537787Y-108674780D01*
X77405836Y-108714807D01*
X77328707Y-108722404D01*
X77251580Y-108730000D01*
X77148420Y-108730000D01*
X77071293Y-108722404D01*
X76994164Y-108714807D01*
X76862213Y-108674780D01*
X76796237Y-108654767D01*
X76613828Y-108557267D01*
X76453946Y-108426054D01*
X76322733Y-108266172D01*
X76225233Y-108083763D01*
X76183621Y-107946585D01*
X76165193Y-107885836D01*
X76144920Y-107680000D01*
X76165193Y-107474164D01*
X76214131Y-107312835D01*
X76225233Y-107276237D01*
X76322733Y-107093828D01*
X76453946Y-106933946D01*
X76613828Y-106802733D01*
X76796237Y-106705233D01*
X76862213Y-106685220D01*
X76994164Y-106645193D01*
X77071293Y-106637596D01*
X77148420Y-106630000D01*
X77251580Y-106630000D01*
X77328707Y-106637596D01*
X77328707Y-106637596D01*
G37*
G36*
X51268622Y-106835517D02*
X51316585Y-106850066D01*
X51360775Y-106873686D01*
X51399518Y-106905482D01*
X51431314Y-106944225D01*
X51454934Y-106988415D01*
X51469483Y-107036378D01*
X51475000Y-107092391D01*
X51475000Y-107842609D01*
X51469483Y-107898622D01*
X51454934Y-107946585D01*
X51431314Y-107990775D01*
X51399518Y-108029518D01*
X51360775Y-108061314D01*
X51316585Y-108084934D01*
X51268622Y-108099483D01*
X51212609Y-108105000D01*
X50387391Y-108105000D01*
X50331378Y-108099483D01*
X50283415Y-108084934D01*
X50239225Y-108061314D01*
X50200482Y-108029518D01*
X50168686Y-107990775D01*
X50145066Y-107946585D01*
X50130517Y-107898622D01*
X50125000Y-107842609D01*
X50125000Y-107092391D01*
X50130517Y-107036378D01*
X50145066Y-106988415D01*
X50168686Y-106944225D01*
X50200482Y-106905482D01*
X50239225Y-106873686D01*
X50283415Y-106850066D01*
X50331378Y-106835517D01*
X50387391Y-106830000D01*
X51212609Y-106830000D01*
X51268622Y-106835517D01*
X51268622Y-106835517D01*
G37*
G36*
X51268622Y-105260517D02*
X51316585Y-105275066D01*
X51360775Y-105298686D01*
X51399518Y-105330482D01*
X51431314Y-105369225D01*
X51454934Y-105413415D01*
X51469483Y-105461378D01*
X51475000Y-105517391D01*
X51475000Y-106267609D01*
X51469483Y-106323622D01*
X51454934Y-106371585D01*
X51431314Y-106415775D01*
X51399518Y-106454518D01*
X51360775Y-106486314D01*
X51316585Y-106509934D01*
X51268622Y-106524483D01*
X51212609Y-106530000D01*
X50387391Y-106530000D01*
X50331378Y-106524483D01*
X50283415Y-106509934D01*
X50239225Y-106486314D01*
X50200482Y-106454518D01*
X50168686Y-106415775D01*
X50145066Y-106371585D01*
X50130517Y-106323622D01*
X50125000Y-106267609D01*
X50125000Y-105517391D01*
X50130517Y-105461378D01*
X50145066Y-105413415D01*
X50168686Y-105369225D01*
X50200482Y-105330482D01*
X50239225Y-105298686D01*
X50283415Y-105275066D01*
X50331378Y-105260517D01*
X50387391Y-105255000D01*
X51212609Y-105255000D01*
X51268622Y-105260517D01*
X51268622Y-105260517D01*
G37*
G36*
X77328707Y-104097597D02*
X77405836Y-104105193D01*
X77537787Y-104145220D01*
X77603763Y-104165233D01*
X77786172Y-104262733D01*
X77946054Y-104393946D01*
X78077267Y-104553828D01*
X78174767Y-104736237D01*
X78190571Y-104788338D01*
X78234807Y-104934164D01*
X78255080Y-105140000D01*
X78234807Y-105345836D01*
X78227712Y-105369225D01*
X78174767Y-105543763D01*
X78077267Y-105726172D01*
X77946054Y-105886054D01*
X77786172Y-106017267D01*
X77603763Y-106114767D01*
X77537787Y-106134780D01*
X77405836Y-106174807D01*
X77328707Y-106182404D01*
X77251580Y-106190000D01*
X77148420Y-106190000D01*
X77071293Y-106182404D01*
X76994164Y-106174807D01*
X76862213Y-106134780D01*
X76796237Y-106114767D01*
X76613828Y-106017267D01*
X76453946Y-105886054D01*
X76322733Y-105726172D01*
X76225233Y-105543763D01*
X76172288Y-105369225D01*
X76165193Y-105345836D01*
X76144920Y-105140000D01*
X76165193Y-104934164D01*
X76209429Y-104788338D01*
X76225233Y-104736237D01*
X76322733Y-104553828D01*
X76453946Y-104393946D01*
X76613828Y-104262733D01*
X76796237Y-104165233D01*
X76862213Y-104145220D01*
X76994164Y-104105193D01*
X77071293Y-104097597D01*
X77148420Y-104090000D01*
X77251580Y-104090000D01*
X77328707Y-104097597D01*
X77328707Y-104097597D01*
G37*
G36*
X79868707Y-104097597D02*
X79945836Y-104105193D01*
X80077787Y-104145220D01*
X80143763Y-104165233D01*
X80326172Y-104262733D01*
X80486054Y-104393946D01*
X80617267Y-104553828D01*
X80714767Y-104736237D01*
X80730571Y-104788338D01*
X80774807Y-104934164D01*
X80795080Y-105140000D01*
X80774807Y-105345836D01*
X80767712Y-105369225D01*
X80714767Y-105543763D01*
X80617267Y-105726172D01*
X80486054Y-105886054D01*
X80326172Y-106017267D01*
X80143763Y-106114767D01*
X80077787Y-106134780D01*
X79945836Y-106174807D01*
X79868707Y-106182404D01*
X79791580Y-106190000D01*
X79688420Y-106190000D01*
X79611293Y-106182404D01*
X79534164Y-106174807D01*
X79402213Y-106134780D01*
X79336237Y-106114767D01*
X79153828Y-106017267D01*
X78993946Y-105886054D01*
X78862733Y-105726172D01*
X78765233Y-105543763D01*
X78712288Y-105369225D01*
X78705193Y-105345836D01*
X78684920Y-105140000D01*
X78705193Y-104934164D01*
X78749429Y-104788338D01*
X78765233Y-104736237D01*
X78862733Y-104553828D01*
X78993946Y-104393946D01*
X79153828Y-104262733D01*
X79336237Y-104165233D01*
X79402213Y-104145220D01*
X79534164Y-104105193D01*
X79611293Y-104097597D01*
X79688420Y-104090000D01*
X79791580Y-104090000D01*
X79868707Y-104097597D01*
X79868707Y-104097597D01*
G37*
G36*
X72858622Y-104295517D02*
X72906585Y-104310066D01*
X72950775Y-104333686D01*
X72989518Y-104365482D01*
X73021314Y-104404225D01*
X73044934Y-104448415D01*
X73059483Y-104496378D01*
X73065000Y-104552391D01*
X73065000Y-105302609D01*
X73059483Y-105358622D01*
X73044934Y-105406585D01*
X73021314Y-105450775D01*
X72989518Y-105489518D01*
X72950775Y-105521314D01*
X72906585Y-105544934D01*
X72858622Y-105559483D01*
X72802609Y-105565000D01*
X71977391Y-105565000D01*
X71921378Y-105559483D01*
X71873415Y-105544934D01*
X71829225Y-105521314D01*
X71790482Y-105489518D01*
X71758686Y-105450775D01*
X71735066Y-105406585D01*
X71720517Y-105358622D01*
X71715000Y-105302609D01*
X71715000Y-104552391D01*
X71720517Y-104496378D01*
X71735066Y-104448415D01*
X71758686Y-104404225D01*
X71790482Y-104365482D01*
X71829225Y-104333686D01*
X71873415Y-104310066D01*
X71921378Y-104295517D01*
X71977391Y-104290000D01*
X72802609Y-104290000D01*
X72858622Y-104295517D01*
X72858622Y-104295517D01*
G37*
G36*
X51268622Y-103660517D02*
X51316585Y-103675066D01*
X51360775Y-103698686D01*
X51399518Y-103730482D01*
X51431314Y-103769225D01*
X51454934Y-103813415D01*
X51469483Y-103861378D01*
X51475000Y-103917391D01*
X51475000Y-104667609D01*
X51469483Y-104723622D01*
X51454934Y-104771585D01*
X51431314Y-104815775D01*
X51399518Y-104854518D01*
X51360775Y-104886314D01*
X51316585Y-104909934D01*
X51268622Y-104924483D01*
X51212609Y-104930000D01*
X50387391Y-104930000D01*
X50331378Y-104924483D01*
X50283415Y-104909934D01*
X50239225Y-104886314D01*
X50200482Y-104854518D01*
X50168686Y-104815775D01*
X50145066Y-104771585D01*
X50130517Y-104723622D01*
X50125000Y-104667609D01*
X50125000Y-103917391D01*
X50130517Y-103861378D01*
X50145066Y-103813415D01*
X50168686Y-103769225D01*
X50200482Y-103730482D01*
X50239225Y-103698686D01*
X50283415Y-103675066D01*
X50331378Y-103660517D01*
X50387391Y-103655000D01*
X51212609Y-103655000D01*
X51268622Y-103660517D01*
X51268622Y-103660517D01*
G37*
G36*
X72858622Y-102720517D02*
X72906585Y-102735066D01*
X72950775Y-102758686D01*
X72989518Y-102790482D01*
X73021314Y-102829225D01*
X73044934Y-102873415D01*
X73059483Y-102921378D01*
X73065000Y-102977391D01*
X73065000Y-103727609D01*
X73059483Y-103783622D01*
X73044934Y-103831585D01*
X73021314Y-103875775D01*
X72989518Y-103914518D01*
X72950775Y-103946314D01*
X72906585Y-103969934D01*
X72858622Y-103984483D01*
X72802609Y-103990000D01*
X71977391Y-103990000D01*
X71921378Y-103984483D01*
X71873415Y-103969934D01*
X71829225Y-103946314D01*
X71790482Y-103914518D01*
X71758686Y-103875775D01*
X71735066Y-103831585D01*
X71720517Y-103783622D01*
X71715000Y-103727609D01*
X71715000Y-102977391D01*
X71720517Y-102921378D01*
X71735066Y-102873415D01*
X71758686Y-102829225D01*
X71790482Y-102790482D01*
X71829225Y-102758686D01*
X71873415Y-102735066D01*
X71921378Y-102720517D01*
X71977391Y-102715000D01*
X72802609Y-102715000D01*
X72858622Y-102720517D01*
X72858622Y-102720517D01*
G37*
G36*
X79868707Y-101557596D02*
X79945836Y-101565193D01*
X80077787Y-101605220D01*
X80143763Y-101625233D01*
X80326172Y-101722733D01*
X80486054Y-101853946D01*
X80617267Y-102013828D01*
X80714767Y-102196237D01*
X80714767Y-102196238D01*
X80774807Y-102394164D01*
X80795080Y-102600000D01*
X80774807Y-102805836D01*
X80774041Y-102808360D01*
X80714767Y-103003763D01*
X80617267Y-103186172D01*
X80486054Y-103346054D01*
X80326172Y-103477267D01*
X80143763Y-103574767D01*
X80077787Y-103594780D01*
X79945836Y-103634807D01*
X79868707Y-103642404D01*
X79791580Y-103650000D01*
X79688420Y-103650000D01*
X79611293Y-103642404D01*
X79534164Y-103634807D01*
X79402213Y-103594780D01*
X79336237Y-103574767D01*
X79153828Y-103477267D01*
X78993946Y-103346054D01*
X78862733Y-103186172D01*
X78765233Y-103003763D01*
X78705959Y-102808360D01*
X78705193Y-102805836D01*
X78684920Y-102600000D01*
X78705193Y-102394164D01*
X78765233Y-102196238D01*
X78765233Y-102196237D01*
X78862733Y-102013828D01*
X78993946Y-101853946D01*
X79153828Y-101722733D01*
X79336237Y-101625233D01*
X79402213Y-101605220D01*
X79534164Y-101565193D01*
X79611293Y-101557596D01*
X79688420Y-101550000D01*
X79791580Y-101550000D01*
X79868707Y-101557596D01*
X79868707Y-101557596D01*
G37*
G36*
X77328707Y-101557596D02*
X77405836Y-101565193D01*
X77537787Y-101605220D01*
X77603763Y-101625233D01*
X77786172Y-101722733D01*
X77946054Y-101853946D01*
X78077267Y-102013828D01*
X78174767Y-102196237D01*
X78174767Y-102196238D01*
X78234807Y-102394164D01*
X78255080Y-102600000D01*
X78234807Y-102805836D01*
X78234041Y-102808360D01*
X78174767Y-103003763D01*
X78077267Y-103186172D01*
X77946054Y-103346054D01*
X77786172Y-103477267D01*
X77603763Y-103574767D01*
X77537787Y-103594780D01*
X77405836Y-103634807D01*
X77328707Y-103642404D01*
X77251580Y-103650000D01*
X77148420Y-103650000D01*
X77071293Y-103642404D01*
X76994164Y-103634807D01*
X76862213Y-103594780D01*
X76796237Y-103574767D01*
X76613828Y-103477267D01*
X76453946Y-103346054D01*
X76322733Y-103186172D01*
X76225233Y-103003763D01*
X76165959Y-102808360D01*
X76165193Y-102805836D01*
X76144920Y-102600000D01*
X76165193Y-102394164D01*
X76225233Y-102196238D01*
X76225233Y-102196237D01*
X76322733Y-102013828D01*
X76453946Y-101853946D01*
X76613828Y-101722733D01*
X76796237Y-101625233D01*
X76862213Y-101605220D01*
X76994164Y-101565193D01*
X77071293Y-101557596D01*
X77148420Y-101550000D01*
X77251580Y-101550000D01*
X77328707Y-101557596D01*
X77328707Y-101557596D01*
G37*
G36*
X51268622Y-102085517D02*
X51316585Y-102100066D01*
X51360775Y-102123686D01*
X51399518Y-102155482D01*
X51431314Y-102194225D01*
X51454934Y-102238415D01*
X51469483Y-102286378D01*
X51475000Y-102342391D01*
X51475000Y-103092609D01*
X51469483Y-103148622D01*
X51454934Y-103196585D01*
X51431314Y-103240775D01*
X51399518Y-103279518D01*
X51360775Y-103311314D01*
X51316585Y-103334934D01*
X51268622Y-103349483D01*
X51212609Y-103355000D01*
X50387391Y-103355000D01*
X50331378Y-103349483D01*
X50283415Y-103334934D01*
X50239225Y-103311314D01*
X50200482Y-103279518D01*
X50168686Y-103240775D01*
X50145066Y-103196585D01*
X50130517Y-103148622D01*
X50125000Y-103092609D01*
X50125000Y-102342391D01*
X50130517Y-102286378D01*
X50145066Y-102238415D01*
X50168686Y-102194225D01*
X50200482Y-102155482D01*
X50239225Y-102123686D01*
X50283415Y-102100066D01*
X50331378Y-102085517D01*
X50387391Y-102080000D01*
X51212609Y-102080000D01*
X51268622Y-102085517D01*
X51268622Y-102085517D01*
G37*
G36*
X55810000Y-102975000D02*
X53410000Y-102975000D01*
X53410000Y-98075000D01*
X55810000Y-98075000D01*
X55810000Y-102975000D01*
X55810000Y-102975000D01*
G37*
G36*
X77328707Y-99017596D02*
X77405836Y-99025193D01*
X77537787Y-99065220D01*
X77603763Y-99085233D01*
X77786172Y-99182733D01*
X77946054Y-99313946D01*
X78077267Y-99473828D01*
X78174767Y-99656237D01*
X78174767Y-99656238D01*
X78234807Y-99854164D01*
X78255080Y-100060000D01*
X78234807Y-100265836D01*
X78194780Y-100397787D01*
X78174767Y-100463763D01*
X78077267Y-100646172D01*
X77946054Y-100806054D01*
X77786172Y-100937267D01*
X77603763Y-101034767D01*
X77537787Y-101054780D01*
X77405836Y-101094807D01*
X77328707Y-101102404D01*
X77251580Y-101110000D01*
X77148420Y-101110000D01*
X77071293Y-101102404D01*
X76994164Y-101094807D01*
X76862213Y-101054780D01*
X76796237Y-101034767D01*
X76613828Y-100937267D01*
X76453946Y-100806054D01*
X76322733Y-100646172D01*
X76225233Y-100463763D01*
X76205220Y-100397787D01*
X76165193Y-100265836D01*
X76144920Y-100060000D01*
X76165193Y-99854164D01*
X76225233Y-99656238D01*
X76225233Y-99656237D01*
X76322733Y-99473828D01*
X76453946Y-99313946D01*
X76613828Y-99182733D01*
X76796237Y-99085233D01*
X76862213Y-99065220D01*
X76994164Y-99025193D01*
X77071293Y-99017596D01*
X77148420Y-99010000D01*
X77251580Y-99010000D01*
X77328707Y-99017596D01*
X77328707Y-99017596D01*
G37*
G36*
X79868707Y-99017596D02*
X79945836Y-99025193D01*
X80077787Y-99065220D01*
X80143763Y-99085233D01*
X80326172Y-99182733D01*
X80486054Y-99313946D01*
X80617267Y-99473828D01*
X80714767Y-99656237D01*
X80714767Y-99656238D01*
X80774807Y-99854164D01*
X80795080Y-100060000D01*
X80774807Y-100265836D01*
X80734780Y-100397787D01*
X80714767Y-100463763D01*
X80617267Y-100646172D01*
X80486054Y-100806054D01*
X80326172Y-100937267D01*
X80143763Y-101034767D01*
X80077787Y-101054780D01*
X79945836Y-101094807D01*
X79868707Y-101102404D01*
X79791580Y-101110000D01*
X79688420Y-101110000D01*
X79611293Y-101102404D01*
X79534164Y-101094807D01*
X79402213Y-101054780D01*
X79336237Y-101034767D01*
X79153828Y-100937267D01*
X78993946Y-100806054D01*
X78862733Y-100646172D01*
X78765233Y-100463763D01*
X78745220Y-100397787D01*
X78705193Y-100265836D01*
X78684920Y-100060000D01*
X78705193Y-99854164D01*
X78765233Y-99656238D01*
X78765233Y-99656237D01*
X78862733Y-99473828D01*
X78993946Y-99313946D01*
X79153828Y-99182733D01*
X79336237Y-99085233D01*
X79402213Y-99065220D01*
X79534164Y-99025193D01*
X79611293Y-99017596D01*
X79688420Y-99010000D01*
X79791580Y-99010000D01*
X79868707Y-99017596D01*
X79868707Y-99017596D01*
G37*
G36*
X79868707Y-96477596D02*
X79945836Y-96485193D01*
X80077787Y-96525220D01*
X80143763Y-96545233D01*
X80326172Y-96642733D01*
X80486054Y-96773946D01*
X80617267Y-96933828D01*
X80714767Y-97116237D01*
X80714767Y-97116238D01*
X80774807Y-97314164D01*
X80795080Y-97520000D01*
X80774807Y-97725836D01*
X80734780Y-97857787D01*
X80714767Y-97923763D01*
X80617267Y-98106172D01*
X80486054Y-98266054D01*
X80326172Y-98397267D01*
X80143763Y-98494767D01*
X80077787Y-98514780D01*
X79945836Y-98554807D01*
X79868707Y-98562404D01*
X79791580Y-98570000D01*
X79688420Y-98570000D01*
X79611293Y-98562404D01*
X79534164Y-98554807D01*
X79402213Y-98514780D01*
X79336237Y-98494767D01*
X79153828Y-98397267D01*
X78993946Y-98266054D01*
X78862733Y-98106172D01*
X78765233Y-97923763D01*
X78745220Y-97857787D01*
X78705193Y-97725836D01*
X78684920Y-97520000D01*
X78705193Y-97314164D01*
X78765233Y-97116238D01*
X78765233Y-97116237D01*
X78862733Y-96933828D01*
X78993946Y-96773946D01*
X79153828Y-96642733D01*
X79336237Y-96545233D01*
X79402213Y-96525220D01*
X79534164Y-96485193D01*
X79611293Y-96477596D01*
X79688420Y-96470000D01*
X79791580Y-96470000D01*
X79868707Y-96477596D01*
X79868707Y-96477596D01*
G37*
G36*
X77328707Y-96477596D02*
X77405836Y-96485193D01*
X77537787Y-96525220D01*
X77603763Y-96545233D01*
X77786172Y-96642733D01*
X77946054Y-96773946D01*
X78077267Y-96933828D01*
X78174767Y-97116237D01*
X78174767Y-97116238D01*
X78234807Y-97314164D01*
X78255080Y-97520000D01*
X78234807Y-97725836D01*
X78194780Y-97857787D01*
X78174767Y-97923763D01*
X78077267Y-98106172D01*
X77946054Y-98266054D01*
X77786172Y-98397267D01*
X77603763Y-98494767D01*
X77537787Y-98514780D01*
X77405836Y-98554807D01*
X77328707Y-98562404D01*
X77251580Y-98570000D01*
X77148420Y-98570000D01*
X77071293Y-98562404D01*
X76994164Y-98554807D01*
X76862213Y-98514780D01*
X76796237Y-98494767D01*
X76613828Y-98397267D01*
X76453946Y-98266054D01*
X76322733Y-98106172D01*
X76225233Y-97923763D01*
X76205220Y-97857787D01*
X76165193Y-97725836D01*
X76144920Y-97520000D01*
X76165193Y-97314164D01*
X76225233Y-97116238D01*
X76225233Y-97116237D01*
X76322733Y-96933828D01*
X76453946Y-96773946D01*
X76613828Y-96642733D01*
X76796237Y-96545233D01*
X76862213Y-96525220D01*
X76994164Y-96485193D01*
X77071293Y-96477596D01*
X77148420Y-96470000D01*
X77251580Y-96470000D01*
X77328707Y-96477596D01*
X77328707Y-96477596D01*
G37*
G36*
X54558622Y-95215517D02*
X54606585Y-95230066D01*
X54650775Y-95253686D01*
X54689518Y-95285482D01*
X54721314Y-95324225D01*
X54744934Y-95368415D01*
X54759483Y-95416378D01*
X54765000Y-95472391D01*
X54765000Y-96297609D01*
X54759483Y-96353622D01*
X54744934Y-96401585D01*
X54721314Y-96445775D01*
X54689518Y-96484518D01*
X54650775Y-96516314D01*
X54606585Y-96539934D01*
X54558622Y-96554483D01*
X54502609Y-96560000D01*
X53752391Y-96560000D01*
X53696378Y-96554483D01*
X53648415Y-96539934D01*
X53604225Y-96516314D01*
X53565482Y-96484518D01*
X53533686Y-96445775D01*
X53510066Y-96401585D01*
X53495517Y-96353622D01*
X53490000Y-96297609D01*
X53490000Y-95472391D01*
X53495517Y-95416378D01*
X53510066Y-95368415D01*
X53533686Y-95324225D01*
X53565482Y-95285482D01*
X53604225Y-95253686D01*
X53648415Y-95230066D01*
X53696378Y-95215517D01*
X53752391Y-95210000D01*
X54502609Y-95210000D01*
X54558622Y-95215517D01*
X54558622Y-95215517D01*
G37*
G36*
X52983622Y-95215517D02*
X53031585Y-95230066D01*
X53075775Y-95253686D01*
X53114518Y-95285482D01*
X53146314Y-95324225D01*
X53169934Y-95368415D01*
X53184483Y-95416378D01*
X53190000Y-95472391D01*
X53190000Y-96297609D01*
X53184483Y-96353622D01*
X53169934Y-96401585D01*
X53146314Y-96445775D01*
X53114518Y-96484518D01*
X53075775Y-96516314D01*
X53031585Y-96539934D01*
X52983622Y-96554483D01*
X52927609Y-96560000D01*
X52177391Y-96560000D01*
X52121378Y-96554483D01*
X52073415Y-96539934D01*
X52029225Y-96516314D01*
X51990482Y-96484518D01*
X51958686Y-96445775D01*
X51935066Y-96401585D01*
X51920517Y-96353622D01*
X51915000Y-96297609D01*
X51915000Y-95472391D01*
X51920517Y-95416378D01*
X51935066Y-95368415D01*
X51958686Y-95324225D01*
X51990482Y-95285482D01*
X52029225Y-95253686D01*
X52073415Y-95230066D01*
X52121378Y-95215517D01*
X52177391Y-95210000D01*
X52927609Y-95210000D01*
X52983622Y-95215517D01*
X52983622Y-95215517D01*
G37*
G36*
X79868707Y-93937596D02*
X79945836Y-93945193D01*
X80077787Y-93985220D01*
X80143763Y-94005233D01*
X80326172Y-94102733D01*
X80486054Y-94233946D01*
X80617267Y-94393828D01*
X80714767Y-94576237D01*
X80730687Y-94628719D01*
X80774807Y-94774164D01*
X80795080Y-94980000D01*
X80774807Y-95185836D01*
X80744580Y-95285482D01*
X80714767Y-95383763D01*
X80617267Y-95566172D01*
X80486054Y-95726054D01*
X80326172Y-95857267D01*
X80143763Y-95954767D01*
X80077787Y-95974780D01*
X79945836Y-96014807D01*
X79868707Y-96022403D01*
X79791580Y-96030000D01*
X79688420Y-96030000D01*
X79611293Y-96022403D01*
X79534164Y-96014807D01*
X79402213Y-95974780D01*
X79336237Y-95954767D01*
X79153828Y-95857267D01*
X78993946Y-95726054D01*
X78862733Y-95566172D01*
X78765233Y-95383763D01*
X78735420Y-95285482D01*
X78705193Y-95185836D01*
X78684920Y-94980000D01*
X78705193Y-94774164D01*
X78749313Y-94628719D01*
X78765233Y-94576237D01*
X78862733Y-94393828D01*
X78993946Y-94233946D01*
X79153828Y-94102733D01*
X79336237Y-94005233D01*
X79402213Y-93985220D01*
X79534164Y-93945193D01*
X79611293Y-93937596D01*
X79688420Y-93930000D01*
X79791580Y-93930000D01*
X79868707Y-93937596D01*
X79868707Y-93937596D01*
G37*
G36*
X77328707Y-93937596D02*
X77405836Y-93945193D01*
X77537787Y-93985220D01*
X77603763Y-94005233D01*
X77786172Y-94102733D01*
X77946054Y-94233946D01*
X78077267Y-94393828D01*
X78174767Y-94576237D01*
X78190687Y-94628719D01*
X78234807Y-94774164D01*
X78255080Y-94980000D01*
X78234807Y-95185836D01*
X78204580Y-95285482D01*
X78174767Y-95383763D01*
X78077267Y-95566172D01*
X77946054Y-95726054D01*
X77786172Y-95857267D01*
X77603763Y-95954767D01*
X77537787Y-95974780D01*
X77405836Y-96014807D01*
X77328707Y-96022403D01*
X77251580Y-96030000D01*
X77148420Y-96030000D01*
X77071293Y-96022403D01*
X76994164Y-96014807D01*
X76862213Y-95974780D01*
X76796237Y-95954767D01*
X76613828Y-95857267D01*
X76453946Y-95726054D01*
X76322733Y-95566172D01*
X76225233Y-95383763D01*
X76195420Y-95285482D01*
X76165193Y-95185836D01*
X76144920Y-94980000D01*
X76165193Y-94774164D01*
X76209313Y-94628719D01*
X76225233Y-94576237D01*
X76322733Y-94393828D01*
X76453946Y-94233946D01*
X76613828Y-94102733D01*
X76796237Y-94005233D01*
X76862213Y-93985220D01*
X76994164Y-93945193D01*
X77071293Y-93937596D01*
X77148420Y-93930000D01*
X77251580Y-93930000D01*
X77328707Y-93937596D01*
X77328707Y-93937596D01*
G37*
G36*
X61873622Y-94580517D02*
X61921585Y-94595066D01*
X61965775Y-94618686D01*
X62004518Y-94650482D01*
X62036314Y-94689225D01*
X62059934Y-94733415D01*
X62074483Y-94781378D01*
X62080000Y-94837391D01*
X62080000Y-95662609D01*
X62074483Y-95718622D01*
X62059934Y-95766585D01*
X62036314Y-95810775D01*
X62004518Y-95849518D01*
X61965775Y-95881314D01*
X61921585Y-95904934D01*
X61873622Y-95919483D01*
X61817609Y-95925000D01*
X61067391Y-95925000D01*
X61011378Y-95919483D01*
X60963415Y-95904934D01*
X60919225Y-95881314D01*
X60880482Y-95849518D01*
X60848686Y-95810775D01*
X60825066Y-95766585D01*
X60810517Y-95718622D01*
X60805000Y-95662609D01*
X60805000Y-94837391D01*
X60810517Y-94781378D01*
X60825066Y-94733415D01*
X60848686Y-94689225D01*
X60880482Y-94650482D01*
X60919225Y-94618686D01*
X60963415Y-94595066D01*
X61011378Y-94580517D01*
X61067391Y-94575000D01*
X61817609Y-94575000D01*
X61873622Y-94580517D01*
X61873622Y-94580517D01*
G37*
G36*
X63448622Y-94580517D02*
X63496585Y-94595066D01*
X63540775Y-94618686D01*
X63579518Y-94650482D01*
X63611314Y-94689225D01*
X63634934Y-94733415D01*
X63649483Y-94781378D01*
X63655000Y-94837391D01*
X63655000Y-95662609D01*
X63649483Y-95718622D01*
X63634934Y-95766585D01*
X63611314Y-95810775D01*
X63579518Y-95849518D01*
X63540775Y-95881314D01*
X63496585Y-95904934D01*
X63448622Y-95919483D01*
X63392609Y-95925000D01*
X62642391Y-95925000D01*
X62586378Y-95919483D01*
X62538415Y-95904934D01*
X62494225Y-95881314D01*
X62455482Y-95849518D01*
X62423686Y-95810775D01*
X62400066Y-95766585D01*
X62385517Y-95718622D01*
X62380000Y-95662609D01*
X62380000Y-94837391D01*
X62385517Y-94781378D01*
X62400066Y-94733415D01*
X62423686Y-94689225D01*
X62455482Y-94650482D01*
X62494225Y-94618686D01*
X62538415Y-94595066D01*
X62586378Y-94580517D01*
X62642391Y-94575000D01*
X63392609Y-94575000D01*
X63448622Y-94580517D01*
X63448622Y-94580517D01*
G37*
G36*
X29330603Y-93774968D02*
X29330606Y-93774969D01*
X29330605Y-93774969D01*
X29505678Y-93847486D01*
X29505679Y-93847487D01*
X29663241Y-93952767D01*
X29797233Y-94086759D01*
X29850232Y-94166077D01*
X29902514Y-94244322D01*
X29958603Y-94379734D01*
X29975032Y-94419397D01*
X30012000Y-94605250D01*
X30012000Y-94794750D01*
X29975032Y-94980603D01*
X29975031Y-94980605D01*
X29902514Y-95155678D01*
X29902513Y-95155679D01*
X29797233Y-95313241D01*
X29663241Y-95447233D01*
X29583923Y-95500232D01*
X29505678Y-95552514D01*
X29375947Y-95606250D01*
X29330603Y-95625032D01*
X29144750Y-95662000D01*
X28955250Y-95662000D01*
X28769397Y-95625032D01*
X28724053Y-95606250D01*
X28594322Y-95552514D01*
X28516077Y-95500232D01*
X28436759Y-95447233D01*
X28302767Y-95313241D01*
X28197487Y-95155679D01*
X28197486Y-95155678D01*
X28124969Y-94980605D01*
X28124968Y-94980603D01*
X28088000Y-94794750D01*
X28088000Y-94605250D01*
X28124968Y-94419397D01*
X28141397Y-94379734D01*
X28197486Y-94244322D01*
X28249768Y-94166077D01*
X28302767Y-94086759D01*
X28436759Y-93952767D01*
X28594321Y-93847487D01*
X28594322Y-93847486D01*
X28769395Y-93774969D01*
X28769394Y-93774969D01*
X28769397Y-93774968D01*
X28955250Y-93738000D01*
X29144750Y-93738000D01*
X29330603Y-93774968D01*
X29330603Y-93774968D01*
G37*
G36*
X46830603Y-93774968D02*
X46830606Y-93774969D01*
X46830605Y-93774969D01*
X47005678Y-93847486D01*
X47005679Y-93847487D01*
X47163241Y-93952767D01*
X47297233Y-94086759D01*
X47350232Y-94166077D01*
X47402514Y-94244322D01*
X47458603Y-94379734D01*
X47475032Y-94419397D01*
X47512000Y-94605250D01*
X47512000Y-94794750D01*
X47475032Y-94980603D01*
X47475031Y-94980605D01*
X47402514Y-95155678D01*
X47402513Y-95155679D01*
X47297233Y-95313241D01*
X47163241Y-95447233D01*
X47083923Y-95500232D01*
X47005678Y-95552514D01*
X46875947Y-95606250D01*
X46830603Y-95625032D01*
X46644750Y-95662000D01*
X46455250Y-95662000D01*
X46269397Y-95625032D01*
X46224053Y-95606250D01*
X46094322Y-95552514D01*
X46016077Y-95500232D01*
X45936759Y-95447233D01*
X45802767Y-95313241D01*
X45697487Y-95155679D01*
X45697486Y-95155678D01*
X45624969Y-94980605D01*
X45624968Y-94980603D01*
X45588000Y-94794750D01*
X45588000Y-94605250D01*
X45624968Y-94419397D01*
X45641397Y-94379734D01*
X45697486Y-94244322D01*
X45749768Y-94166077D01*
X45802767Y-94086759D01*
X45936759Y-93952767D01*
X46094321Y-93847487D01*
X46094322Y-93847486D01*
X46269395Y-93774969D01*
X46269394Y-93774969D01*
X46269397Y-93774968D01*
X46455250Y-93738000D01*
X46644750Y-93738000D01*
X46830603Y-93774968D01*
X46830603Y-93774968D01*
G37*
G36*
X55523622Y-92675517D02*
X55571585Y-92690066D01*
X55615775Y-92713686D01*
X55654518Y-92745482D01*
X55686314Y-92784225D01*
X55709934Y-92828415D01*
X55724483Y-92876378D01*
X55730000Y-92932391D01*
X55730000Y-93757609D01*
X55724483Y-93813622D01*
X55709934Y-93861585D01*
X55686314Y-93905775D01*
X55654518Y-93944518D01*
X55615775Y-93976314D01*
X55571585Y-93999934D01*
X55523622Y-94014483D01*
X55467609Y-94020000D01*
X54717391Y-94020000D01*
X54661378Y-94014483D01*
X54613415Y-93999934D01*
X54569225Y-93976314D01*
X54530482Y-93944518D01*
X54498686Y-93905775D01*
X54475066Y-93861585D01*
X54460517Y-93813622D01*
X54455000Y-93757609D01*
X54455000Y-92932391D01*
X54460517Y-92876378D01*
X54475066Y-92828415D01*
X54498686Y-92784225D01*
X54530482Y-92745482D01*
X54569225Y-92713686D01*
X54613415Y-92690066D01*
X54661378Y-92675517D01*
X54717391Y-92670000D01*
X55467609Y-92670000D01*
X55523622Y-92675517D01*
X55523622Y-92675517D01*
G37*
G36*
X57098622Y-92675517D02*
X57146585Y-92690066D01*
X57190775Y-92713686D01*
X57229518Y-92745482D01*
X57261314Y-92784225D01*
X57284934Y-92828415D01*
X57299483Y-92876378D01*
X57305000Y-92932391D01*
X57305000Y-93757609D01*
X57299483Y-93813622D01*
X57284934Y-93861585D01*
X57261314Y-93905775D01*
X57229518Y-93944518D01*
X57190775Y-93976314D01*
X57146585Y-93999934D01*
X57098622Y-94014483D01*
X57042609Y-94020000D01*
X56292391Y-94020000D01*
X56236378Y-94014483D01*
X56188415Y-93999934D01*
X56144225Y-93976314D01*
X56105482Y-93944518D01*
X56073686Y-93905775D01*
X56050066Y-93861585D01*
X56035517Y-93813622D01*
X56030000Y-93757609D01*
X56030000Y-92932391D01*
X56035517Y-92876378D01*
X56050066Y-92828415D01*
X56073686Y-92784225D01*
X56105482Y-92745482D01*
X56144225Y-92713686D01*
X56188415Y-92690066D01*
X56236378Y-92675517D01*
X56292391Y-92670000D01*
X57042609Y-92670000D01*
X57098622Y-92675517D01*
X57098622Y-92675517D01*
G37*
G36*
X61873622Y-92675517D02*
X61921585Y-92690066D01*
X61965775Y-92713686D01*
X62004518Y-92745482D01*
X62036314Y-92784225D01*
X62059934Y-92828415D01*
X62074483Y-92876378D01*
X62080000Y-92932391D01*
X62080000Y-93757609D01*
X62074483Y-93813622D01*
X62059934Y-93861585D01*
X62036314Y-93905775D01*
X62004518Y-93944518D01*
X61965775Y-93976314D01*
X61921585Y-93999934D01*
X61873622Y-94014483D01*
X61817609Y-94020000D01*
X61067391Y-94020000D01*
X61011378Y-94014483D01*
X60963415Y-93999934D01*
X60919225Y-93976314D01*
X60880482Y-93944518D01*
X60848686Y-93905775D01*
X60825066Y-93861585D01*
X60810517Y-93813622D01*
X60805000Y-93757609D01*
X60805000Y-92932391D01*
X60810517Y-92876378D01*
X60825066Y-92828415D01*
X60848686Y-92784225D01*
X60880482Y-92745482D01*
X60919225Y-92713686D01*
X60963415Y-92690066D01*
X61011378Y-92675517D01*
X61067391Y-92670000D01*
X61817609Y-92670000D01*
X61873622Y-92675517D01*
X61873622Y-92675517D01*
G37*
G36*
X63448622Y-92675517D02*
X63496585Y-92690066D01*
X63540775Y-92713686D01*
X63579518Y-92745482D01*
X63611314Y-92784225D01*
X63634934Y-92828415D01*
X63649483Y-92876378D01*
X63655000Y-92932391D01*
X63655000Y-93757609D01*
X63649483Y-93813622D01*
X63634934Y-93861585D01*
X63611314Y-93905775D01*
X63579518Y-93944518D01*
X63540775Y-93976314D01*
X63496585Y-93999934D01*
X63448622Y-94014483D01*
X63392609Y-94020000D01*
X62642391Y-94020000D01*
X62586378Y-94014483D01*
X62538415Y-93999934D01*
X62494225Y-93976314D01*
X62455482Y-93944518D01*
X62423686Y-93905775D01*
X62400066Y-93861585D01*
X62385517Y-93813622D01*
X62380000Y-93757609D01*
X62380000Y-92932391D01*
X62385517Y-92876378D01*
X62400066Y-92828415D01*
X62423686Y-92784225D01*
X62455482Y-92745482D01*
X62494225Y-92713686D01*
X62538415Y-92690066D01*
X62586378Y-92675517D01*
X62642391Y-92670000D01*
X63392609Y-92670000D01*
X63448622Y-92675517D01*
X63448622Y-92675517D01*
G37*
G36*
X77328707Y-91397596D02*
X77405836Y-91405193D01*
X77537787Y-91445220D01*
X77603763Y-91465233D01*
X77786172Y-91562733D01*
X77946054Y-91693946D01*
X78077267Y-91853828D01*
X78174767Y-92036237D01*
X78190687Y-92088719D01*
X78234807Y-92234164D01*
X78255080Y-92440000D01*
X78234807Y-92645836D01*
X78204580Y-92745482D01*
X78174767Y-92843763D01*
X78077267Y-93026172D01*
X77946054Y-93186054D01*
X77786172Y-93317267D01*
X77603763Y-93414767D01*
X77537787Y-93434780D01*
X77405836Y-93474807D01*
X77328707Y-93482403D01*
X77251580Y-93490000D01*
X77148420Y-93490000D01*
X77071293Y-93482403D01*
X76994164Y-93474807D01*
X76862213Y-93434780D01*
X76796237Y-93414767D01*
X76613828Y-93317267D01*
X76453946Y-93186054D01*
X76322733Y-93026172D01*
X76225233Y-92843763D01*
X76195420Y-92745482D01*
X76165193Y-92645836D01*
X76144920Y-92440000D01*
X76165193Y-92234164D01*
X76209313Y-92088719D01*
X76225233Y-92036237D01*
X76322733Y-91853828D01*
X76453946Y-91693946D01*
X76613828Y-91562733D01*
X76796237Y-91465233D01*
X76862213Y-91445220D01*
X76994164Y-91405193D01*
X77071293Y-91397596D01*
X77148420Y-91390000D01*
X77251580Y-91390000D01*
X77328707Y-91397596D01*
X77328707Y-91397596D01*
G37*
G36*
X79868707Y-91397596D02*
X79945836Y-91405193D01*
X80077787Y-91445220D01*
X80143763Y-91465233D01*
X80326172Y-91562733D01*
X80486054Y-91693946D01*
X80617267Y-91853828D01*
X80714767Y-92036237D01*
X80730687Y-92088719D01*
X80774807Y-92234164D01*
X80795080Y-92440000D01*
X80774807Y-92645836D01*
X80744580Y-92745482D01*
X80714767Y-92843763D01*
X80617267Y-93026172D01*
X80486054Y-93186054D01*
X80326172Y-93317267D01*
X80143763Y-93414767D01*
X80077787Y-93434780D01*
X79945836Y-93474807D01*
X79868707Y-93482403D01*
X79791580Y-93490000D01*
X79688420Y-93490000D01*
X79611293Y-93482403D01*
X79534164Y-93474807D01*
X79402213Y-93434780D01*
X79336237Y-93414767D01*
X79153828Y-93317267D01*
X78993946Y-93186054D01*
X78862733Y-93026172D01*
X78765233Y-92843763D01*
X78735420Y-92745482D01*
X78705193Y-92645836D01*
X78684920Y-92440000D01*
X78705193Y-92234164D01*
X78749313Y-92088719D01*
X78765233Y-92036237D01*
X78862733Y-91853828D01*
X78993946Y-91693946D01*
X79153828Y-91562733D01*
X79336237Y-91465233D01*
X79402213Y-91445220D01*
X79534164Y-91405193D01*
X79611293Y-91397596D01*
X79688420Y-91390000D01*
X79791580Y-91390000D01*
X79868707Y-91397596D01*
X79868707Y-91397596D01*
G37*
G36*
X72338622Y-92040517D02*
X72386585Y-92055066D01*
X72430775Y-92078686D01*
X72469518Y-92110482D01*
X72501314Y-92149225D01*
X72524934Y-92193415D01*
X72539483Y-92241378D01*
X72545000Y-92297391D01*
X72545000Y-93122609D01*
X72539483Y-93178622D01*
X72524934Y-93226585D01*
X72501314Y-93270775D01*
X72469518Y-93309518D01*
X72430775Y-93341314D01*
X72386585Y-93364934D01*
X72338622Y-93379483D01*
X72282609Y-93385000D01*
X71532391Y-93385000D01*
X71476378Y-93379483D01*
X71428415Y-93364934D01*
X71384225Y-93341314D01*
X71345482Y-93309518D01*
X71313686Y-93270775D01*
X71290066Y-93226585D01*
X71275517Y-93178622D01*
X71270000Y-93122609D01*
X71270000Y-92297391D01*
X71275517Y-92241378D01*
X71290066Y-92193415D01*
X71313686Y-92149225D01*
X71345482Y-92110482D01*
X71384225Y-92078686D01*
X71428415Y-92055066D01*
X71476378Y-92040517D01*
X71532391Y-92035000D01*
X72282609Y-92035000D01*
X72338622Y-92040517D01*
X72338622Y-92040517D01*
G37*
G36*
X70763622Y-92040517D02*
X70811585Y-92055066D01*
X70855775Y-92078686D01*
X70894518Y-92110482D01*
X70926314Y-92149225D01*
X70949934Y-92193415D01*
X70964483Y-92241378D01*
X70970000Y-92297391D01*
X70970000Y-93122609D01*
X70964483Y-93178622D01*
X70949934Y-93226585D01*
X70926314Y-93270775D01*
X70894518Y-93309518D01*
X70855775Y-93341314D01*
X70811585Y-93364934D01*
X70763622Y-93379483D01*
X70707609Y-93385000D01*
X69957391Y-93385000D01*
X69901378Y-93379483D01*
X69853415Y-93364934D01*
X69809225Y-93341314D01*
X69770482Y-93309518D01*
X69738686Y-93270775D01*
X69715066Y-93226585D01*
X69700517Y-93178622D01*
X69695000Y-93122609D01*
X69695000Y-92297391D01*
X69700517Y-92241378D01*
X69715066Y-92193415D01*
X69738686Y-92149225D01*
X69770482Y-92110482D01*
X69809225Y-92078686D01*
X69853415Y-92055066D01*
X69901378Y-92040517D01*
X69957391Y-92035000D01*
X70707609Y-92035000D01*
X70763622Y-92040517D01*
X70763622Y-92040517D01*
G37*
G36*
X79868707Y-88857596D02*
X79945836Y-88865193D01*
X80077787Y-88905220D01*
X80143763Y-88925233D01*
X80326172Y-89022733D01*
X80486054Y-89153946D01*
X80617267Y-89313828D01*
X80714767Y-89496237D01*
X80714767Y-89496238D01*
X80774807Y-89694164D01*
X80795080Y-89900000D01*
X80774807Y-90105836D01*
X80734780Y-90237787D01*
X80714767Y-90303763D01*
X80617267Y-90486172D01*
X80486054Y-90646054D01*
X80326172Y-90777267D01*
X80143763Y-90874767D01*
X80077787Y-90894780D01*
X79945836Y-90934807D01*
X79868707Y-90942403D01*
X79791580Y-90950000D01*
X79688420Y-90950000D01*
X79611293Y-90942403D01*
X79534164Y-90934807D01*
X79402213Y-90894780D01*
X79336237Y-90874767D01*
X79153828Y-90777267D01*
X78993946Y-90646054D01*
X78862733Y-90486172D01*
X78765233Y-90303763D01*
X78745220Y-90237787D01*
X78705193Y-90105836D01*
X78684920Y-89900000D01*
X78705193Y-89694164D01*
X78765233Y-89496238D01*
X78765233Y-89496237D01*
X78862733Y-89313828D01*
X78993946Y-89153946D01*
X79153828Y-89022733D01*
X79336237Y-88925233D01*
X79402213Y-88905220D01*
X79534164Y-88865193D01*
X79611293Y-88857596D01*
X79688420Y-88850000D01*
X79791580Y-88850000D01*
X79868707Y-88857596D01*
X79868707Y-88857596D01*
G37*
G36*
X78250000Y-90950000D02*
X76150000Y-90950000D01*
X76150000Y-88850000D01*
X78250000Y-88850000D01*
X78250000Y-90950000D01*
X78250000Y-90950000D01*
G37*
G36*
X53288622Y-86960517D02*
X53336585Y-86975066D01*
X53380775Y-86998686D01*
X53419518Y-87030482D01*
X53451314Y-87069225D01*
X53474934Y-87113415D01*
X53489483Y-87161378D01*
X53495000Y-87217391D01*
X53495000Y-88042609D01*
X53489483Y-88098622D01*
X53474934Y-88146585D01*
X53451314Y-88190775D01*
X53419518Y-88229518D01*
X53380775Y-88261314D01*
X53336585Y-88284934D01*
X53288622Y-88299483D01*
X53232609Y-88305000D01*
X52482391Y-88305000D01*
X52426378Y-88299483D01*
X52378415Y-88284934D01*
X52334225Y-88261314D01*
X52295482Y-88229518D01*
X52263686Y-88190775D01*
X52240066Y-88146585D01*
X52225517Y-88098622D01*
X52220000Y-88042609D01*
X52220000Y-87217391D01*
X52225517Y-87161378D01*
X52240066Y-87113415D01*
X52263686Y-87069225D01*
X52295482Y-87030482D01*
X52334225Y-86998686D01*
X52378415Y-86975066D01*
X52426378Y-86960517D01*
X52482391Y-86955000D01*
X53232609Y-86955000D01*
X53288622Y-86960517D01*
X53288622Y-86960517D01*
G37*
G36*
X51713622Y-86960517D02*
X51761585Y-86975066D01*
X51805775Y-86998686D01*
X51844518Y-87030482D01*
X51876314Y-87069225D01*
X51899934Y-87113415D01*
X51914483Y-87161378D01*
X51920000Y-87217391D01*
X51920000Y-88042609D01*
X51914483Y-88098622D01*
X51899934Y-88146585D01*
X51876314Y-88190775D01*
X51844518Y-88229518D01*
X51805775Y-88261314D01*
X51761585Y-88284934D01*
X51713622Y-88299483D01*
X51657609Y-88305000D01*
X50907391Y-88305000D01*
X50851378Y-88299483D01*
X50803415Y-88284934D01*
X50759225Y-88261314D01*
X50720482Y-88229518D01*
X50688686Y-88190775D01*
X50665066Y-88146585D01*
X50650517Y-88098622D01*
X50645000Y-88042609D01*
X50645000Y-87217391D01*
X50650517Y-87161378D01*
X50665066Y-87113415D01*
X50688686Y-87069225D01*
X50720482Y-87030482D01*
X50759225Y-86998686D01*
X50803415Y-86975066D01*
X50851378Y-86960517D01*
X50907391Y-86955000D01*
X51657609Y-86955000D01*
X51713622Y-86960517D01*
X51713622Y-86960517D01*
G37*
G36*
X36559612Y-85793037D02*
X36787096Y-85887264D01*
X36991831Y-86024064D01*
X37165936Y-86198169D01*
X37302736Y-86402904D01*
X37349515Y-86515839D01*
X37361066Y-86537450D01*
X37376611Y-86556392D01*
X37395554Y-86571938D01*
X37417164Y-86583489D01*
X37440613Y-86590602D01*
X37465000Y-86593004D01*
X37489386Y-86590602D01*
X37512835Y-86583489D01*
X37534446Y-86571938D01*
X37553388Y-86556393D01*
X37568934Y-86537450D01*
X37580485Y-86515839D01*
X37627264Y-86402904D01*
X37764064Y-86198169D01*
X37938169Y-86024064D01*
X38142904Y-85887264D01*
X38370388Y-85793037D01*
X38611885Y-85745000D01*
X38858115Y-85745000D01*
X39099612Y-85793037D01*
X39327096Y-85887264D01*
X39531831Y-86024064D01*
X39705935Y-86198168D01*
X39796066Y-86333058D01*
X39811612Y-86352000D01*
X39830554Y-86367545D01*
X39852165Y-86379096D01*
X39875614Y-86386209D01*
X39900000Y-86388611D01*
X39924387Y-86386209D01*
X39947836Y-86379096D01*
X39969447Y-86367545D01*
X39988389Y-86351999D01*
X40003934Y-86333057D01*
X40015485Y-86311446D01*
X40022598Y-86287997D01*
X40025000Y-86263611D01*
X40025000Y-85745000D01*
X42525000Y-85745000D01*
X42525000Y-88245000D01*
X40025000Y-88245000D01*
X40025000Y-87726389D01*
X40022598Y-87702003D01*
X40015485Y-87678554D01*
X40003934Y-87656943D01*
X39988388Y-87638001D01*
X39969446Y-87622455D01*
X39947835Y-87610904D01*
X39924386Y-87603791D01*
X39900000Y-87601389D01*
X39875614Y-87603791D01*
X39852165Y-87610904D01*
X39830554Y-87622455D01*
X39811612Y-87638001D01*
X39796066Y-87656942D01*
X39705935Y-87791832D01*
X39531831Y-87965936D01*
X39327096Y-88102736D01*
X39099612Y-88196963D01*
X38858115Y-88245000D01*
X38611885Y-88245000D01*
X38370388Y-88196963D01*
X38142904Y-88102736D01*
X37938169Y-87965936D01*
X37764064Y-87791831D01*
X37627264Y-87587096D01*
X37580485Y-87474161D01*
X37568934Y-87452550D01*
X37553389Y-87433608D01*
X37534446Y-87418062D01*
X37512836Y-87406511D01*
X37489387Y-87399398D01*
X37465000Y-87396996D01*
X37440614Y-87399398D01*
X37417165Y-87406511D01*
X37395554Y-87418062D01*
X37376612Y-87433607D01*
X37361066Y-87452550D01*
X37349515Y-87474161D01*
X37302736Y-87587096D01*
X37165936Y-87791831D01*
X36991831Y-87965936D01*
X36787096Y-88102736D01*
X36559612Y-88196963D01*
X36318115Y-88245000D01*
X36071885Y-88245000D01*
X35830388Y-88196963D01*
X35602904Y-88102736D01*
X35398169Y-87965936D01*
X35224064Y-87791831D01*
X35087264Y-87587096D01*
X34993037Y-87359612D01*
X34945000Y-87118115D01*
X34945000Y-86871885D01*
X34993037Y-86630388D01*
X35087264Y-86402904D01*
X35224064Y-86198169D01*
X35398169Y-86024064D01*
X35602904Y-85887264D01*
X35830388Y-85793037D01*
X36071885Y-85745000D01*
X36318115Y-85745000D01*
X36559612Y-85793037D01*
X36559612Y-85793037D01*
G37*
G36*
X66020000Y-85628611D02*
X66022402Y-85652997D01*
X66029515Y-85676446D01*
X66041066Y-85698057D01*
X66056612Y-85716999D01*
X66075554Y-85732545D01*
X66097165Y-85744096D01*
X66120614Y-85751209D01*
X66145000Y-85753611D01*
X66169386Y-85751209D01*
X66192835Y-85744096D01*
X66214446Y-85732545D01*
X66233388Y-85716999D01*
X66248934Y-85698058D01*
X66279043Y-85652997D01*
X66339062Y-85563172D01*
X66339063Y-85563171D01*
X66339065Y-85563168D01*
X66513169Y-85389064D01*
X66717904Y-85252264D01*
X66945388Y-85158037D01*
X67186885Y-85110000D01*
X67433115Y-85110000D01*
X67674612Y-85158037D01*
X67902096Y-85252264D01*
X68106831Y-85389064D01*
X68280936Y-85563169D01*
X68417736Y-85767904D01*
X68464515Y-85880839D01*
X68476066Y-85902450D01*
X68491611Y-85921392D01*
X68510554Y-85936938D01*
X68532164Y-85948489D01*
X68555613Y-85955602D01*
X68580000Y-85958004D01*
X68604386Y-85955602D01*
X68627835Y-85948489D01*
X68649446Y-85936938D01*
X68668388Y-85921393D01*
X68683934Y-85902450D01*
X68695485Y-85880839D01*
X68742264Y-85767904D01*
X68879064Y-85563169D01*
X69053169Y-85389064D01*
X69257904Y-85252264D01*
X69485388Y-85158037D01*
X69726885Y-85110000D01*
X69973115Y-85110000D01*
X70214612Y-85158037D01*
X70442096Y-85252264D01*
X70646831Y-85389064D01*
X70820936Y-85563169D01*
X70957736Y-85767904D01*
X71051963Y-85995388D01*
X71100000Y-86236885D01*
X71100000Y-86483115D01*
X71051963Y-86724612D01*
X70957736Y-86952096D01*
X70820936Y-87156831D01*
X70646831Y-87330936D01*
X70442096Y-87467736D01*
X70214612Y-87561963D01*
X69973115Y-87610000D01*
X69726885Y-87610000D01*
X69485388Y-87561963D01*
X69257904Y-87467736D01*
X69053169Y-87330936D01*
X68879064Y-87156831D01*
X68742264Y-86952096D01*
X68695485Y-86839161D01*
X68683934Y-86817550D01*
X68668389Y-86798608D01*
X68649446Y-86783062D01*
X68627836Y-86771511D01*
X68604387Y-86764398D01*
X68580000Y-86761996D01*
X68555614Y-86764398D01*
X68532165Y-86771511D01*
X68510554Y-86783062D01*
X68491612Y-86798607D01*
X68476066Y-86817550D01*
X68464515Y-86839161D01*
X68417736Y-86952096D01*
X68280936Y-87156831D01*
X68106831Y-87330936D01*
X67902096Y-87467736D01*
X67674612Y-87561963D01*
X67433115Y-87610000D01*
X67186885Y-87610000D01*
X66945388Y-87561963D01*
X66717904Y-87467736D01*
X66513169Y-87330936D01*
X66339065Y-87156832D01*
X66335683Y-87151770D01*
X66248934Y-87021942D01*
X66233388Y-87003000D01*
X66214446Y-86987455D01*
X66192835Y-86975904D01*
X66169386Y-86968791D01*
X66145000Y-86966389D01*
X66120613Y-86968791D01*
X66097164Y-86975904D01*
X66075553Y-86987455D01*
X66056611Y-87003001D01*
X66041066Y-87021943D01*
X66029515Y-87043554D01*
X66022402Y-87067003D01*
X66020000Y-87091389D01*
X66020000Y-87610000D01*
X63520000Y-87610000D01*
X63520000Y-85110000D01*
X66020000Y-85110000D01*
X66020000Y-85628611D01*
X66020000Y-85628611D01*
G37*
G36*
X78877971Y-82597076D02*
X79114639Y-82644152D01*
X79560510Y-82828838D01*
X79961784Y-83096960D01*
X80303040Y-83438216D01*
X80571162Y-83839490D01*
X80571162Y-83839491D01*
X80755848Y-84285362D01*
X80833828Y-84677391D01*
X80850000Y-84758696D01*
X80850000Y-85241304D01*
X80755848Y-85714639D01*
X80571162Y-86160510D01*
X80303040Y-86561784D01*
X79961784Y-86903040D01*
X79560510Y-87171162D01*
X79114639Y-87355848D01*
X78907774Y-87396996D01*
X78641305Y-87450000D01*
X78158695Y-87450000D01*
X77892226Y-87396996D01*
X77685361Y-87355848D01*
X77239490Y-87171162D01*
X76838216Y-86903040D01*
X76496960Y-86561784D01*
X76228838Y-86160510D01*
X76044152Y-85714639D01*
X75950000Y-85241304D01*
X75950000Y-84758696D01*
X75966173Y-84677391D01*
X76044152Y-84285362D01*
X76228838Y-83839491D01*
X76228838Y-83839490D01*
X76496960Y-83438216D01*
X76838216Y-83096960D01*
X77239490Y-82828838D01*
X77685361Y-82644152D01*
X77922029Y-82597076D01*
X78158695Y-82550000D01*
X78641305Y-82550000D01*
X78877971Y-82597076D01*
X78877971Y-82597076D01*
G37*
G36*
X29877971Y-82597076D02*
X30114639Y-82644152D01*
X30560510Y-82828838D01*
X30961784Y-83096960D01*
X31303040Y-83438216D01*
X31571162Y-83839490D01*
X31571162Y-83839491D01*
X31755848Y-84285362D01*
X31833828Y-84677391D01*
X31850000Y-84758696D01*
X31850000Y-85241304D01*
X31755848Y-85714639D01*
X31571162Y-86160510D01*
X31303040Y-86561784D01*
X30961784Y-86903040D01*
X30560510Y-87171162D01*
X30114639Y-87355848D01*
X29907774Y-87396996D01*
X29641305Y-87450000D01*
X29158695Y-87450000D01*
X28892226Y-87396996D01*
X28685361Y-87355848D01*
X28239490Y-87171162D01*
X27838216Y-86903040D01*
X27496960Y-86561784D01*
X27228838Y-86160510D01*
X27044152Y-85714639D01*
X26950000Y-85241304D01*
X26950000Y-84758696D01*
X26966173Y-84677391D01*
X27044152Y-84285362D01*
X27228838Y-83839491D01*
X27228838Y-83839490D01*
X27496960Y-83438216D01*
X27838216Y-83096960D01*
X28239490Y-82828838D01*
X28685361Y-82644152D01*
X28922029Y-82597076D01*
X29158695Y-82550000D01*
X29641305Y-82550000D01*
X29877971Y-82597076D01*
X29877971Y-82597076D01*
G37*
G36*
X74878622Y-84420517D02*
X74926585Y-84435066D01*
X74970775Y-84458686D01*
X75009518Y-84490482D01*
X75041314Y-84529225D01*
X75064934Y-84573415D01*
X75079483Y-84621378D01*
X75085000Y-84677391D01*
X75085000Y-85502609D01*
X75079483Y-85558622D01*
X75064934Y-85606585D01*
X75041314Y-85650775D01*
X75009518Y-85689518D01*
X74970775Y-85721314D01*
X74926585Y-85744934D01*
X74878622Y-85759483D01*
X74822609Y-85765000D01*
X74072391Y-85765000D01*
X74016378Y-85759483D01*
X73968415Y-85744934D01*
X73924225Y-85721314D01*
X73885482Y-85689518D01*
X73853686Y-85650775D01*
X73830066Y-85606585D01*
X73815517Y-85558622D01*
X73810000Y-85502609D01*
X73810000Y-84677391D01*
X73815517Y-84621378D01*
X73830066Y-84573415D01*
X73853686Y-84529225D01*
X73885482Y-84490482D01*
X73924225Y-84458686D01*
X73968415Y-84435066D01*
X74016378Y-84420517D01*
X74072391Y-84415000D01*
X74822609Y-84415000D01*
X74878622Y-84420517D01*
X74878622Y-84420517D01*
G37*
G36*
X73303622Y-84420517D02*
X73351585Y-84435066D01*
X73395775Y-84458686D01*
X73434518Y-84490482D01*
X73466314Y-84529225D01*
X73489934Y-84573415D01*
X73504483Y-84621378D01*
X73510000Y-84677391D01*
X73510000Y-85502609D01*
X73504483Y-85558622D01*
X73489934Y-85606585D01*
X73466314Y-85650775D01*
X73434518Y-85689518D01*
X73395775Y-85721314D01*
X73351585Y-85744934D01*
X73303622Y-85759483D01*
X73247609Y-85765000D01*
X72497391Y-85765000D01*
X72441378Y-85759483D01*
X72393415Y-85744934D01*
X72349225Y-85721314D01*
X72310482Y-85689518D01*
X72278686Y-85650775D01*
X72255066Y-85606585D01*
X72240517Y-85558622D01*
X72235000Y-85502609D01*
X72235000Y-84677391D01*
X72240517Y-84621378D01*
X72255066Y-84573415D01*
X72278686Y-84529225D01*
X72310482Y-84490482D01*
X72349225Y-84458686D01*
X72393415Y-84435066D01*
X72441378Y-84420517D01*
X72497391Y-84415000D01*
X73247609Y-84415000D01*
X73303622Y-84420517D01*
X73303622Y-84420517D01*
G37*
G36*
X73303622Y-81880517D02*
X73351585Y-81895066D01*
X73395775Y-81918686D01*
X73434518Y-81950482D01*
X73466314Y-81989225D01*
X73489934Y-82033415D01*
X73504483Y-82081378D01*
X73510000Y-82137391D01*
X73510000Y-82962609D01*
X73504483Y-83018622D01*
X73489934Y-83066585D01*
X73466314Y-83110775D01*
X73434518Y-83149518D01*
X73395775Y-83181314D01*
X73351585Y-83204934D01*
X73303622Y-83219483D01*
X73247609Y-83225000D01*
X72497391Y-83225000D01*
X72441378Y-83219483D01*
X72393415Y-83204934D01*
X72349225Y-83181314D01*
X72310482Y-83149518D01*
X72278686Y-83110775D01*
X72255066Y-83066585D01*
X72240517Y-83018622D01*
X72235000Y-82962609D01*
X72235000Y-82137391D01*
X72240517Y-82081378D01*
X72255066Y-82033415D01*
X72278686Y-81989225D01*
X72310482Y-81950482D01*
X72349225Y-81918686D01*
X72393415Y-81895066D01*
X72441378Y-81880517D01*
X72497391Y-81875000D01*
X73247609Y-81875000D01*
X73303622Y-81880517D01*
X73303622Y-81880517D01*
G37*
G36*
X74878622Y-81880517D02*
X74926585Y-81895066D01*
X74970775Y-81918686D01*
X75009518Y-81950482D01*
X75041314Y-81989225D01*
X75064934Y-82033415D01*
X75079483Y-82081378D01*
X75085000Y-82137391D01*
X75085000Y-82962609D01*
X75079483Y-83018622D01*
X75064934Y-83066585D01*
X75041314Y-83110775D01*
X75009518Y-83149518D01*
X74970775Y-83181314D01*
X74926585Y-83204934D01*
X74878622Y-83219483D01*
X74822609Y-83225000D01*
X74072391Y-83225000D01*
X74016378Y-83219483D01*
X73968415Y-83204934D01*
X73924225Y-83181314D01*
X73885482Y-83149518D01*
X73853686Y-83110775D01*
X73830066Y-83066585D01*
X73815517Y-83018622D01*
X73810000Y-82962609D01*
X73810000Y-82137391D01*
X73815517Y-82081378D01*
X73830066Y-82033415D01*
X73853686Y-81989225D01*
X73885482Y-81950482D01*
X73924225Y-81918686D01*
X73968415Y-81895066D01*
X74016378Y-81880517D01*
X74072391Y-81875000D01*
X74822609Y-81875000D01*
X74878622Y-81880517D01*
X74878622Y-81880517D01*
G37*
M02*
