M48
;DRILL file {KiCad 5.0.2-bee76a0~70~ubuntu18.10.1} date Fr 15 Nov 2019 11:24:10 CET
;FORMAT={-:-/ absolute / metric / decimal}
FMAT,2
METRIC,TZ
T1C0.400
T2C1.000
T3C1.100
T4C3.000
%
G90
G05
T1
X49.53Y-128.905
X50.165Y-123.19
X50.165Y-127.635
X53.34Y-97.155
X59.055Y-97.79
X59.69Y-128.905
X60.96Y-96.52
X63.5Y-142.24
X64.205Y-102.94
X65.64Y-94.38
X65.64Y-96.92
X66.44Y-96.755
X66.675Y-129.54
X67.24Y-97.225
X68.58Y-112.395
X68.58Y-117.475
X69.123Y-93.345
X71.755Y-125.095
X72.39Y-87.63
X72.39Y-99.695
X72.39Y-107.95
X74.005Y-126.71
X74.295Y-92.71
X74.295Y-99.695
X74.295Y-114.3
X74.64Y-131.79
X74.93Y-83.82
X75.855Y-106.39
T2
X77.2Y-89.9
X77.2Y-92.44
X77.2Y-94.98
X77.2Y-97.52
X77.2Y-100.06
X77.2Y-102.6
X77.2Y-105.14
X77.2Y-107.68
X77.2Y-110.22
X77.2Y-112.76
X77.2Y-115.3
X77.2Y-117.84
X77.2Y-120.38
X77.2Y-122.92
X77.2Y-125.46
X77.2Y-128.
X77.2Y-130.54
X77.2Y-133.08
X77.2Y-135.62
X77.2Y-138.16
X79.74Y-89.9
X79.74Y-92.44
X79.74Y-94.98
X79.74Y-97.52
X79.74Y-100.06
X79.74Y-102.6
X79.74Y-105.14
X79.74Y-107.68
X79.74Y-110.22
X79.74Y-112.76
X79.74Y-115.3
X79.74Y-117.84
X79.74Y-120.38
X79.74Y-122.92
X79.74Y-125.46
X79.74Y-128.
X79.74Y-130.54
X79.74Y-133.08
X79.74Y-135.62
X79.74Y-138.16
X29.05Y-94.7
X29.05Y-134.7
X46.55Y-94.7
X46.55Y-134.7
T3
X67.31Y-139.065
X69.85Y-139.065
X72.39Y-139.065
X64.77Y-86.36
X67.31Y-86.36
X69.85Y-86.36
X36.195Y-86.995
X38.735Y-86.995
X41.275Y-86.995
T4
X78.4Y-85.
X29.4Y-85.
X78.4Y-143.
X29.4Y-143.
T0
M30
